/* XPM */
static char *_d97f04bbd4b4682f429dc59ea657612oRFd0K9izZfk7luy[] = {
/* columns rows colors chars-per-pixel */
"64 64 5 1 ",
"  c #489848",
". c #307030",
"X c #B0E8B8",
"o c #508070",
"O c #285828",
/* pixels */
"                                                                ",
"                                                                ",
"                                                                ",
"                                                                ",
"                                                                ",
"                                                                ",
"                                                                ",
"                                                                ",
"                                                                ",
"                                                                ",
"                                    ..    ..                    ",
"                                     ..  ..                     ",
"                                 ... ..  .. ...                 ",
"                                  ... .  . ...                  ",
"                                   ..      ..                   ",
"                                                                ",
"                                                                ",
"                                                                ",
"                                   XXX    ..       XXX          ",
"                                 X XXX X ..      X XXX X        ",
"                                 XXoooXX .. ...  XXoooXX        ",
"                                 OXoooXO . ...   OXoooXO        ",
"                                 OOXXXOO   ..    OOXXXOO        ",
"                                   OOO             OOO          ",
"                                   OOO             OOO          ",
"                                                                ",
"    ..    ..                        ..     XXX      ..    ..    ",
"     ..  ..                          ..  X XXX X     ..  ..     ",
" ... ..  .. ...                  ... ..  XXoooXX ... ..  .. ... ",
"  ... .  . ...                    ... .  OXoooXO  ... .  . ...  ",
"   ..      ..                      ..    OOXXXOO   ..      ..   ",
"                                           OOO                  ",
"                                           OOO                  ",
"                                                                ",
"                   XXX              ..    ..        ..    ..    ",
"                 X XXX X             ..  ..          ..  ..     ",
"                 XXoooXX         ... ..  .. ...  ... ..  .. ... ",
"                 OXoooXO          ... .  . ...    ... .  . ...  ",
"                 OOXXXOO           ..      ..      ..      ..   ",
"                   OOO                                          ",
"                   OOO                                          ",
"                                                                ",
"                    ..    ..      ..        ..    ..        ..  ",
"                     ..  ..      ..          ..  ..          .. ",
"                 ... ..  .. ...  .. ...  ... ..  .. ...  ... .. ",
"                  ... .  . ...   . ...    ... .  . ...    ... . ",
"                   ..      ..      ..      ..      ..      ..   ",
"                                                                ",
"                                                                ",
"                                                                ",
"                                                                ",
"                                                                ",
"                                                                ",
"                                                                ",
"                                                                ",
"                                                                ",
"                                                                ",
"                                                                ",
"                                                                ",
"                                                                ",
"                                                                ",
"                                                                ",
"                                                                ",
"                                                                "
};
