/* XPM */
static char *_92a8eef0bd14d79e5d60dc071e324d73HQZW9Xk0jU8Sqg2[] = {
/* columns rows colors chars-per-pixel */
"48 48 5 1 ",
"  c None",
". c black",
"X c #B35F0E",
"o c #CB8F18",
"O c #FFD145",
/* pixels */
"                     .........                  ",
"                     .........                  ",
"                     .........                  ",
"                  ...OOOOOOOOO...               ",
"                  ...OOOOOOOOO...               ",
"                  ...OOOOOOOOO...               ",
"               ...OOOooo...oooooo...            ",
"               ...OOOooo...oooooo...            ",
"               ...OOOooo...oooooo...            ",
"               ...OOO...   ...ooo...            ",
"               ...OOO...   ...ooo...            ",
"               ...OOO...   ...ooo...            ",
"               ...oooXXX...oooXXX...            ",
"               ...oooXXX...oooXXX...            ",
"               ...oooXXX...oooXXX...            ",
"                  ...oooOOOXXX...               ",
"                  ...oooOOOXXX...               ",
"                  ...oooOOOXXX...               ",
"                     ...XXX...                  ",
"                     ...XXX...                  ",
"                     ...XXX...                  ",
"                     ...ooo...                  ",
"                     ...ooo...                  ",
"                     ...ooo...                  ",
"                     ...ooo...                  ",
"                     ...ooo...                  ",
"                     ...ooo...                  ",
"                  ......ooo...                  ",
"                  ......ooo...                  ",
"                  ......ooo...                  ",
"                  ...OOOooo...                  ",
"                  ...OOOooo...                  ",
"                  ...OOOooo...                  ",
"                     ...ooo...                  ",
"                     ...ooo...                  ",
"                     ...ooo...                  ",
"               .........XXX...                  ",
"               .........XXX...                  ",
"               .........XXX...                  ",
"               ...OOOoooooo...                  ",
"               ...OOOoooooo...                  ",
"               ...OOOoooooo...                  ",
"               .........XXX...                  ",
"               .........XXX...                  ",
"               .........XXX...                  ",
"                     .........                  ",
"                     .........                  ",
"                     .........                  "
};
