/* XPM */
static char *_903d398d3734405e236a5365c3b4425bwsTLOVLZ6rv5Yt2[] = {
/* columns rows colors chars-per-pixel */
"64 64 223 2 ",
"   c #3A3229",
".  c #373D2A",
"X  c #2F3C33",
"o  c #41392F",
"O  c #463E33",
"+  c #36472C",
"@  c #34572D",
"#  c #304A30",
"$  c #354A3E",
"%  c #364438",
"&  c #365738",
"*  c #31672F",
"=  c #306E30",
"-  c #39653B",
";  c #3A6A3B",
":  c #386635",
">  c #307030",
",  c #3D743D",
"<  c #4A4236",
"1  c #4D4539",
"2  c #454839",
"3  c #534B3D",
"4  c #50473E",
"5  c #475739",
"6  c #51503D",
"7  c #47663B",
"8  c #374D42",
"9  c #394F43",
"0  c #395245",
"q  c #3B5549",
"w  c #3E5B4D",
"e  c #3C5C44",
"r  c #3F5D51",
"t  c #3B6342",
"y  c #3D6745",
"u  c #3F7542",
"i  c #454E42",
"p  c #425D4D",
"a  c #4B5646",
"s  c #5B5343",
"d  c #525D4C",
"f  c #585944",
"g  c #415F51",
"h  c #574F40",
"j  c #615947",
"k  c #605749",
"l  c #635B4A",
"z  c #675E52",
"x  c #42684A",
"c  c #546348",
"v  c #417C43",
"b  c #447548",
"n  c #436454",
"m  c #456B54",
"M  c #446659",
"N  c #466B5B",
"B  c #496D5B",
"V  c #4A6956",
"C  c #536E5D",
"Z  c #4D725D",
"A  c #4B7958",
"S  c #51755E",
"D  c #5B735E",
"F  c #6A634E",
"G  c #63664B",
"H  c #6D6552",
"J  c #6E6758",
"K  c #726B55",
"L  c #766D5B",
"P  c #736A58",
"I  c #7C745C",
"U  c #727C58",
"Y  c #6B735B",
"T  c #486F61",
"R  c #4C7462",
"E  c #4D7967",
"W  c #527662",
"Q  c #537B64",
"!  c #537D69",
"~  c #5B7D6B",
"^  c #5C7963",
"/  c #526F60",
"(  c #7D7863",
")  c #707462",
"_  c #80785F",
"`  c #857D63",
"'  c #837A6A",
"]  c #438344",
"[  c #458D45",
"{  c #498C49",
"}  c #479447",
"|  c #499549",
" . c #489848",
".. c #499347",
"X. c #50964C",
"o. c #578A58",
"O. c #569356",
"+. c #6C8657",
"@. c #538165",
"#. c #56836C",
"$. c #5B846C",
"%. c #5C896E",
"&. c #5B8B60",
"*. c #558471",
"=. c #5C8B73",
"-. c #598773",
";. c #5F9177",
":. c #5F9460",
">. c #60866E",
",. c #638B68",
"<. c #7B8F61",
"1. c #7A826A",
"2. c #689469",
"3. c #628C73",
"4. c #678C75",
"5. c #65947A",
"6. c #68967A",
"7. c #749979",
"8. c #79A47A",
"9. c #8A8266",
"0. c #8D846C",
"q. c #858069",
"w. c #928A6D",
"e. c #8D8472",
"r. c #848B76",
"t. c #968C73",
"y. c #998E79",
"u. c #938976",
"i. c #9A9274",
"p. c #9C927C",
"a. c #849A7E",
"s. c #A09878",
"d. c #A1977E",
"f. c #6C9680",
"g. c #6C9E82",
"h. c #669C80",
"j. c #759682",
"k. c #7A9B84",
"l. c #779A86",
"z. c #6CA283",
"x. c #6EAA87",
"c. c #74A686",
"v. c #7BAC8C",
"b. c #77A889",
"n. c #7DB592",
"m. c #7CAD8F",
"M. c #9A9687",
"N. c #919381",
"B. c #A29781",
"V. c #A79C88",
"C. c #84AA8A",
"Z. c #8AB38D",
"A. c #89AD94",
"S. c #82B592",
"D. c #8BB493",
"F. c #84BA96",
"G. c #8BB59A",
"H. c #8BBB99",
"J. c #91B99E",
"K. c #94B899",
"L. c #93AB8F",
"P. c #ADA38B",
"I. c #B7AB98",
"U. c #BDB09D",
"Y. c #BBB097",
"T. c #AEA894",
"R. c #94BBA1",
"E. c #B9B3A5",
"W. c #B0B4A2",
"Q. c #C2B59F",
"!. c #C1B4A2",
"~. c #CBBEAB",
"^. c #C5BAA7",
"/. c #8BC29C",
"(. c #89C39C",
"). c #92C69E",
"_. c #96C59E",
"`. c #94CCA3",
"'. c #99CDA7",
"]. c #9FC2A8",
"[. c #98C4A3",
"{. c #9AD3A8",
"}. c #A1CAA5",
"|. c #A1C3A9",
" X c #A3CCAD",
".X c #AACDAC",
"XX c #A3C4A5",
"oX c #A8D4AD",
"OX c #AEDAAE",
"+X c #A2D6AD",
"@X c #A8CEB0",
"#X c #A6D1B1",
"$X c #ACD4B4",
"%X c #ABDAB4",
"&X c #A7DBB2",
"*X c #B4DDBB",
"=X c #BADDBD",
"-X c #B2D6B5",
";X c #ABE3B4",
":X c #B4E7BB",
">X c #B7E4BB",
",X c #B9E4BD",
"<X c #B1E8B9",
"1X c #B2E8B9",
"2X c #B8EABE",
"3X c #CDC0AD",
"4X c #CBC3B4",
"5X c #D4C5B4",
"6X c #D6CBBC",
"7X c #DDCDBD",
"8X c #D8C9B6",
"9X c #BDEBC2",
"0X c #BCE5C1",
"qX c #DBD6C7",
"wX c #D3CEC1",
"eX c #E2D6C7",
"rX c #E7DED0",
"tX c #C2E5C6",
"yX c #C2EBC6",
"uX c #C6EDC9",
"iX c #CAEECC",
"pX c #CEF0CE",
"aX c #EBE2D5",
/* pixels */
" ...] ] ..O.&.o.2.K..X.XXX8.o.&.o.X.X.8..X.X}.}.}.}.}.}.'.}.}.}.}.}.}.}.}.}.[.}.'.}.}..XXX:...] 2.o.o.L..X.X].C.o.,.:.] ..b ] ..",
"| X.o.&.o.:.7.2.8.XX.X.X.XC.,.7.2.O.o.K.-X-XOXoXoXoXoXoXoXOXoXoXoXoXoXoXoXoXoXOXoXoX-X-X.X7.o.o.7.7.2._.#X@X}.D.2.7.7.o.o.o.o.X.",
"X.:.8.a.,.2.D.C.K.oX%X$X%X[.a.Z.b.o.2..XuXtX,X:X:X:X:X:X1X:X1X1X1X1X1X:X:X:X:X:X:X,X9XiXtXL.2.2.K.Z.L.oX%X$X%X].C.Z.L.,.2.a.2.O.",
"O.8.K.].C.7.D.D.K.[.'.'.'.[.Z.K.Z.8.D.=XiXyX2X:X1X1X1X1X1X1X1X<X1X1X1X:X1X1X1X1X1X1X9XiXuXXXC.8.D.D.H._.'.'.'.[.Z.D.D.7.C.XXZ.8.",
"2.).6X>XK.C.H.H./.H.J./.).[.H.H.G.G.oX,XpXuX2X<X1X<X<X<X<X<X<X<X<X<X<X<X1X<X<X<X<X<X9XpXiX*X].G.G.G.R.H././.J./.H.G.D.K.XX6XOXZ.",
"Z.}.yXuXOXXX X X#X#X#X#X X#X@X X#X#X*X2XiX9X<X<X<X<X<X<X;X<X<X<X<X<X<X;X1X<X<X<X<X<X2XpXiX,X%X$X X X#X X#X#X#X#X#X X X.X>XiX,XoX",
"_.OXpXiX0X-X=X=X*X*X=X0X=X=X=X*X0X9X1X9XiXuX1X<X;X1X<X<X<X<X<X;X;X<X<X<X<X<X<X<X<X<X2XpXiX2X0X0X*X=X=X*X*X0X=X=X=X*X*X=XtXpXyX,X",
"OX>XuXiXyXtXyX2X9X9X9X9X9X9XyX9XuXuX1X9XpX9X2X<X1X1X<X<X<X<X<X<X<X<X<X<X<X;X<X<X<X<X9XpXuX2X9XiX9XyX9X9X9X9X9X0X9X9XyX2XyXpXuXyX",
";X2XuXiX9X9X9X2X9X9X9X9X9X9X9X9XuXiX9X9XiX9X2X<X<X<X<X<X;X<X<X<X<X<X<X<X<X<X<X<X<X<X2XpXuX1X9XpXyX2X2X2X9X2X2X2X9X9X9X2X9XpXuX9X",
"OX1XiXuX9X1X1X<X0X9X1X<X1X1X1X1X9XuX9X1XpX9X1X<X<X<X<X1X<X<X<X<X<X<X<X<X1X1X<X<X<X<X9XiXuX9X9XpX2X2X1X1X1X1X1X<X:X:X1X1X9XpXuXyX",
"OX1XuXiX2X1X<X<X<X<X<X<X<X1X1X1X9XuX9X1XpX9X9X1X<X1X1X1X1X1X<X<X1X1X<X<X1X1X1X1X1X:X9XpXiX1X9XpX2X1X1X1X1X1X<X<X1X<X<X<X9XpXuXyX",
"OX>XiXiX2X1X<X<X<X;X<X<X<X1X1X1X9X9X<X9XiXiX9X2X1X9X1X1X9X9X9X0X2X2X1X1X2X2X2X2X2X2X9XiXiX:X9XiX1X1X1X1X1X1X<X<X<X<X<X<X9XpXuXyX",
"OX>XiXiX9X<X<X<X<X<X<X<X<X<X<X<X9XuX9X9XiXiXyXuX9X9X9X9X9X9X9X9X9X9X9X9X9XyXyX9X9X9XuXiXiX2X9XpX2X1X1X<X<X<X<X<X<X<X<X<X9XpXuX9X",
"OX>XuXiX2X1X<X<X<X<X<X<X<X<X<X<X9XuX9X0XiXuXuXtX9XuXuX9XtXuXuXuXyXuXyXyXyXyXtXuXyXuXuXiXuX9X9XpX2X1X<X<X;X<X<X<X<X<X<X1X9XpXuXuX",
"OX>XiXiX2X1X<X<X<X;X<X<X<X<X<X<XuXuX9XtXtXtXiXtX0XtX9XtXtXtXtXtXyXtXtXtXtXtXtXuXtXtXtXtXtX9XyXiX1X<X<X<X<X<X<X<X<X<X<X1X9XpXuX9X",
"OX2XiXuX9X<X<X<X<X<X<X<X<X<X<X<X9XiX9X*X@XR.R.|.|.].|.|.|.|.|.|.}.}.|.|.].].].R.].].].|.@X0XyXpX1X<X<X<X<X<X<X<X<X<X1X2X9XpXiXuX",
"OX>XuXiXtX9X:X<X<X<X<X<X<X<X<X<X9XpX0X].m.j.j.l.j.j.j.j.l.k.l.l.l.l.l.l.j.j.j.l.j.l.j.l.G.*XuXiX2X1X1X1X1X1X1X1X1X<X:X9XyXiXiXuX",
"}.OX$X-X-X9X2X2X2X2X2X2X1X9X2X2XuXuX*Xm.~ / ~ 4.>.W / / / ^ ~ / / W ~ W C / W ~ 4.>.^ / 4.R.0XiX2X2X2X2X2X2X2X2X2X2X9X,X$X$X-X*X",
"_.Z.D.A.R.*X,X,X0X,X,X0X0X,X0X0X9X0X[.4.n q T >.@.n q q w r r w q g r w q 9 r B -.~ M 0 T b.$XtX2X:X2X2X0X,X,X2X,X,X,X@XK.A.G.R.",
"8.,.~ Q 4.[.$X$X$X$X$X$X%X$X$X$X$X].b.E r q ~ c.5.n 9 p w r r 8 % 0 n g w 8 r Q b.h.T 8 M ~ G.$X-X$X%X;X$X$X$X$X$X$X#XC.~ ~ ~ 4.",
"o.B N N W b.K.R.J.J.R.R.R.R.R.J.J.m.=.R T w ! b.5.n q B B M n q 8 p T M B q n Q v.6.Z w N R f.G.J.J.J.J.R.J.J.J.R.R.A.3.M T T g ",
"q y T R B ~ 4.f.f.f.f.6.f.f.6.f.f.3.! ! *.n W 6.=.m n #.-.E R M q M E ~ -.n B R 6.;.B Z ! R $.5.f.f.f.f.f.f.f.f.f.f.4.S g ~ M i ",
"# m #.*.W W $.$.%.$.$.$.$.$.$.$.~ ! Q -.=.W Q %.#.Q E -.-.#.@.R B W *.*.#.Q Q Q %.#.R @.=.! Q $.$.$.$.$.$.$.$.$.$.$.$.W Q *.W w ",
"# B =.;.#.W W W S W W S W W W Z Z S Q =.=.@.Z Z S $.=.@.Q #.#.Q W ! *.! ! %.=.$.Z Z Q =.=.=.W S S W S W W S W W W W W ! =.;.! g ",
"# x $.$.$.Q Q W W ^ Q Q ^ Q S C 2 a d d f d 2 2 a d d a d i a a a a a d 2 d d d O 2 a d d d f i S D W S Q ^ Q Q W W ^ Q $.%.S q ",
"# x ^ >.>.~ $.~ $.,.>.>.>.$.^ c O h h s s 3     k k k O s O 3 3 4 h < 3 2 k j k o   h s s h 3 O c ^ $.>.>.>.>.$.$.$.~ >.>.$.B $ ",
"@ p ^ 6.7.7.4.4.4.7.7.7.7.4.Y 2 3 H P I _ K o O u.' u.l I s L H H L h L l u.0.e.O o P _ I P H 3 2 ) 4.7.7.7.7.6.4.4.6.6.7.4.V % ",
", x ^ C.A.G.m.A.D.Z.H.H.D.C.c 1 K ` ` d.y.H o L I.V.T.N.` ( y.I _ y.' ` N.P.V.I.L o H i.B.` ` K 1 c k.Z.H.H.G.S.A.C.C.Z.L.7.C & ",
"| b ~ K.@X=X X%X%X+X;X;X;XC.< 3 w.w.u.^.I.j 1 P.7X!.^.6X` V.U.w.w.E.V.` wX^.Q.7XP.4 k P.^.t.w.t.3 O L.%X;X<X&X&X=X#X#X=XR.A.Q y ",
" .b S 4.G.=X@X@X-X&X;X;X+X( o F 9.9.y.8Xt.< I ^.8Xp.d.wXT.4X^.t.w.^.4XT.wXp.p.8X~.L 1 y.8Xy.9.` H O q. X&X;X&X;X-X#X*XR.N.3.A ] ",
" .v y M 7.-X@XR.%X%X&X&XK.f 3 9.9.0.B.5X_ O d.8X!.L K ~.4XqX6Xi.t.4XqX4X~.H P !.7XB.O _ 5XB.w.` ` 1 f K.+X;X%X*X@X|.-XL./ Z u [ ",
"} u q 0 / R.G.l.@X*X&X+Xa.< L i.0.Q.^.y.z z ~.5X` 7 < ' u.E.qXT.T.rX!.y.' 1 7 9.~.~.F z p.!.Q.` i.I O C.&X+X%X=XG.m.R.7.p q ; ] ",
"v x 0 % p j.f.~ R.$X%X$XY o w.s.` ~.~.P J ( 7XQ.6 *   s G p.rX^.4XrXy.F k   * f Q.7X_ J P ~.~.` d.w.o ) *X#X*X@Xf.f.l.~ $ 8 0 y ",
": t x % X T W M j.|.=X=Xs o i.s.` !.!.3 e.I 8Xp.+ =   3 % J 6XqXwX5XJ + 3   = + d.7XI e.h !.!.` d.s.o s =X=X$XJ.T T ! r X 8 e & ",
"@ x R 8 % r N g ~ m.R.R.< 3 s.s.` !.U.1 e._ 5X( + >   l @ 3 p.V.V.M.6 @ j   = + ( ~.I 0.O Q.I.` s.s.3 O R.R.G.j.g T T q % p V q ",
"# S -.w 8 w n q T ! -.=.  j s.s.w.Q.Q.O I _ ~.s + >   I * . s s f f . * I   = + s ~._ I 4 Q.!.w.s.s.l   =.-.*.! r g T q q Z #.Z ",
"# m -.r q n n 0 9 T T T   l s.i.t.~.Q.O j ( 6XM.) * 3 I > @ < j f O @ = L 4 * Y B.6X' j O Q.~.t.t.s.l   R R T g 8 g N n M N ! m ",
"# m #.r g R N q 8 q r r . j s.0.B.5XQ.4 s I 3XE.M.b l ' : * . l H   * > e.k x M.E.~.L s O Q.8XV.9.s.j o g r p 9 $ g W E N N R n ",
"& r E r M =.4.B 9 9 9 9 4 3 i.` ~.7XU.O ' H u.u.E.N.J 6Xc * @ L L @ * c 6XJ r.4Xw.u.H ' 4 Q.7X~.` s.3 3 9 9 9 9 w Q 5.=.T M R r ",
"# r E r n f.l.4.M g g g d 3 i.` 5X7XQ.1 e.z J z E.E.( aX1.: @ I I @ - ( aX' E.E.z P l e.O Q.7X5X` s.1 f g g g n ~ 6.v.=.r M T r ",
"# y E 0 q h.n.n.5.$.$.$.D o i.` !.5XQ.O _ k k o p.qXu.aXU.5 @ I ( @ 7 E.aXu.qXp.o s s ' 1 Q.~.!._ t.o D $.*.$.=.c.F.F.! q M T w ",
"& r E 0 0 -.m.(.S.v.v.v.l.1 I 9.V.I.Q.4 _ P '   U E.U.eXwXr.+ I I + r.6XeXU.!.Y   ' P ( O Q.I.V.9._ 2 c.v.C.v.S.F.(.c.V 0 M T w ",
"# r @.0 $ E h.n.'.'.'.'.[.c s 0.w.p.Q.4 L ' V.  5 t.7X7XrX!.% I I % E.rX7X7Xt.5   V.' I 3 Q.t.w.9.j d _.'.'.'.{.).n.3.q 8 M T r ",
"# r E 0 9 #.=.h.n.F.F.F.S.^ 1 I i.` ~.H k ' !.4 5 w.Q.^.~.4XH I I H 3X3XQ.^.w.5 h !.` j H ~.0.i._ 1 ^ G.F.F.F.F.c.5.%.m 8 M T w ",
"# r E 8 0 #.Q Q 6.z.z.z.g.%.< l t.` ~.y.s P !.L 2 q.i.s.i.I.K I I P T.p.d.i.I 5 L !.P s u.~.` t.l < $.6.z.z.g.z.=.W #.R 8 M T w ",
"# r E 8 0 -.#.B @.W Q #.Q E d O _ ` !.!.L O B.!.. 2 1 j 7 7 < I I 2 c a l 4 2 . !.B.O L !.!.' ` O a W Q W #.Q Q W Z Q N 8 n T w ",
"# r E q 8 ! Q B W Z W @.W Q ^ % H ` B.~.p.O ' ~.. @   j @ @ + _ I + @ @ j   @ . ~.' O y.~.B.` F % V @.m Z %.W A Q Z R M 8 T T r ",
"& r E w $ Z W Z $.A $.5.@.$.>.i s 0._ Q.Q.s k ~.+ =   I = : @ _ I @ > = I   = + ~.k k U.!.` w.s i Z ;.V Q 5.@.Q $.B r w 8 T T w ",
"# r -.T q n B B $.W ;.6.%.%.#.n s t.9.I.~.L j Q.+ = . j v > @ _ _ @ > v j + = + Y.s L ^.Y.9.i.s p R 5.V #.z.#.#.%.m n p g E R r ",
"# y -.*.N w n N $.Q ;.x.%.%.R m s s.w.Q.8X0.3 P.+ = @ < +.> @ _ _ @ > +.1 + = + P.s w.5XY.w.s.s n B ;.V %.x.%.#.@.B n n R %.E w ",
"# T h.z.5.R r r Q Z =.x.Q #.m n s s.` U.7Xy.k d.+ > @ o <.* 5 9.w.5 > +.o @ > + d.s y.7XU.` s.s N r -.n #.z.#.Q R r N %.h.z.! r ",
"# u h.n.n.=.N y B B @.6.R R g n h d.` Q.7Xy.3 s.2 * 5 o +.: G 9.w.G * U o 5 : 5 s.3 y.eXU.` s.s Z n Q n ! 5.Q Z B n ! x.n.b.*.r ",
"# T h.(.`.x.#.m n M Q %.B B M Z s s.0.Q.7Xp.3 w.H 6 6 3 j 6 w.9._ w.6 G 3 6 s H i.3 y.7XU.0.p.s =.N R y T -.R N N R ;.(.`.n.-.r ",
"$ y h.(.{.`.6.E Z m Q #.R R R $.s s.` B.7Xp.O _ I F F G H H 9.F F 9.F F z l H I _ O d.7XB.9.s.s z.Q Q m R $.R Z R -.m.{.`.m.#.q ",
"# r ;.n.{.&XF.;.@.Q @.$.Q @.$.z.s s.` I eXy.  l _ _ I _ _ _ K < O K _ _ I _ _ _ l   y.7XI ` d.s F.5.#.S Q $.@.Q %.z.(.+X`.x.E 8 ",
"& y E z.(.{.`.n.b.c.b.b.b.b.v.(.3 w.` _ I.0.o l H H H H H H F 3 3 F F F H H H H l o w.I.I ` w.3 `.F.v.c.b.b.b.c.b.(.{.`.n.=.N # ",
"- e N =.x.{.{.{.).).).).).).`.{.4 I I P e.I < F F G G G F G G G H F G F F F F F F < I e.P I I 1 {.{.).).).).).).`.{.{.(.z.*.y # ",
"u t y E h.(.`.`.`.`.`.`.`.).`.{.O s s h k s 3 ` 9.9.9.9.9.9.9.9._ 9.9.9.9.9.9.9.` 3 s j 3 s s O `.{.`.`.{.`.`.).`.`.`.m.;.r t & ",
"[ , t N -.x.n.(.S.S.F.F.(.n.F.F.i a i 2 5 5 c <.9.<.9.<.9.<.9.<.9.<.<.<.<.9.<.<.<.c 5 5 5 1 a i n.(.S.S.F.F.F.n.n.(.n.5.E r t t ",
" .= : q R =.;.6.3.%.5.3.5.,.5.6.~ W g & 7 [ ..X. . .X.X. . .X. .X.X.X.X. .X.....| ..} ] v 0 V W ;.5.3.=.5.5.5.=.5.6.;.@.r 0 = ] ",
" .} * 0 M R E @.A Q E A A A @.@.A B w - ] }  . . . . . . . . . . . . . . . . . . . .} } ] t r B @.@.A A E #.E S @.*.@.r y & ] [ ",
" .} v * t y b m b y u t y b b m y x - ; [  . . . . . . . . . . . . . . . . . . . . .} } [ ; y q b y b t y u u u u y y e 0 u [ } ",
" . .} u - t u t ] y u v - ] u y 7 - * [ } }  . . . . . . . . . . . . . . . . . . . . . .} ] & & ; y ] y u ] u u u y t # * [ } } ",
" . . .] : - , * ] , ; [ & ] , - : @ : }  .}  . . . . . . . . . . . . . . . . . . . . . .} [ * # ; ; ] - u u = u u y - # -  . . ."
};
