/* XPM */
static char *_6ee19017c4142f1e22fe42783db9755ulXUUG2cqSrbmXUi[] = {
/* columns rows colors chars-per-pixel */
"64 64 210 2 ",
"   c #29322A",
".  c #2C3E2C",
"X  c #3A332A",
"o  c #2E3D33",
"O  c #383E34",
"+  c #443D32",
"@  c #40382E",
"#  c #35442B",
"$  c #35482B",
"%  c #335B2D",
"&  c #314137",
"*  c #304A30",
"=  c #33443A",
"-  c #364A3E",
";  c #3D4537",
":  c #365D36",
">  c #375738",
",  c #2D462E",
"<  c #31662F",
"1  c #396A39",
"2  c #307030",
"3  c #3C713C",
"4  c #3F7A3F",
"5  c #4A4235",
"6  c #4E453A",
"7  c #494A3B",
"8  c #444837",
"9  c #534B3D",
"0  c #475C3A",
"q  c #48643C",
"w  c #364C41",
"e  c #394F42",
"r  c #395246",
"t  c #3A5A44",
"y  c #3B564A",
"u  c #3D594C",
"i  c #3F5D51",
"p  c #3C6546",
"a  c #3F7642",
"s  c #4E4E40",
"d  c #554D42",
"f  c #425D4C",
"g  c #4A5649",
"h  c #5C5444",
"j  c #5A5448",
"k  c #405E51",
"l  c #605846",
"z  c #635B4A",
"x  c #665D52",
"c  c #46684A",
"v  c #576844",
"b  c #566849",
"n  c #4A774B",
"m  c #436354",
"M  c #426D51",
"N  c #496A57",
"B  c #436659",
"V  c #456B5C",
"C  c #4B6C5A",
"Z  c #496454",
"A  c #4C715E",
"S  c #50745C",
"D  c #5A7D5B",
"F  c #567A48",
"G  c #6A624E",
"H  c #64634D",
"J  c #6E6555",
"K  c #6D6754",
"L  c #72695A",
"P  c #756C58",
"I  c #6B7553",
"U  c #7C745C",
"Y  c #4C7463",
"T  c #4F7966",
"R  c #4E7B6B",
"E  c #4C7768",
"W  c #527A64",
"Q  c #547E69",
"!  c #597D67",
"~  c #486F61",
"^  c #7B7563",
"/  c #607A62",
"(  c #857C63",
")  c #857C69",
"_  c #468746",
"`  c #469446",
"'  c #499349",
"]  c #489848",
"[  c #558B55",
"{  c #559355",
"}  c #71915C",
"|  c #55836D",
" . c #5A846C",
".. c #5D8A6E",
"X. c #518171",
"o. c #5B8C74",
"O. c #598A75",
"+. c #5D9178",
"@. c #67896E",
"#. c #648968",
"$. c #699469",
"%. c #618A74",
"&. c #668A78",
"*. c #629275",
"=. c #62957A",
"-. c #63997E",
";. c #699C7C",
":. c #6B9478",
">. c #769876",
",. c #778A77",
"<. c #6AA07E",
"1. c #74A177",
"2. c #898166",
"3. c #8D856D",
"4. c #938B6E",
"5. c #90876F",
"6. c #8C8A76",
"7. c #958B77",
"8. c #9C927A",
"9. c #A29A7D",
"0. c #659D81",
"q. c #6B9C84",
"w. c #6D9683",
"e. c #789884",
"r. c #759A86",
"t. c #6CA384",
"y. c #6CA687",
"u. c #72A58A",
"i. c #73AC8B",
"p. c #79A488",
"a. c #75B28D",
"s. c #7DA992",
"d. c #7DA691",
"f. c #7DB492",
"g. c #7CB992",
"h. c #939985",
"j. c #A19683",
"k. c #A69B88",
"l. c #A89E91",
"z. c #83A886",
"x. c #83AA8B",
"c. c #8CAA8D",
"v. c #84A689",
"b. c #88B38E",
"n. c #86AF98",
"m. c #8AAC93",
"M. c #81B695",
"N. c #85BB95",
"B. c #8BB799",
"V. c #96B89A",
"C. c #94AE96",
"Z. c #ABA28A",
"A. c #B2A98D",
"S. c #ACA695",
"D. c #B5AB93",
"F. c #BBAE9B",
"G. c #B4A995",
"H. c #BCB39D",
"J. c #95BDA3",
"K. c #B6B6A4",
"L. c #C1B59E",
"P. c #C2B5A5",
"I. c #C4BBAB",
"U. c #CABCA8",
"Y. c #85C299",
"T. c #8BC49C",
"R. c #8CC89E",
"E. c #9AC49D",
"W. c #8FC8A0",
"Q. c #93C6A2",
"!. c #94CDA4",
"~. c #9BC7A8",
"^. c #9CD3AA",
"/. c #99D4A8",
"(. c #A2CBAD",
"). c #A6C7AB",
"_. c #A1DAAD",
"`. c #AEDAAE",
"'. c #A2D3AE",
"]. c #A8CFB1",
"[. c #ABD4B4",
"{. c #AADAB5",
"}. c #A8DBB3",
"|. c #B3D7BB",
" X c #B5DBBC",
".X c #B7D7B9",
"XX c #B1CCB1",
"oX c #ADE5B5",
"OX c #A7E0B1",
"+X c #B1E8B9",
"@X c #B8EABE",
"#X c #B6E1BD",
"$X c #CCC4B5",
"%X c #DBCDBB",
"&X c #D2C7B7",
"*X c #CBC2AF",
"=X c #BBDFC0",
"-X c #BDE4C2",
";X c #BDEBC2",
":X c #DBD5C7",
">X c #DDD8CB",
",X c #E0D0C0",
"<X c #E5D8CA",
"1X c #C4E6C6",
"2X c #C1ECC5",
"3X c #C6EBC9",
"4X c #CBEECC",
"5X c #CFF0CF",
"6X c #D0F0D0",
"7X c #EAE3D6",
/* pixels */
"] ] ] ] ] ] ] ] ] ] ] ] ] ] ] ] ] ] ] ] ] ] ] ] ] ] ] ] ] ] ] ] ] ] ] ] ] ] ] ] ] ] ] ] ] ] ] ] ] ] ] ] ] ] ] ] ] ] ] ] ] ] ] ] ",
"] ] ] ] ] ] ] ] ] 3 * * * ` ] ] ] ] ] ` * $ $ * * * * * * * * * * * * * * * * * * * * : ] ] ] ] ] ] * , $ : ] ] ] ] ] ] ] ] ] ] ",
"] ] ] ] ] ] ] ] ] q % * , ` ] ] ] ] ] ' * * * * * * * * * * * * * * * * * * * * * * $ 1 ] ] ] ] ] ] * * $ : ] ] ] ] ] ] ] ] ] ] ",
"] ] ` 4 ' ] [ [ n 1.c.c.c.1.n { [ ' ` 1.c.z.z.z.z.z.z.z.z.z.z.z.z.z.z.z.z.z.z.z.z.z.c.i._ ] n $.n ' c.c.c.z.' n $.4 ] a _ ] ] ] ",
"] ] [ n _ ' >.#.[ ).3X3X3XV.n ,.#.' [ V.5X;X;X;X;X;X;X;X;X;X;X;X;X;X;X;X;X;X;X;X;X2X6X&XD ' n v.[ #.3X3X3X X#.D v.n ' F n ' ] ] ",
"] ' >.c.>.n ).V.C. X}.}.}. Xz.).E.c $. X6X;X;X+X@X+X+X+X+X@X+X+X+X@X+X+X+X+X+X@X@X@X6X3XV.n >.[.C.E.#X}.}. X).b.XX>.F c.1.' ] ] ",
"] { V.XXV.D ~.J.~.(.Q.Q.Q.'.V.~.~.@.Q.4X6X;X+X+X+X+X+X+X+X+X+X+X+X+XoX+X+X+X+X+X+X@X6X4X.X:.m.~.V.).Q.Q.Q.!.(.E.~.c.>.XX).>.] ] ",
"] $.6X6X6Xh.u.u.M.i.s.M.f.f.M.y.s.~.2X;X6X;X+XoX+X+XoX+X+X+X+X+X+X+X+X+X+X+X+X+X+X@X6X3X@XXXJ.q.f.M.y.M.M.i.M.s.q.m.XX5X5XJ.] ] ",
"] V.4X6X4X).]._.[.].[.[.[.[.[.(.}.=X;X;X4X;X+X+X+X+X+X+XoX+X+X+X+X+X+XoX+X+X+X+X+X@X5X2X@X@X{.^.'.[.(.[.{.(.[.}.(.[.#X5X4X|.] ] ",
"] `.;X6X;X4X5X5X4X5X4X5X4X4X5X5X5X4XoX;X5X;X+X+X+X+X+X+X+X+X+X+X+X+X+X+XoX+XoX+XoX@X5X4X@X;X6X5X5X5X5X5X4X5X5X5X6X6X;X6X4X;X] ] ",
"] `.;X6X2X;X@X2X2X@X2X;X2X@X;X2X4X4X+X+X5X;X;XoXoX+X+XoX+X+XoX+X+XoX+XoX+X+X+X+X+X@X5X4X+X;X6X;X;X2X;X;X2X;X;X;X-X;X+X6X4X;X] ] ",
"] `.2X5X2X@X@X+X@X@X@X+X@X@X+X@X;X;X+X;X5X;X+X+X+X+X+X+XoX+X+X+X+X+X+X+X+X+X+X+X+X@X5X4X+X;X6X@X@X@X@X+X@X@X+X+X+X;X+X5X4X2X] ] ",
"] `.;X5X2X+X+X+X+X+XoX+X+X+X+X+X;X4X+X;X6X;X+XoX+X+X+X+XoXoXoX+X+X+X+X+X+X+X+X+X+X@X6X4X+X;X6X+XoX+X+X+XoX+X+X+X+X+X+X5X3X2X] ] ",
"] `.2X5X;X+X+X+X+X+X+X+XoX+X+X+X;X4X+X;X6X;X+X;X+X+X+X+X;X+X;XoX+X+X+X+X+X+X+X+X+X;X6X2X+X;X6X+XoX+X+X+X+X+X+X+X+X+X+X5X4X;X] ] ",
"] `.2X5X2X+X+X+X+X+X+X+X+XoX+XoX;X4X+X;X6X4X;X;X;X;X;X;X;X;X;X-X;X;X;X;X;X;X;X;X;X;X6X4X+X;X6X+XoX+XoX+X+X+X+X+XoX+X+X5X5X2X] ] ",
"] `.2X5X@XoX+X+XoX+X+X+X+X+X+X+X;X4X+X;X5X4X5X;X4X4X5X;X4X4X4X3X4X4X3X4X4X4X3X4X2X5X6X5X@X;X6X+X+X+X+X+X+X+X+X+X+X+XoX5X4X;X] ] ",
"] `.2X5X2X+X+X+X+X+X+X+X+XoX+X+X;X4X+X2X3X1X1X1X3X1X3X3X3X3X=X1X1X3X3X1X3X1X3X3X3X1X3X3X;X2X5X+X+X+X+X+X+XoX+X+X+X+X+X6X5X;X] ] ",
"] `.3X5X3X+X+X+X+X+X+X+X+X+X+X+X;X4X;X3X=X|.|.=X|.|.|.|.|.|.=X=X|.|.|.|.|.|.|.|.|.|.|. X3X3X5X+X+X+X+X+X+X+X+X+X+X+X@X5X5X2X] ] ",
"] `.4X5X4X2X+X+X+X+X+X+X+X+X+X+X;X5X3X~.e.r.r.e.e.e.e.e.e.e.v.e.m.e.d.e.e.e.e.e.e.e.r.B.-X4X6X+X+X+X+XoX+XoX+X+X+X;X2X5X4X4X] ] ",
"] `.3X3X3X5X+X+X+X+X+X+X+X+X+X+X2X5X;Xu.k u i k k y u y V B V u ~ u V y y y u m i i y O.[.5X6X+X+X+X+X+X+X@X+X+X+X2X4X1X1X4X] ] ",
"] R.r.r.>. X3X3X3X3X3X3X3X4X3X3X4X3XJ.W r u +.q.o.w u r w i y w w B r r w u R t.;.V = B q.-X5X3X4X2X4X3X3X2X3X3X3X2Xd.r.r.B.] ] ",
"] <.m V m B. X X=X X X X X X X X X'.=.m y r t.Y.0.o u f w m e =   V r k = u Q g.g.C = u C ~. X X X#X X X X X X X|.(.C V B  .] ] ",
"] c r V r C s.s.s.x.s.s.s.s.s.s.d.q.V Y E o %.Y.| . u ..V V w =   ~ V +.= u f g.i.y y Y y 0.d.d.s.s.s.s.n.d.s.d.s.:.O ~ k - ] ] ",
"] > A | A Z %.o.%.%.%.%.%.%.%.%.%.O.Y | o.f  .t.W Z E -.X.| Y C Z X.R 0.N T A -.+.N Y O.A | %.%.%.%.%.%.%.%.%.%.%.! k | W e ] ] ",
"] * -.-.0.S S S S S S S S S S S S S ..-.-. .S A ! -.-.-.0.0.=.=.0.=.-.-.-.0.+.S S ! -.-.0.A S S S A S S S A S A A S +.-.-.N ] ] ",
"] $ | |  .Y Y Y W W W S W Y Y W Y W !  .O.! W T W  .| V ~ Q ~ m m Q T B ! X. .Y W W  . .| W W W S W S T S W W W W W | |  .u ] ] ",
"] $ W | Q Q W ! W  .! W ! ! T Q W ! ! Q S C C N C A N - r m r ; = m f O Z S C C C C C S ! | W ! W W  .!  .W W W W W  .! W w ] ] ",
"] $ Z #.@.#.#.! W @.@.@.@.@.S #. .@.@.%.7 9 7 + 7 s 7 5 5 O 5 + + 7 O + 7 s s 6 O 7 s 9 @.@.W #.!  .@.@.@.@.! ! @.! #.@.W   ] ] ",
"] 1 f e.c.C.t.v.v.z.b.b.b.p.x.p.1.C.v.e.J G 9 @ L ^ ^ L l 9 x l l J 9 h L ^ ^ J @ 9 G G c.c.v.t.z.z.x.b.b.x.z.x.r.x.v.c./ . ] ] ",
"] ] y J.(.5XT.|.1X/.oX+XoX!.5X~./.1XXXJ.4.4.z 9 k.F.F.S.( P 9.( ( j.P ( S.F.F.k.9 z 4.4.XX X2XY.1X{.OX+X+X_.{.1XY.;XXX|.%.1 ] ] ",
"] ] t w.&.6X{.]. X'.OX+XOX{.|.[. XXX&.=.H.) 9 7.U.G.7.I.l.S.F.3.2.D.S.l.I.7.F.U.7.9 ) F.u.C.4X[.[.2X!.+X+X^.1X[.}.4X,.u.N _ ] ] ",
"] ] 1 B y  X-XB.|.{._.oX^.;XJ.].1XC.y m P.P 9 U.%X9.K U.K.&X*X4.4.*X%XK.P.L 8.%XU.9 P P.E ,.1X XJ.5X!.OXOX[.4XJ. X1Xg Y t ] ] ] ",
"] ] > - r d.|.O.(.3X^.!.(.3Xn.r.=XQ w o 5.6 ) %XU.v 8 3.H.%X>X7.8.>X%XH.6.8 b U.%X) 6 5.m Z (.B.w.1X=X!.!.=X-Xr.B.(.w y = ] ] ] ",
"] _ > & O ! n.V d.-X X[. X|.%.O.n.i o o U 6 k.U.7.q # z 6.S.>XG.G.:XS.4.z # q 7.*X9.6 U w w d.r.E J.3X[.].=XJ.Q w.d.o = w 3 ] ] ",
"] : m -   y R i Y ).5X5X5Xn.u V R =   ; x x D.A.6 2 $ 5 8 H $X:X:X$XG 8 + # 2 6 S.D.x x   o ~ X.y w.6X6X4X=X0.i R E     m . ] ] ",
"] > o.V   w R y B r.n.n.n.w.w V E o o T z z D.5.@ 2 $ 9 q 7 3.7.7.6.7 q 9 # 2 @ 5.D.z z O o k R r R n.n.n.d.E r R B = w  .f ] ] ",
"] * t.W - o ~ y r R R R R E & V B O w 0.h d D.5.h 1 $ J F # s l z d # F J # 1 h 5.D.d h - w r E w i R R R R i w E e y m ;.A ] ] ",
"] * +.A y k k w o i ~ ~ Y u   y u B r X.6 6 A.I.I.b O l.q < ; P P # < v l.# b K.I.A.6 6 = V y m o w ~ ~ ~ V w o m u ~ u O.m ] ] ",
"] * X.V y E Q y o w i y y = & m Q R u R d 6 5.S.$X6.8 &X^ 2 # U U $ < / $X7 h.$XS.5.d 9 = R W W w o y u i r o w Y W | u X.u ] ] ",
"] * X.V y =.M.E w           y +.B.R i R z z j j h.,Xz 7XF.< % U U % : K.7Xj ,X8.z l j z = X.M.y.B &         w i y.N.X.u X.u ] ] ",
"] * X.V & O.W.i.%.N C C C C *.N.W.V = R j l k.+ z U.l.<X:Xv % ( U % v :X<Xl.U.z 5 k.h l = B u.Q.;.! C C C N  .t.Q.i.i u X.u ] ] ",
"] * X.V   E T./.N.u.u.u.u.u.R.^.f.i   X.h h %XX X Z.%X%X7X^ : U ( % ^ 7X%X%XZ.X X &Xh h = e +.^.!.M.u.u.u.u.b.R._.+.o u R u ] ] ",
"] * X.V   V +.W.'.^.^.^.^.'.!.Y.X.i   R h 9 P.d # ( L.*X&XP.j U ^ j P.&X*XU.( $ d L.9 h = w m g.!._.'.^.^.^._.!.f.m & u X.u ] ] ",
"] * X.V   C Q t.T.!.!.!.!.!.N.:.E m   R P + 9.) 8 G 9.k.k.F.j ^ ^ j F.k.k.8.G 8 ) 9.5 L = r C =.i.!.!.^.!.!.!.i.*.N = y R u 2 ] ",
"] * X.V   O.| f *.t.t.t.t.y.| m &.V   X.8.+ ^ P.l 9 z z z P 9 U U j L z z z h j P.^ + 8.= y 0.N A t.t.t.t.t.t.A V t.& y X.y ` ] ",
"] * X.V   R *.f | Y W | W W W Z -.B   R P.L l L.z q 7 l q q 0 ( ( 0 v b h 8 q x P.h P P.= r 0.N C | A W | W | N N 0.& i X.i ] ] ",
"] * X.V   V t.m T t c A Z m  .m 0.y   R ,X8.+ D.P 2 $ 9 [ q % U U % < F d $ 2 J A.6 9.,X- w Q N S A r A C t C A B X.o i R y ] ] ",
"] * X.Y & r O.Z ;.N  .<. . .-.m O.o o Q ,XL.h Z.z 2 < 5 I 2 % U U % 2 I 5 % 2 x k.9 F.,Xy o Y i | <.- <.<.N <.| i Y   B X.i ] ] ",
"] * X.R y = E m t.A +.g...*.<.p Y o u X.%X*Xz 9.z < < @ P < q 2.( q < I @ % < z 9.z *X,X~ o B i ! a.> a.a.A a.W i B & E X.u ] ] ",
"] * X.O.Q - V i ..A  .a.T *.A m V e R O.,X%Xz 9.G % % X G < G 9.8.K % G X % < G 9.z ,X,XO.u y V m t.- i.y.N <.M V u Z o.X.u ] ] ",
"] * X.t.i.A V w | N | a.~ ..i u C W y.t.U.,Xz 2.( q q l K q ( 2.( ( v K 9 v v U 2.z ,XU.i...E m u +.- i.t.m -.u i Y -.u.+.u ] ] ",
"] * O.g.!.t.V w A m T a.V | u r R a./.a.S.,Xz K 4.P P ( U P 4.G G 4.P U U U U 4.K z %XS.W.M.0.p r O.= t.-.u O.r i t.R.Y.-.u ] ] ",
"] * +.g._.R.t.p B t V | i V u A y.^._.a.7.U.z h G h 9 l l l H 9 9 z 9 l h h z z 9 z L.9././.Y.O.u R & | T r T u o.g.^.R.t.u ] ] ",
"] * O.a._.oXY.X.Y m N S A V N =.R.+X^.i.U j.h j l l l l l l l l l l l z h z h z z h 9.( R.oX/.a.A T f A A m W A a./.oXY.+.r ] ] ",
"] * i 0.Y.oX_.y.*.....*.+.@.=.g._.OXY.+.d j 5 2.( ( 2.2.2.2.2.2.2.2.2.2.2.2.2.2.2.5 h 9 a.^.oXR.<.+...*.*...*.<.Y.oX/.y.R o ] ] ",
"] : u O.y./.OXR.N.N.N.N.N.N.Y./._.W.y.| 8 q q } } } 2.} } } } } } } } } } } } } } q ; s -.T.^.^.R.N.N.N.N.N.N.T.^.^.g.+.V , ] ] ",
"] 3 = E +.g.OXoX+XoXoXoX+XoX+XoX_.a.O.Y o _ ] ] ] ] ] ] ] ] ] ] ] ] ] ] ] ] ] ] ] ] * i X.y.R.oX+XoXoX+XoXoXoX+X+XW.t.R u * ] ] ",
"] ` : i R y.T.R.T.T.R.Q.R.T.R.R.N.-.X.p * ` ] ] ] ] ] ] ] ] ] ] ] ] ] ] ] ] ] ] ] ] 1 p ~ +.a.W.R.T.R.R.R.R.T.T.W.a.+.B t 1 ] ] ",
"] ] a e V +.t.i.<.;.u.;.u.*.u.p.q.X.V > 1 ] ] ] ] ] ] ] ] ] ] ] ] ] ] ] ] ] ] ] ] ] 4 3 u X.+.y.p.:.u.q.t.;.-.u.y.+.R e 1 a ] ] ",
"] 2 2 * w R V O.A c T N | c E | B R e * _ ] ] ] ] ] ] ] ] ] ] ] ] ] ] ] ] ] ] ] ] ] ` n . ~ A E | c Y C W S M | R A B . 3 2 2 ] ",
"] ] 2 % > p p i n p p p p 1 M M p c : 1 ] ] ] ] ] ] ] ] ] ] ] ] ] ] ] ] ] ] ] ] ] ] ] ` 1 u t M M a u p M p 1 m a t t * 2 2 ] ] ",
"] ] ` 2 3 * ` * ` 3 : 2 * ] a < 2 * 3 ] ] ] ] ] ] ] ] ] ] ] ] ] ] ] ] ] ] ] ] ] ] ] ] ] ` * * 3 < ' * 2 1 : ` 1 a * * 2 2 ] ] ] ",
"] ] ] ] 3 * ` * ` 3 : ] * ' 1 : 4 * q ] ] ] ] ] ] ] ] ] ] ] ] ] ] ] ] ] ] ] ] ] ] ] ] ] ] * * 3 1 ] * ] a : ] : a , * ] ] ] ] ] ",
"] ] ] ] ] ] ] ] ] ] ] ] ] ] ] ] ] ] ] ] ] ] ] ] ] ] ] ] ] ] ] ] ] ] ] ] ] ] ] ] ] ] ] ] ] ] ] ` ` ] ] ] ] ] ] ] ] ` ] ] ] ] ] ] "
};
