/* XPM */
static char *cd07a2cd7da64df5935fe2ef4fa61c1eh1clVrzuKnoy8oGl[] = {
/* columns rows colors chars-per-pixel */
"64 64 208 2 ",
"   c #383028",
".  c #39392E",
"X  c #3C3C31",
"o  c #2F3C33",
"O  c #40382E",
"+  c #443C31",
"@  c #304A30",
"#  c #33453A",
"$  c #364A3E",
"%  c #3A4938",
"&  c #335635",
"*  c #355339",
"=  c #385B3C",
"-  c #39653B",
";  c #3A6A3B",
":  c #356336",
">  c #3D743D",
",  c #4B4336",
"<  c #434438",
"1  c #524A3B",
"2  c #374D42",
"3  c #384F43",
"4  c #3A5245",
"5  c #3C5C45",
"6  c #3B5549",
"7  c #3E5B4D",
"8  c #3F5D51",
"9  c #3B6442",
"0  c #3D6B42",
"q  c #3E634B",
"w  c #3F7442",
"e  c #3F7940",
"r  c #425D4D",
"t  c #42574A",
"y  c #5D5544",
"u  c #415F51",
"i  c #645C4A",
"p  c #605846",
"a  c #43634C",
"s  c #426C4D",
"d  c #416645",
"f  c #417B43",
"g  c #42754A",
"h  c #436354",
"j  c #456B54",
"k  c #4A6A56",
"l  c #446659",
"z  c #466A5B",
"x  c #4A6D5B",
"c  c #496453",
"v  c #526D5C",
"b  c #4C735D",
"n  c #4B7958",
"m  c #51745E",
"M  c #716953",
"N  c #776F58",
"B  c #787058",
"V  c #72725B",
"C  c #6E7257",
"Z  c #496F61",
"A  c #476F60",
"S  c #526F60",
"D  c #4C7362",
"F  c #4F7A62",
"G  c #4B7768",
"H  c #4D7A69",
"J  c #527662",
"K  c #537B64",
"L  c #537D69",
"P  c #5B7D6B",
"I  c #5C7964",
"U  c #847C61",
"Y  c #438344",
"T  c #458D45",
"R  c #498C49",
"E  c #479447",
"W  c #499549",
"Q  c #489848",
"!  c #479847",
"~  c #548C54",
"^  c #5B8B5C",
"/  c #568458",
"(  c #569356",
")  c #73965F",
"_  c #6E825A",
"`  c #538165",
"'  c #56836C",
"]  c #5B846C",
"[  c #5C896E",
"{  c #5B8B60",
"}  c #558471",
"|  c #5C8B73",
" . c #598673",
".. c #5F9177",
"X. c #5F9460",
"o. c #60866D",
"O. c #638B68",
"+. c #6A956B",
"@. c #669466",
"#. c #628C73",
"$. c #698E74",
"%. c #658C79",
"&. c #678A76",
"*. c #639276",
"=. c #6C9275",
"-. c #65957A",
";. c #6B957C",
":. c #659A7D",
">. c #6A9C7E",
",. c #6E9A70",
"<. c #72947A",
"1. c #749B78",
"2. c #749560",
"3. c #79A47A",
"4. c #958C71",
"5. c #928778",
"6. c #989072",
"7. c #9D927D",
"8. c #A09878",
"9. c #6C9680",
"0. c #6C9E82",
"q. c #669C80",
"w. c #759682",
"e. c #759985",
"r. c #789A85",
"t. c #789B87",
"y. c #6CA283",
"u. c #6EAA87",
"i. c #74A685",
"p. c #76A887",
"a. c #74AD8A",
"s. c #7BAC8C",
"d. c #7BA489",
"f. c #7BB18F",
"g. c #7FA890",
"h. c #7EB491",
"j. c #7FBA95",
"k. c #A89C88",
"l. c #89AD8C",
"z. c #82A989",
"x. c #88B28E",
"c. c #8BAE94",
"v. c #84AB92",
"b. c #82B592",
"n. c #8BB393",
"m. c #84BB96",
"M. c #8DB995",
"N. c #8BB59B",
"B. c #8BBC9C",
"V. c #87BF98",
"C. c #91BA9F",
"Z. c #94B799",
"A. c #90AB93",
"S. c #BAAE97",
"D. c #92BAA1",
"F. c #99BEA3",
"G. c #A1BFA5",
"H. c #C7BAA5",
"J. c #8BC29C",
"K. c #89C39C",
"L. c #91C69D",
"P. c #91C89E",
"I. c #9DC29E",
"U. c #9AC3A3",
"Y. c #94CCA3",
"T. c #99CDA7",
"R. c #9FC3A8",
"E. c #97C6A4",
"W. c #97D1A6",
"Q. c #9CD4A9",
"!. c #9AD4A8",
"~. c #A2C4A4",
"^. c #A1CAA4",
"/. c #A1C3A9",
"(. c #A3CCAD",
"). c #AACDAC",
"_. c #A8C6A8",
"`. c #A8D4AD",
"'. c #AEDAAE",
"]. c #A2D7AD",
"[. c #A9CEB1",
"{. c #A6CDB0",
"}. c #A6D1B0",
"|. c #ACD4B4",
" X c #A6DAB1",
".X c #ABDAB4",
"XX c #AFDBB8",
"oX c #B4DCBB",
"OX c #BADDBD",
"+X c #B2D6B6",
"@X c #ABE3B4",
"#X c #B4E7BB",
"$X c #B7E4BB",
"%X c #B9E4BD",
"&X c #B1E8B9",
"*X c #B2E8B9",
"=X c #B8EABE",
"-X c #D2C3B2",
";X c #DBCCBB",
":X c #D1C2AE",
">X c #BCE5C1",
",X c #BDEBC2",
"<X c #E0D0C0",
"1X c #C2E5C6",
"2X c #C2EBC6",
"3X c #C6EDC9",
"4X c #CAEECC",
"5X c #CEF0CE",
/* pixels */
"Q E Y Y E ( O.^ +.Z._.).~.3./ ^ ^ W W 8.W.(.^.^.^.^.^.^.^.^.T.^.^.^.^.^.^.T.^.^.T.^._.).G.^ R T *.^ / Z.).).~.z./ ^ O.Y R f Y R ",
"W ( ^ ^ ~ X.,.,.3.F.).`.).l.+.,.@.~ ^ M.+XXX`.`.`.`.`.`.`.`.`.`.`.`.`.`.`.`.`.`.`. X'.OX).,.~ ~ 1.,.,.Z.}.[._.n.+.1.,.~ ~ ^ ~ ( ",
"Q X.3.1.O.+.x.l.Z.`..X|..XU.z.A.z.^ ,.).3X3X=X#X#X#X#X#X*X#X&X&X*X#X#X#X#X#X*X*X#X#X,X4X1XZ.X.@.Z.x.x.(.|. X.XR.l.n.l.+.X.6.2.( ",
"( 3.F.G.z.<.n.n.Z.I.T.T.T.U.x.n.n.1.x.XX4X2X=X&X&X*X*X*X*X&X&X&X*X#X&X#X#X*X*X*X*X*X,X5X4X_.z.6.n.n.Z.P.T.T.T.E.n.n.n.1.b.~.x.3.",
"2.L.-X$XI.d.M.B.D.B.J.J.C.E.B.N.B.n.).,X5X3X&X&X&X&X&X&X&X&X&X&X&X&X&X&X&X&X&X&X&X&X,X5X4XoXR.N.N.B.F.B.B.J.J.D.C.B.n.Z._.1X).n.",
"x.^.3X2X+X~.(.(.}.}.[.}.`.}.(.(.}.}.oX,X5X,X*X&X&X&X&X&X&X&X&X&X&X&X&X&X&X&X&X&X&X*X,X4X4X#X|.|.T.(.}.(.}.}.}.}.}.(./.).oX3X%X).",
"I.'.4X4X1XOXoXOX>XoXoXOXoXoX$XoX>X>X=X,X4X,X=X&X&X*X*X&X@X&X&X&X&X@X&X&X&X&X&X&X&X&X,X5X4X>X,X>XoXoXOXoXoXOXOXOXoXoXOX$X2X5X3XOX",
"'.$X4X3X2X=X1X=X,X,X,X2X2X,X2X2X3X,X=X=X5X3X=X&X&X@X*X&X&X&X&X&X&X&X&X&X@X&X&X&X@X&X,X5X3X=X,X3X2X2X2X,X,X,X,X,X2X2X2X%X,X5X3X2X",
"'.*X3X4X2X=X=X=X,X,X,X,X,X,X,X,X3X3X,X*X3X,X*X&X&X&X&X&X&X&X&X&X&X&X&X@X&X&X&X@X&X&X,X5X3X,X,X4X3X=X=X=X=X=X=X*X,X,X,X=X,X5X3X2X",
"'.*X4X4X=X*X=X*X#X#X#X*X&X*X*X*X,X3X,X,X5X3X=X&X&X&X&X&X&X&X&X&X&X&X&X&X&X&X&X&X&X&X,X5X3X*X,X4X=X*X*X*X=X*X*X&X*X*X#X*X,X5X3X2X",
"'.=X4X4X=X=X&X&X&X&X&X&X&X*X*X*X,X3X*X*X5X,X,X*X&X&X&X&X&X&X*X#X*X*X&X*X&X&X*X*X*X*X,X4X4X,X,X4X=X*X*X*X*X*X&X&X*X&X&X*X=X5X3X2X",
"'.#X3X4X=X*X&X&X&X&X&X&X&X&X*X*X,X,X,X,X4X3X,X=X=X*X=X=X=X=X#X>X=X=X=X*X=X#X,X>X=X,X,X4X3X,X,X5X=X*X*X*X*X*X&X&X&X&X&X@X=X5X3X2X",
"'.$X4X4X=X*X*X*X&X&X&X&X&X&X&X&X,X3X>X,X4X4X2X,X,X,X,X,X,X,X,X,X=X,X,X,X,X,X,X,X,X,X3X5X3X>X,X4X*X*X*X*X&X&X@X&X&X&X*X*X,X5X3X2X",
"'.$X4X4X=X*X*X*X&X&X&X&X&X&X&X&X,X3X,X,X3X4X3X1X2X2X2X3X3X1X3X3X2X3X3X2X2X3X3X3X3X,X3X4X3X,X,X4X=X*X&X&X&X&X&X&X&X&X&X*X,X5X3X2X",
"'.$X3X4X=X*X&X&X&X@X&X&X&X&X&X&X3X3X,X,X1X1X1X1X1X1X,X3X1X1X1X1X2X1X1X1X1X1X1X1X,X1X1X1X,X,X3X4X*X&X&X&X&X&X&X&X&X&X*X*X=X5X3X3X",
"'.$X4X4X=X&X&X&X&X&X&X&X&X&X&X&X,X4X,X+X{././.R.G./.F.R./././.G.^.^.~./.R.F./.G././.R./.[.>X3X4X*X&X&X&X&X&X&X&X&X&X*X=X3X5X3X3X",
"'.$X4X3X1X=X#X*X&X&X&X&X&X&X*X*X2X4X>XR.g.w.w.r.r.w.w.w.r.t.t.t.t.t.t.t.w.w.w.e.r.r.w.e.c.XX3X5X=X*X*X*X&X&X&X&X&X&X#X,X3X4X3X3X",
"^.'.|.|.+X1X=X=X=X,X=X=X=X=X=X=X2X3XoXv.P J P o.o.J S S S I P H S P J J v v J P o. .I S %.U.>X5X=X=X=X=X#X,X,X=X=X=X>XOX|.|.+XoX",
"L.M.l.c.F.oX=X=X=X$X>X$X$X>X>X>X,X>XR.%.h 7 S [ ' 8 6 6 6 8 8 6 6 7 u 8 6 3 7 Z o.] l 6 Z g.}.1X=X$X=X=X>X$X$X=X=X$X>X{.D.c.A.F.",
"3.@.I L $.U.[.|.|.|.|.|.|.|.|.|.|.R.i.G u 6 L p.*.h 3 r u 8 8 2 o 3 u u u 2 8 K a.q.A 4 8 P N.[.+X.X.X@X|.|.+X|.|.|.}.z.P P P &.",
"/ b z z J t.C.C.C.C.D.C.D.C.C.C.C.s.| D z 7 L a.-.h 6 b x l h 6 2 7 Z z b 4 h K a.>.b 6 l D 0.N.C.C.C.C.C.C.C.C.D.D.n.&.z Z z c ",
"5 q A D x P ;.9.9.9.9.9.9.9.9.;.;.%.L H } h m >.| j h ' [ H D h t l H P } h x F 0.#.x x L D ] ;.9.;.9.9.9.9.9.9.9.9.%.m c G c 6 ",
"& h ' ' K J P ] [ ] ] [ [ ] [ [ ] P ` } | b J [ ` K K } } ' L D x D } } } H ' ` [ ] D ' | L ' ] [ ] ] [ ] ] ] [ ] ] ' J J } J t ",
"@ j | ..' m J J m J m J J m m m J J ' | ..' K m ` } | ' ' } ' ' K ' } } ` | | [ b b K | *.| K m m J J m J J J m m J J L | ..L h ",
"@ d ' [ ' I K J K I K K K K K m K K ] ] K m n n b m ` j j n b k a j b j j m ` F b n b m ] ] ] m K m K K K K K K J K K I ] ] D 6 ",
"& r I o.o.o.' ] ] o.o.O.o.] ] ] I v m v c r r a a a d t * r 5 * $ 5 r 5 * a a d a a r r v m v m o.] ] ] o.o.o.[ ' ] ] ] o.[ k $ ",
"& d I =.<.=.*.$.=.=.<.1.<.=.$.*.V < < X X X . . . X X . . . . . . . . . X X X X X . X X X < < V +.$.$.=.1.1.<.=.$.$.=.=.<.$.v @ ",
"> d P z.c.M.v.v.n.x.M.M.M.v.n.v.M O 1                                                     1 O M z.v.n.n.M.Z.n.b.c.l.v.x.A.1.v * ",
"W g P Z.[.oX(.XXXX].@X@X@X}.OX}.i , M                                                     B , i Q.|.oX.X@X&X X XoX}.(.+XG.c.K ; ",
"Q g J &.N.OX}.[.oX X X@X@X.X|.}.y M U                                                     U M y |.}.$X X X@X@X.XoX}.oXG.w.$.n f ",
"Q f r k <.OX{.D.|.|. X@X XoXR.R.p 4.4.                                                    4.5.p |.R.oX|.].@X.XoX{.R.oXA.v b g R ",
"E f * 4 S D.c.t.}.oX X]. X|.c.g.U S.S.                                                    S.S.U N.v./.oX X X.XoXN.v.F.<.t t - Y ",
"Y d * # t w.9.P D.XXXX}.+XF.%.&.6.-X:X                                                    :X:X6.i.%.v.+XoX|.|.{.9.9.t.P # 2 4 0 ",
": d a # # Z G l 9.G.OXOX+Xg.S Z 8.;X;X                                                    ;X;X7.' x P (.OXOXXXD.S Z L 8 o 2 5 * ",
"& s D 3 # 8 l 8 P g.D.D.N.%.u l 8.<X<X                                                    <X<X8.Z A Z g.D.D.N.e.u A G 6 # r x 5 ",
"@ n | u # 6 l 6 Z H L q. .S 6 u 8.<X;X                                                    <X<X8.A 8 u L |  . .G 7 8 A 3 6 b ] x ",
"@ j ] h 6 h h 3 6 l G G Z r # u 8.<X<X                                                    ;X<X7.A 6 3 z D G Z u 2 u x h l x H j ",
"@ j H h u D x 6 2 6 8 8 r 2 2 u 8.;X;X                                                    ;X;X7.Z 6 # 6 u u u 3 # u J D x z D h ",
"@ j H h l %.&.S 3 3 2 2 3 $ r L 8.H.H.                                                    :XH.7.%.b 4 3 3 3 3 2 r K ;. .A l D 8 ",
"@ 8 G 8 u q.e.P v u u u r c K >.U 7.8.                                                    6.k.U s.%.m c u u u c K 0.a.| l l A 8 ",
"@ 8 G 6 6 0.m.h.-.[ ] ] ] #.i.m.p p i                                                     p p y K.b.e.[ ] ] ] #.i.M.m.L 6 l Z 8 ",
"@ j G 4 4 | f.m.b.s.s.g.s.f.m.m.5.5.i                                                     i 5.5.h.m.m.h.g.g.s.f.m.V.a.k 3 l Z 7 ",
"@ q H 3 $ L q.m.Y.T.T.T.T.T.J.f.H.H.N                                                     M H.-X0.m.Y.T.!.T.T.!.P.h.*.6 2 l Z 8 ",
"@ q H 3 3 L [ -.h.m.m.m.m.b.i.%.;X;XN                                                     N <X-X[ >.h.m.m.m.m.V.i.*.] l 2 l Z 7 ",
"@ q G 3 4 ' L J >.>.0.i.0.0.| K H.<XN                                                     N ;XH.K K -.0.y.y.0.0.| J L b 2 l A 7 ",
"@ 8 G 3 3 } ` b K K K ' K K K b 5.H.N                                                     N :X4.m b L J K ` K K J b K k 2 l A 8 ",
"@ j G 6 3 H K x K x J ' J K P x i k.N                                                     N k.i x m ` k m [ m b K b Z l 2 z A 8 ",
"@ q G 7 3 x K m ' n ] *.` ] [ x O M N                                                     N M   j J | k K :.` K ] x l 8 2 A A 7 ",
"@ q } A 6 h x x ] J [ >.[ [ ' j 1 1 B                                                     B 1 1 h D *.k ' y.[ ` [ j l 7 8 H D 8 ",
"@ z } } l 8 l j ] K | a.} [ K j i   B                                                     B   i l x ..x } u.[ ' ' l 8 c D | D 7 ",
"@ z ..u.-.b h q F b | u.L ` l h M   B                                                     B   M l h } j ' y.' L b u j | q.q.' 8 ",
"@ z q.j.h.| k 7 x x ' >.D D h h B   B                                                     B   B b h L a K :.K D x l L i.m.a.} 8 ",
"@ j y.K.P.a.] h h h F | x x l b B   B                                                     B   B  .l F 7 b  .b k x b ..K.Y.h. .8 ",
"@ j q.K.!.K.>.F b x F ] D D b ] B   M     O   O   .   O   O   O O   O   O   O   O   O     M   B y.' K k D ' D b D | a.W.Y.a.' 6 ",
"@ q ..j.Q. Xj...K K ` ] K ` [ y.B   i     ,   ,   ,   ,   ,   , ,   ,   ,   ,   ,   ,     i   B m.-.[ m K ] ` K  .y.K. XY.y.F 3 ",
"& q F y.K.Q.Y.h.p.p.d.a.p.d.a.K.B   , , , i , i , i , i , i , i i , i , i , i , i , i , , ,   B P.m.p.i.p.a.p.p.a.K.W.Y.j...j # ",
": 5 j ..a.W.Q.W.P.P.P.P.P.P.Y.!.B   O y y N y N p B 1 N y B 1 B B p B p B y B y B y B y y .   B !.!.P.P.P.P.P.J.P.!.Q.K.y.H q @ ",
"f 9 q H :.K.W.W.Y.Y.Y.P.P.P.T.W.B   y M M N M B M B M N M B N B B M M M B M B M B M B M M 1   B W.W.Y.P.Y.Y.Y.Y.W.W.Y.a...z 5 & ",
"T > 9 l } u.j.m.b.b.m.m.m.b.m.m.i   B U U U U U 4.B U U 4.B U U U U U U U U U U U U U U U B   i m.m.b.b.m.m.m.b.m.m.f.:.H q 0 ; ",
"! : : 6 A | ..>.#.#.*.*.-.O.-.:.+   4.6.4.6.6.6.6.6.6.6.6.6.6.6.6.6.6.6.4.6.6.6.6.6.6.6.6.6.  + *.-.*.#.*.-.-.| *.:.*.L z * ; f ",
"! E : & j n F ' ` n F b m n ` ` % % V _ ) ) ) ) ) ) ) ) ) ) ) ) ) ) ) ) ) ) ) ) ) ) ) 2.) C # % F ` n n F ` F n ` ' F j 5 & Y T ",
"! ! Y : 5 q s s f q w 0 q f g s d r ; > T Q Q Q ! ! ! ! Q Q Q Q Q Q Q Q Q Q Q Q Q Q ! E E ; 5 5 s s g 9 0 n 0 w w q q 5 4 > T ! ",
"! ! E e - 0 w 9 Y 0 0 Y 9 Y w 0 ; = - Y E ! Q Q Q ! ! ! Q Q Q Q Q Q Q Q Q Q Q Q Q Q E ! E Y = & 0 0 Y 0 e e 0 w e 0 9 $ : T ! ! ",
"! ! ! Y : ; > : Y ; ; T & Y > - ; & ; E Q Q Q Q Q ! ! ! Q Q Q Q Q Q Q Q Q Q Q Q Q Q ! ! ! T : @ ; ; Y - > f : e e ; - @ : ! ! E "
};
