/* XPM */
static char *_eb964bb867546a9d0635e514301f723UprcWy7WgGT6QLyg[] = {
/* columns rows colors chars-per-pixel */
"64 64 194 2 ",
"   c #373629",
".  c #3A332A",
"X  c #373B29",
"o  c #3C3B2C",
"O  c #40382E",
"+  c #443C32",
"@  c #35442B",
"#  c #3B442E",
"$  c #354A2B",
"%  c #3A4B2E",
"&  c #34542D",
"*  c #335C2E",
"=  c #3E4B31",
"-  c #3D5333",
";  c #3F5E36",
":  c #32622E",
">  c #316A2F",
",  c #356130",
"<  c #306E30",
"1  c #396A34",
"2  c #3F6237",
"3  c #307030",
"4  c #397336",
"5  c #444233",
"6  c #4B4336",
"7  c #434B34",
"8  c #4E4639",
"9  c #4D4A3B",
"0  c #494D37",
"q  c #544C3E",
"w  c #50463D",
"e  c #445036",
"r  c #465B3B",
"t  c #455D3B",
"y  c #54523E",
"u  c #515A3E",
"i  c #446439",
"p  c #496D3E",
"a  c #47693C",
"s  c #42733C",
"d  c #46783E",
"f  c #554C41",
"g  c #584F45",
"h  c #4C5F40",
"j  c #545441",
"k  c #5C5443",
"l  c #535B43",
"z  c #5C5E46",
"x  c #5C5349",
"c  c #5C5B4A",
"v  c #615947",
"b  c #645C4A",
"n  c #61574D",
"m  c #695F54",
"M  c #645A50",
"N  c #5D634A",
"B  c #576148",
"V  c #4B7A41",
"C  c #507C45",
"Z  c #5A7B4B",
"A  c #69614D",
"S  c #656B4C",
"D  c #68694E",
"F  c #62634A",
"G  c #6E6652",
"H  c #6D6A51",
"J  c #6D6359",
"K  c #676758",
"L  c #726A54",
"P  c #71665B",
"I  c #766E59",
"U  c #786F5C",
"Y  c #6E7654",
"T  c #6B7B53",
"R  c #677E53",
"E  c #737456",
"W  c #7C745C",
"Q  c #757859",
"!  c #6E6960",
"~  c #746C61",
"^  c #7D7264",
"/  c #80785E",
"(  c #817765",
")  c #847C62",
"_  c #81776C",
"`  c #857A6C",
"'  c #897F6B",
"]  c #887F65",
"[  c #897E73",
"{  c #458141",
"}  c #478F45",
"|  c #568B4D",
" . c #5A894E",
".. c #479346",
"X. c #489347",
"o. c #4A9649",
"O. c #499848",
"+. c #52914B",
"@. c #628351",
"#. c #74805A",
"$. c #898166",
"%. c #8D856A",
"&. c #878065",
"*. c #90876F",
"=. c #928A6D",
"-. c #8E8470",
";. c #8F8873",
":. c #918671",
">. c #958C73",
",. c #948C7A",
"<. c #998E7A",
"1. c #968A78",
"2. c #9B9374",
"3. c #9D937B",
"4. c #97907B",
"5. c #A0967E",
"6. c #A09878",
"7. c #8D8A81",
"8. c #998D81",
"9. c #918D85",
"0. c #9E9285",
"q. c #A09582",
"w. c #A49983",
"e. c #A89F82",
"r. c #A79B8A",
"t. c #AA9E8A",
"y. c #A4978A",
"u. c #ABA285",
"i. c #AEA48A",
"p. c #A6A08E",
"a. c #B1A78C",
"s. c #B3A98E",
"d. c #ABA592",
"f. c #AFAA99",
"g. c #B1A591",
"h. c #B5AA94",
"j. c #BAAE95",
"k. c #B5AA9B",
"l. c #BAAD9B",
"z. c #B1A699",
"x. c #BCB097",
"c. c #BEB19E",
"v. c #AFAEA4",
"b. c #B5AEA4",
"n. c #BDB2A3",
"m. c #B8B5AB",
"M. c #BBB8B0",
"N. c #C1B59E",
"B. c #C3B5A3",
"V. c #C5B9A3",
"C. c #C8BBA6",
"Z. c #C6B9A9",
"A. c #CABCAB",
"S. c #C5B6A8",
"D. c #C6BFB0",
"F. c #CEC0AD",
"G. c #D0C2AE",
"H. c #CCC2B4",
"J. c #CECABA",
"K. c #C8C3B5",
"L. c #D5C6B3",
"P. c #D3C4B3",
"I. c #D7C8B6",
"U. c #D8C9B7",
"Y. c #D7C7B8",
"T. c #D4CDBB",
"R. c #DECEBE",
"E. c #DCCCBC",
"W. c #DFD0BF",
"Q. c #D5CEC0",
"!. c #D6D3C3",
"~. c #DDD2C2",
"^. c #D6D3CA",
"/. c #DAD8C8",
"(. c #D8D5CC",
"). c #DEDBD2",
"_. c #E0D0C0",
"`. c #E0D0C0",
"'. c #E4D6C8",
"]. c #E4D9CB",
"[. c #E8DDCF",
"{. c #E3DED2",
"}. c #E8DED1",
"|. c #EAE2D5",
" X c #EDE6DA",
".X c #EEE8DD",
"XX c #E7E3D9",
"oX c #F0EADF",
"OX c #EFEEE5",
"+X c #F2EDE3",
"@X c #F4F3EA",
"#X c #F8F7EF",
"$X c #F3F0E7",
"%X c #F8F8F0",
/* pixels */
"d | | |  . .| e   O 6 6 6 6 6 6 + + 8 + 8 8 + 8 6 + 8 8 6 6 6 6 6 6 6 6 6 + 8 8 6 6 6 6 6 6 O + 6 6 6 6 6 6 6 O . 7 | | | | |  .",
"X.O.O.O.O.o.X.- . . O O . O . O . . . . O O O O O . O O . . . . O . . . . O . . O O . O O . . . . O O O O O O O . 7 ..X.O.O.O...",
"X.O.O.O.O. .p # 6 q y q q q q q 8 . . . q q q q q O 6 q O 6 O 6 y 6 + 6 O q 8 O q q f f q . . . 8 q q q q q k q 6 5 a  .O.O.O.O.",
"O.O.O.O.O.T 0 o k L L L L L L L v . . O G G L L L O v L 6 k 8 q L q 8 v + G b O L H L G L O . . v G L L L L H L y . 0 R O.O.O.O.",
"O.O.O.O.o.S + O v / I / / / / / A . . y >.:.>.>.<.q I / k I A m ] A b ^ k / I q 3.>.>.>.:.k . . b / / / / / I I A O O S +.O...O.",
"O.O.O.O.@.j . q H I I / =.=.=.%.b . O ( l.l.l.j.H.W $.=.L 4.' W =.W ( 3.L =.] I H.l.l.l.l.) O . b $.=.=.=.] I I H q O y @.O.O.O.",
"O.O.O.o.Y 5 . b / I I %.6.6.6.=.A . 6 5._._.R.W.$X4.>.3.$.l.w.%.6.%.5.c.] 2.>.=.$XR.R.`._.e.w . b =.6.6.6.$.I W / v . 6 Y o.O.O.",
"O.O.O.| z O 6 I $.$./ >.N.N.a./ q O L N._._.C.N.|.n.>.%.3.C.w.%.6.%.q.A.3.=.>.n.|.V.V.R._.N.I O q / u.N.N.2./ $./ / 6 O z  .O.O.",
"O.O.O.T 6 O v / 2.2.] w.L.L.N.G + + 2.L._._.i.u.R.{.4.W h.Y.w.%.6.%.5.Y.j.W ,.{.~.u.u.W.`.U.2.6 O A h.L.L.t.] 2.2.$.v . 6 Y O.o.",
"O.O.+.S + + L =.2.=.] u._.U.t.k . v s._.R.P.%.$.Z..Xd.,.D.].u.%.6.=.w.].H.;.p..XF.&.$.F.W.W.h.b O k t.Y._.i./ >.2.=.L O O D +.O.",
"O.O.@.q O 8 / %./ $./ u.R.S.' + + ] C.`.R.j.m b u./.J.K.]..Xd.%.2.=.r..X{.K.J.].a.v b h.E.W.A.$.+ + ` S._.i./ ) / $./ q O y @.o.",
"O.O.E + . b >.] / L I 6._.N.v O w u.`.R.R.6.. . =.L.OX%X%X%Xf.%.6.%.d.%X%X%X+XI.=..   2.E.W.W.i.q O v h._.t./ I / / 2.A . O E O.",
"o.O.z O 6 / =./ :.3.3.N.A.<.q + L N.~.R.B.W $ . G j.T.!.|.$XK.>.=.2.Z.@XXX!.T.x.L . $ I N.E.`.N.I + 8 1.A.N.q.3.=./ 2./ 6 . v O.",
"o.O.7 . k %.6./ t.A.S.L.N.I + + 2.L.W.E.u.9 ,   6 3.s.h.T.OX~.5.) 3.~.+XT.h.h.3.6   : 0 e.U.`.L.3.q O L N.L.S.A.i./ 2.$.v . 5 o.",
"O.+.O . G >.6.] t.U._.U.t.n + k i.W.W.F.$.X <   . W %.=.c.|.|.k.-.h.|.|.N.%.%.) .   < X ] A.R.`.a.k + n q.Y._.U.a./ 6.2.H . X +.",
"O.@.  . / 2.6./ 1.A._.S.( m ( f i.W.E.h.b & <   . k A b 3.W.|.!.M.T. X!.w.A A z . . < & b a.U.W.a.g I P ( B._.A.2.] 6.2./ . O @.",
"O.E O . / 6.6./ / g._.g.n I y.q i._.U.2.O > >   . . . . / A. X@X@X@X.XF.] O . . .   3 < o >.L.W.a.k 0.( v g._.N.I ( 6.6.] O O I ",
"o.z O 6 %.6.6.=./ g._.g.k J 3.q i._.N.I . > 3   . q 7   b i.T./././.T.i.A   = q .   3 3   I x.E.a.q 1.P k t._.h./ ' 6.6.=.+ O v ",
"O.0 . v =.6.6.2.) g._.g.v M ' q i.U.5.8   3 3   . L a X 6 %.j.x.j.j.j.:.6 X i I . . 3 <   w 3.I.a.k ` m k t._.h./ 2.6.6.=.v . + ",
"O.O . A 2.6.6.6.] g._.g.k k / q i.L.=.O   3 3   . %.V @ . L =.>.>.>.=.I . @ d =..   3 3   . %.P.a.q / v k t._.l.] 6.6.6.2.A . O ",
"O.. . G =.6.6.6.] g._.g.k v / q i.P.=.. . 3 3   . $.d * X k A A S A G j X & d =..   : >   . %.G.a.q I n k u._.h./ 6.6.6.2.L . . ",
"O.. . G 2.6.6.2.] g._.g.k k / q i.P.=.  . 3 3   . %.V > @ O + O + + + . @ < d =.. . 3 3     %.P.a.k / b k t._.h.] 6.6.6.2.G . . ",
"O.  . A 2.6.2.=.<.N._.g.k q G f i.U.g.! L * 3   n W s 3 &   . + f + .   & 3 4 W k   3 * P ! d.I.a.k b q k t._.B.2.=.=.6.>.G . . ",
"o.X . H =.6.=./ t.A._.g.k + + q a.`.!.M.m.@ 3   <.m 1 3 * @ . k / z . X , 3 1 b 3.  3 @ v.M.!.~.a.k 8 + k t._.L.i./ ] 6.2.A . . ",
"o.5 . A 2.6./ / N.R._.a.k O O q u.`.@X@XOX+ 1   D.M * < 3 $ . H 6.I . $ < < : x D.. 1 + OXOX@X/.i.g O O k t._._.N./ ) 6.2.G . O ",
"o.y . H >.6./ 2.S.R._.g.k f J q 6.F.J.T.}.9.-   J.8.h < 3 * X G 2.I X * 3 > r ,.^.. & 7.).Q.J.V.e.g M g k t._._.A.<./ 6.2.G O q ",
"o.D . L 2.6./ i.U._._.g.k J <.q 6.u.a.s.'.).# . (.Y.x * 3 > $ G 6.L @ > 3 * j D.{..   ^.'.h.i.u.5.k 1.~ k t._._.U.h.) 6.2.G . G ",
"o.T O v >.6./ N._._._.g.k P q.8 &.&.&.%.P.$X! . ^.{.^ ; > 3 $ G 6.I $ > < ; ^ }.).. m +XP.*.&.&.] 8 <.U k t._._._.N.) 6.=.b . L ",
"O. .o 6 %.6./ N._._._.g.k M [ + z k x b j.}.m.+ J. Xb.k : < $ H 3.I $ 3 , h z..X~.O b.}.N.m k x v O ' G q i._._._.N./ 6.=.6 .  .",
"O.O.o . $.6./ N.E._._.g.k v / O .   . o 6.R.@Xw Z.$X[.m * < $ G 6.L $ 3 * M ].$XA.+ #X`.6.+ . . O . W n v t._.R.W.N./ 6.=.. o O.",
"O.O.y O / 2./ 6.h.A._.g.k v / + ^ P . . U V. X[ D.}. Xy.h : $ G 6.I $ , u 8.|. XY.`  XV./ O . m ( 8 W v k t._.A.h.5./ 6./ . y o.",
"O.O.D O H 2.&./ ' N._.g.k v / g B.r.. . w u.'.B._.'.+XD.K * $ G 6.L $ : c D.+X'.R.B.'.i.w . . 0.N.n / n k t._.N.*.' / >.I O D O.",
"O.O.T O v %.&./ ( t.Y.t.k v / M P.B.. . o $.G.R._._..X}.[ r @ G 6.L @ t ^ }.+X~._.R.G.%.7 . . k.Y.m W v k t.Y.i.( / / =.v O Y O.",
"O.O. .O 8 W $.=.*.<.N.g.k k / k N.l..   & b h.R._._.}. Xk.N   G 6.L X B k. X}.R.R.W.N.b &   . l.B.n W b k t.B.3.*.*.%./ 8 O  .O.",
"O.O.o.# . A >.6.6.] g.g.k v / q a.B.. . < . 2.U._._.`.+X].~ . G 6.I   J ].+X`._.W.W.6.O : X . l.a.k W v k t.h.] 6.6.=.L . o O.O.",
"O.3 3 &   q / 2.6.] t.N.( v b q a.A.J . * v 2.V.C.C.A.T.~.q.f G 6.L w <.~.T.C.C.C.N.6.b & X m C.a.k v v U N.g.] 6.2./ q   i O.o.",
"O.O.3 : X O L =.6.%.i.L.0.v + q a.U.y.. @ ] 6.e.i.i.i.s.A.A.P G 6.L m S.L.h.i.i.i.i.6./ # . q.U.a.k + v 3.P.g.] 6.=.L O o { O.O.",
"O.O.O.3 @   v $.6.] i._.N.G O w 5.U.A.w . =.=.=.=.=.=.=.h.Z.~ G 6.I P Z.l.=.%.=.=.=.=.=.O 8 S.U.5.q O m h._.h.] 6.=.v . % O.O.O.",
"O.O.O.O.s X 8 I 2.' t._.A.:.8 + U N.Y.[ . b b m A A A A / ` q G 6.L g ` ^ A A A A A m m . [ P.V.( + 8 [ A._.g.] =./ 8 o s O.O.O.",
"O.O.O.O.} 5 O v =.] i._.R.g.v O f a._.Z.. O O O O . O o + + O G 6.L . + O O O o O . O . . n.R.s.k . v i.E._.g.] =.A . # ..O.O.O.",
"O.O.O.O.O.i X q $.$.6.N.A.B.( + + *.A.L.. @ @ . . 8 5 @ @ @   H 6.I   @ @ @ % q   . X @ . A.F.*.6 + ^ B.F.N.3.$.$.y X i ..O.O.O.",
"O.O.O.O.O.{ 7 O / $.) >.h.Y.q.k O m j.P.. & *   . H i * * : @ G 6.P @ * * * i I . . : * . A.j.A O q q.L.l.1.$.$./ + X : O.O.O.O.",
"O.O.O.O.O.O.-   I %./ W w._.N.M . 6 5.P.  3 3   . $.d 3 3 3 $ G 2.I $ > 3 3 d =.    3 3   A.u.8 . A l.W.w.W W $./ . @ O.O.O.O.O.",
"O.O.O.O.O.O.s # I =.$./ w.R.N.G 8 8 u.L.  3 3   O %.d 3 3 3 $ H 6.L $ 3 3 3 d =..   3 3 X A.u.8 8 G l.R.r.) %.>.W X & O.3 3 3 O.",
"O.O.O.O.O.O.} = I 6.2.$.w.R.N.I b 6 e.P.  3 3   . $.d 3 3 3 $ G 6.I $ 3 3 3 d %.. . 3 3   V.a.q b I j.R.u.$.2.2.W @ } 3 3 3 O.O.",
"O.O.O.O.O.O.O.- I 6.6.%.w.R.C.=.A 8 5.N.. > 3 @ . L Z s 3 3 $ G 6.L $ 3 3 4 Z W   X 3 3   h.6.w b %.V.`.w.%.6.3.W % O.3 3 O.O.O.",
"O.O.O.O.O.O.O.- I 6.6.*.w.R.U.t.A 6 6.u.  3 3 *   q #.d 3 3 $ D 6.L $ 3 3 d #.q   * > 3   w.6.q b r.P._.w.%.2.6.W = O.O.O.O.O.O.",
"O.O.O.O.O.O.O.; L 6.6.%.w._._.N.A 6 6.=.  3 3 3   O $.d 3 3 7 H 6.I % 3 3 d $..   > 3 3   =.3.0 b N._._.u.%.6.6.W = O.O.O.O.O.O.",
"O.O.O.O.O.O.O.e E 6.=./ 5._._.C.A 6 6.2.. 3 3 3 X . &.d 3 * u / 6.] u * 4 d ] . X 3 3 3 . =.6.q b N._._.t./ >.6./ 7 O.O...O.O.O.",
"O.O.O.O.O.O.O.& I 6.=./ e._.R.V.A 6 6.=.. 3 > > X . $.d 3 & D 2.6.2.H $ > d $..   3 3 >   =.6.8 A N._._.w./ %.6.W % O.O.O.O.O.O.",
"O.O.O.O.O.O.O.& W 2.%./ g._._.C.A 6 6.=.+ : : : . . / a , 0 / 6.6.6./ e : a I .   : : : 5 =.6.8 M N._._.h.] $.6.W e O.O.O.O.O.O.",
"O.O.O.O.O.O.O.; I 6.%.>.A._.R.B.A 8 6.2.v $ $ $ . . q 7 $ z $.6.6.6.=.F $ 7 q . . $ $ $ k 2.6.8 b N._._.A.<.$.6.W % O.O.O.O.O.O.",
"O.O.O.O.O.O.O.e U 6.*.e.R._._.B.A 8 6.2./ . . . . . . . . / 6.6.6.6.6.W . . . . . . . . I 2.6.8 b N._._.R.t.$.6.W - O.O.O.O.O.O.",
"O.O.O.O.O.O.O.& I 6.] >.h.C._.B.A O / 2./ v v v v k v v v / 2./ I / =.%.b v v v k v v v / 2./ + M N._.A.h.<.] 6.W & O.O.O.O.O.O.",
"O.O.O.O.O.O.O.e I 6.] / [ i._.B.A . k 6.=.$.$.$.$.$.$.$.$.2.$.A 8 v %.2.$.$.$.$.$.$.$.$.2.2.y . b N._.g.[ ) ] 6.W = O.O.O.O.O.O.",
"O.O.O.O.O.O.O.& I 6.*./ / q._.B.A . O %.%.%.%.$.$.%.%.%.%.%./ 8 . 8 I %.%.%.%.%.%.%.%.%.%.%.+ . b N._.w./ / %.6.W - O.O.O.O.O.O.",
"O.O.O.O.O.O.O.- I 6.2.=./ 3._.B.A . . A v A A A b b b b v A k O . O y b b v b b A v A A v A O . b n.R.w.) =.>.6.W = O.O.O.O.O.O.",
"O.O.O.O.3 3 O.- I 6.6.6.=.6._.B.A . . . . . . . . . X . O . . . . . . . O O O O . . . . . . . . b N._.q.%.2.6.6.W - 3 3 O.O.O.O.",
"O.O.O.O.O.3 3 - L =.=.=.] *.N.w.A . 8 6 8 8 8 8 8 8 8 8 8 8 8 8 8 8 8 8 8 8 6 8 8 8 8 8 8 8 8 O b e.l.>.] =.=.=.G @ 3 O.O.O.O.O.",
"O.3 3 3 O.3 3 - v / / / / ( 1.' A O A A A A A A A A A A A A A A A A A A A A A b A A A A A A A O m ' >.) W / / / A @ 3 O.3 3 3 O.",
"O.O.3 3 3 O.3 r q L G G G L L G v + / / / / / / / / / / / / / / / / / / / / / / / W W / W W W 6 v L G G L G L L x @ O.3 3 3 O.O.",
"O.O.O.3 3 O.O.& 8 y y q q q q q 8 5 %.%.$.%.$.%.%.%.$.$.%.%.$.$.$.$.$.=.$.$.$.$.%.%.%.%.%.%.%.6 8 q q q k f q q 8 - O.3 3 O.O.O.",
"O.O.O.O.O.O.O.e . O . O O . O O . 6 2.2.2.2.2.6.2.2.2.2.2.2.2.2.2.2.2.2.2.2.6.2.2.2.2.2.6.2.6.8 . . O O o . . . . - O.O.O.O.O.O.",
"O.O.O.O.O.O.O.O.X.X.X.O.O.O.X...O.O.O.O.O.O.O.O.O.o.o.o.O.O.O.O.O.O.O.O.O.O.O.O.O.O.O.O.O.O.O.O.O.O.O.X.O.O.O.O.O.O.O.O.O.O.O.O."
};
