/* XPM */
static char *_5718806b10b40a6da546aa8cf97f4cf5JsoMG8ZdCLjKwD0[] = {
/* columns rows colors chars-per-pixel */
"64 64 173 2 ",
"   c #293129",
".  c #2C3D2C",
"X  c #3A3229",
"o  c #363E2A",
"O  c #2D3A31",
"+  c #303F36",
"@  c #463E33",
"#  c #35452B",
"$  c #344C2C",
"%  c #335B2D",
"&  c #304A30",
"*  c #32443A",
"=  c #364A3D",
"-  c #365E36",
";  c #365739",
":  c #2E442E",
">  c #32622E",
",  c #38633A",
"<  c #307030",
"1  c #3C713C",
"2  c #4D4538",
"3  c #424A33",
"4  c #4A5A3C",
"5  c #374E43",
"6  c #3B5446",
"7  c #3A5E43",
"8  c #3B5549",
"9  c #3C584C",
"0  c #3F5D51",
"q  c #3D6249",
"w  c #415D4E",
"e  c #4A5E4C",
"r  c #5B5343",
"t  c #5D544A",
"y  c #415F50",
"u  c #635B4A",
"i  c #695F53",
"p  c #635C54",
"a  c #45644D",
"s  c #4A6D4B",
"d  c #557D48",
"f  c #436354",
"g  c #466C5D",
"h  c #4A6D59",
"j  c #476857",
"k  c #516751",
"l  c #4E715B",
"z  c #50745C",
"x  c #587E58",
"c  c #5B755E",
"v  c #69614D",
"b  c #616B56",
"n  c #726A54",
"m  c #70655B",
"M  c #707856",
"N  c #7D745D",
"B  c #4B7465",
"V  c #4E7B6C",
"C  c #517A66",
"Z  c #507C69",
"A  c #817764",
"S  c #837B61",
"D  c #438843",
"F  c #4C834C",
"G  c #469446",
"H  c #489848",
"J  c #5E8066",
"K  c #55826C",
"L  c #59866D",
"P  c #5A886E",
"I  c #518170",
"U  c #5C8470",
"Y  c #598B75",
"T  c #5A8E78",
"R  c #5F957C",
"E  c #5F9277",
"W  c #67866B",
"Q  c #6F926F",
"!  c #6C8C70",
"~  c #628D7B",
"^  c #649676",
"/  c #63927C",
"(  c #659B7D",
")  c #7C907C",
"_  c #69A07F",
"`  c #8F856F",
"'  c #938B6D",
"]  c #978E74",
"[  c #988E76",
"{  c #9B907B",
"}  c #A09878",
"|  c #649C80",
" . c #6A9B83",
".. c #689582",
"X. c #709C88",
"o. c #69A384",
"O. c #6EAA88",
"+. c #6EA787",
"@. c #73AB8A",
"#. c #79AE8F",
"$. c #76A58A",
"%. c #74B28D",
"&. c #7AB18E",
"*. c #7CB692",
"=. c #7BBB92",
"-. c #7AAA90",
";. c #809C81",
":. c #9F9481",
">. c #A79E80",
",. c #A89C88",
"<. c #8AA68B",
"1. c #84AB95",
"2. c #92AA92",
"3. c #80B494",
"4. c #82BD97",
"5. c #84BE98",
"6. c #88B19A",
"7. c #AEA488",
"8. c #B1A58F",
"9. c #B5AB90",
"0. c #B2A592",
"q. c #BCB19C",
"w. c #AAA596",
"e. c #99BFA5",
"r. c #90B8A0",
"t. c #BCB7A7",
"y. c #C4B7A0",
"u. c #C0B5A9",
"i. c #CBBDAA",
"p. c #C3B9A8",
"a. c #84C18F",
"s. c #86C49A",
"d. c #89C39C",
"f. c #8DCA9F",
"g. c #8EC6A0",
"h. c #91CDA2",
"j. c #9CC7A8",
"k. c #94D0A4",
"l. c #98D2A7",
"z. c #9CD3AA",
"x. c #A6C0A6",
"c. c #A1C6AB",
"v. c #ACCBAE",
"b. c #A1D5AE",
"n. c #A2DCAE",
"m. c #AEDAAE",
"M. c #A6DEB1",
"N. c #AFDBB8",
"B. c #AAD6B2",
"V. c #B2D4B4",
"C. c #B0D4B8",
"Z. c #B3DBBA",
"A. c #BAD9BC",
"S. c #B1CCB1",
"D. c #AAE3B4",
"F. c #B0E8B8",
"G. c #B8EABE",
"H. c #B9E6BF",
"J. c #D2C6B4",
"K. c #D4CABA",
"L. c #BBE4C0",
"P. c #BEECC3",
"I. c #DBD1C2",
"U. c #DBD8C8",
"Y. c #E0D0C0",
"T. c #C1E5C4",
"R. c #C1ECC4",
"E. c #C5E9C8",
"W. c #C9EECB",
"Q. c #CEF0CF",
"!. c #D0F0D0",
"~. c #E8E2D6",
"^. c #F0EBE0",
/* pixels */
"H H H H H H H H H H H H H H H H H H H H H H H H H H H H H H H H H H H H H H H H H H H H H H H H H H H H H H H H H H H H H H H H ",
"H H H H H H H H H H H H H H H H H H H H H H H H H H H H H H H H H H H H H H H H H H H H H H H H H H H H H H H H H H H H H H H H ",
"H H H H H H H H H H H H H H H H H H H H H H H H H H H H H H H H H H H H H H H H H H H H H H H H H H H H H H H H H H H H H H H H ",
"H H H H H H H H H H H H H H H H H H H H H H H H H H H H H H H H H H H H H H H H H H H H H H H H H H H H H H H H H H H H H H H H ",
"H H H H H H H H H H H H H H H H H H H H H H H H H H H H H H H H H H H H H H H H H H H H H H H H H H H H H H H H H H H H H H H H ",
"H H H H H H H H H H H H H H H H H H H H H H H H H H H H H H H H H H H H H H H H H H H H H H H H H H H H H H H H H H H H H H H H ",
"H H H H H H H H H H H H H H H H H H H H H H H H H H H H H H H H H H H H H H H H H H H H H H H H H H H H H H H H H H H H H H H H ",
"H H H H H H H H H H H H H H H H H H H H H H H H H H H H H H H H H H H H H H H H H H H H H H H H H H H H H H H H H H H H H H H H ",
"H H H H H H H H H H H H H H H H H H H H H H H H H H H H H H H H H H H H H H H H H H H H H H H H H H H H H H H H H H H H H H H H ",
"H H H H H H H H H H H H H H H H H H H H H H H H H H H H H H H H H H H H H H H H H H H H H H H H H H H H H H H H H H H H H H H H ",
"H H H H H H H H H H H H H H H H H H H H H H H H H H H H H H H H H H H H H H H H H H H H H H H H H H H H H H H H H H H H H H H H ",
"H H H H H H H H H H H H H H H H H H H H H H H H H H H H H H H H H H H H H H H H H H H H H H H H H H H H H H H H H H H H H H H H ",
"H H H H H H H H H H H H H H H H H H H H H H H H H H H H H H H H H H H H H H H H H H H H H H H H H H H H H H H H H H H H H H H H ",
"H H H H H H H H H H H H H H H H H H H H H H H H H H H H H H H H H H H H H H H H H H H G H H H H H H H H H H H H H H H H H H H H ",
"H H H H H H H H H 1 & & & G H H H H H G & & & & & & & & & & & & & & & & & & & & & & & , H H H H H H & & & - H H H H H H H H H H ",
"H H D , D H W x s e.!.!.!.2., W x H D 2.!.W.P.R.R.R.R.P.P.P.P.P.T.R.P.R.R.R.R.P.R.W.!.A.s H 1 ) s x !.!.!.A.F s ) 1 H , 1 H H H ",
"H H ] j.$.k Z.S.v.H.z.z.b.R.e.V.V.a ) Q.Q.R.F.F.F.F.F.F.F.F.F.F.F.F.F.F.F.F.F.F.F.G.!.Q.S.s <.L.v.V.B.z.z.N.V.c.H.<.k x.2.F H H ",
"H Q !.!.!.;.+.+.3.@.#.3.#.#.3.o.$.c.W.G.Q.R.F.F.F.F.F.F.F.F.F.F.F.F.F.F.F.F.F.F.F.L.!.W.P.C.r.| #.3.o.*.3.@.3.#.( 2.A.!.!.x.H H ",
"H m.E.!.R.!.!.!.!.!.!.!.!.!.!.!.!.Q.F.G.Q.R.F.F.F.F.F.F.F.F.F.F.F.F.F.F.F.F.F.F.F.G.!.W.F.P.!.!.!.!.!.!.!.!.!.!.!.!.G.!.Q.P.H H ",
"H m.R.!.R.G.G.G.G.G.G.G.G.G.G.G.W.E.F.G.Q.P.F.F.F.F.F.F.F.F.F.F.F.F.F.F.F.F.F.F.F.G.Q.W.F.R.!.G.G.G.G.G.G.G.G.G.G.G.F.!.W.R.H H ",
"H m.R.!.R.F.F.F.F.F.F.F.F.F.F.F.P.W.F.G.Q.R.F.F.F.F.F.F.F.F.F.F.F.F.F.F.F.F.F.F.F.G.!.W.F.P.!.F.F.F.F.F.F.F.F.F.F.F.F.!.W.P.H H ",
"H m.R.!.R.F.F.F.F.F.F.F.F.F.F.F.P.W.F.G.Q.W.G.G.G.G.G.G.G.G.P.L.G.G.G.G.G.G.G.G.G.P.!.W.F.R.!.F.F.F.F.F.F.F.F.F.F.F.F.!.W.P.H H ",
"H m.R.!.P.F.F.F.F.F.F.F.F.F.F.F.R.W.F.W.!.!.!.!.!.!.!.!.!.!.Q.!.!.!.!.!.!.!.!.!.!.!.!.Q.G.P.!.F.F.F.F.F.F.F.F.F.F.F.F.Q.Q.R.H H ",
"H m.E.!.R.G.F.F.F.F.F.F.F.F.F.F.P.Q.R.T.C.V.V.N.C.C.C.C.C.C.C.C.C.C.C.C.C.C.C.C.C.C.C.Z.W.E.!.F.F.F.F.F.F.F.F.F.F.F.G.Q.W.R.H H ",
"H m.!.!.Q.Q.F.F.F.F.F.F.F.F.F.F.P.!.W.@.f 9 9 9 9 9 9 9 g f g 9 B 9 g 9 9 9 9 9 9 9 9 T N.!.!.F.F.F.F.F.F.F.F.F.F.W.!.!.!.!.H H ",
"H a.g h g B.Q.!.!.!.!.!.!.!.!.!.Q.P.$.f * 9 @.s.O.* 9 = O y 5 *   g * = * 9 T 4.4.C O 5 Z D.!.!.!.!.!.!.!.!.!.!.!.G.U g g  .H H ",
"H ; 5 g 5 9  .X.X.X.X.X.X.X.X.X.X...0 B I O Y s.Z   9 ^ B g 5 * O g B | * 9 9 =.+.6 9 V 5 T X.X.X.X.X.X.X.X.X.X.X.Y   g y O H H ",
"H & | | o.z z l z z z l z z z z l l P | ( P z l K | | | | | | | | | | | | | E l z Z | ( | z z z z z z z z z z c z z ^ | | j H H ",
"H & C C C C C B Z Z C C C C Z C Z C B C C C C C C C B 5 9 g 9 * * B f * B C C C C C C C C C C C C Z C Z C C C C C C C C C 6 H H ",
"H & e ! ! W ! J c ! ! ! ! ! B W J ! ! ! 2 2 @ X @ 2 2 @ @ @ @ @ @ @ X @ @ 2 2 @ X @ 2 2 ! ! C ! c J ! ! ! ! C C ! C ! ! c   H H ",
"H H 9 j.c.W.d.N.P.l.F.F.D.h.Q.j.k.E.v.e.' ' u 2 ,.q.y.w.A n :.S S :.n S w.q.q.,.2 u ' ] V.A.R.5.R.N.M.F.F.b.N.T.5.R.S.C.L , H H ",
"H H 7 B 9 !.T.c.A.b.n.F.M.L.j.C.E.x.9 B J.A @ y.K.9.N K.t.J.p.' ' p.K.t.K.N 8.I.y.@ A J.Z ) W.E.c.Q.s.F.F.z.Q.c.E.!.k V a H H H ",
"H H ; O 5 ..C.B j.Q.z.g.c.!.X...C.g 5   A X [ Y.y.4 o N q.K.~.[ [ ~.K.y.N o 4 q.Y.[ X A 9 9 e.-.~ L.L.g.g.L.T.T 1.e.+ 5 : H H H ",
"H , f =   8 I 9 B c.!.!.!.6.w g V +   5 v i 9.0.2 < # @ 3 u J.U.U.J.i $ @ # < 2 0.9.m i   O B V 9 ..!.!.Q.L...8 V g O   f o H H ",
"H & O.K * O B 9 w V I I I I * g g O * | t r 9.N X < # r F # r r r r o d r # < X N 0.r t = * 6 K 5 g V V I I g 5 V 5 5 f o.l H H ",
"H & Y g 9 f 9 * O 9 g g g 5   5 8 B 9 V 2 2 ,.U.~.b o p.4 < o N N o < 4 u.o b ~.U.7.2 @ * B 9 9 O O g B g 0 O O 0 0 V 9 I 0 H H ",
"H & I g 8 / 5.C 5           9 ^ 5.V 0 V u u r r [ I.p ~.p.> - N N % % p.~.i I.[ r r u u * I s.O.g +         * j $.5.I 9 I 9 H H ",
"H & I g   C k.z.3... ...|  .s.n.d.y   I r t Y.X X 8.Y.Y.~.m % N N % m ^.Y.Y.0.X X I.r r * 5 ( D.h.-. . .| ..#.h.D.| + 9 I 9 H H ",
"H & V g   f Z s.M.F.F.F.F.F.z.*.j 0   I r 2 9.u # n q.i.J.I.t N N t I.i.i.q.n $ t 9.2 r * 5 5 O.h.F.F.F.F.F.F.h.O.5 + 9 I 9 H H ",
"H & I g   T L 9 Y | | | ( ( Z w ^ B   V :.@ N i.r r r r r v t N N t i r r r r t i.N @ :.* 9 O.f g | | | | | | j f O.* 9 I 9 H H ",
"H & I g   B o.a l 9 q f y w C j | 0   I Y.{ @ 9.n < # r d < % N N % < d 4 # < m 9.@ } Y.* 6 I l l a 5 f j 6 f l h Y O 0 V 9 H H ",
"H & I B * * I f %.l ^ =.^ ^ O.y V   * V Y.i.u >.t < > @ M < % N N % < M @ > < u } u i.Y.0   g 9 P =.6 =.=.l *.P 9 g   g I 9 H H ",
"H & I Y K = g 8 P l K *.B ^ j f f 8 I T Y.Y.u } v % > X u % n } } n % v X % % v } u Y.Y.T 0 6 g 0 o.= @._ j o.f g 8 j T I 9 H H ",
"H & T =.k.( g * l f C =.g K 9 6 C O.h.%.0.Y.u n ] N N N N N ] v v ] N N N N N ] n u Y.0.g.*.( 9 5 T * O.| q T 5 9 | d.d.| 9 < H ",
"H & R 4.D.D.=.g f = y g 0 w 9 Y =.D.D.*.` q.u 2 2 2 2 2 2 2 2 2 2 2 2 2 2 2 2 2 2 u q.` l.F.h.o.0 g * g g 5 g f o.h.F.h.o.0 H H ",
"H & 0 R =.F.M.%.( ^ ^ ^ ^ ^ o.=.D.D.=.Y 2 2 @ ' ' ' ' ' ' ' ' ' ' ' ' ' ' ' ' ' ' @ 2 2 %.l.F.f.O.^ ^ ^ ^ ^ ^ O.g.F.h.o.B O H H ",
"H q * B T =.D.D.F.F.F.F.F.F.F.F.M.%.T B O D H H H H H H H H H H H H H H H H H H H H # 0 I O.f.F.F.F.F.F.F.F.F.F.F.f.o.I 9 & H H ",
"H H , 7 B R *.*.&.@.*.*.*.$.*.*.%.Y B ; ; H H H H H H H H H H H H H H H H H H H H H 1 s 0 Y o.=.*.@.*.=.*.%.@.*.=.o.I 9 , 1 H H ",
"H H H % * B 9 I q 7 g 9 B , g B q B * & H H H H H H H H H H H H H H H H H H H H H H H D   g 0 g B - f f g f 7 B g f f   D H H H ",
"H H H H 1 & H & H 1 , H & G 1 , q & 1 H H H H H H H H H H H H H H H H H H H H H H H H H H & & 1 , H & G 1 - H - 1 & & H H H H H ",
"H H H H H H H H H H H H H H H H H H H H H H H H H H H H H H H H H H H H H H H H H H H H H H H H H H H H H H H H H H H H H H H H ",
"H H H H H H H H H H H H H H H H H H H H H H H H H H H H H H H H H H H H H H H H H H H H H H H H H H H H H H H H H H H H H H H H ",
"H H H H H H H H H H H H H H H H H H H H H H H H H H H H H H H H H H H H H H H H H H H H H H H H H H H H H H H H H H H H H H H H ",
"H H H H H H H H H H H H H H H H H H H H H H H H H H H H H H H H H H H H H H H H H H H H H H H H H H H H H H H H H H H H H H H H ",
"H H H H H H H H H H H H H H H H H H H H H H H H H H H H H H H H H H H H H H H H H H H H H H H H H H H H H H H H H H H H H H H H ",
"H H H H H H H H H H H H H H H H H H H H H H H H H H H H H H H H H H H H H H H H H H H H H H H H H H H H H H H H H H H H H H H H ",
"H H H H H H H H H H H H H H H H H H H H H H H H H H H H H H H H H H H H H H H H H H H H H H H H H H H H H H H H H H H H H H H H ",
"H H H H < < H H H H < < H H H H H H H H H H H H H H H H H H H H H H H H H H H H H H H H H H H H H H H H < < H H H H < < H H H H ",
"H H H H H < < H H < < H H H H H H H H H H H H H H H H H H H H H H H H H H H H H H H H H H H H H H H H H H < < H H < < H H H H H ",
"H < < < H < < H H < < H < < < H H H H H H H H H H H H H H H H H H H H H H H H H H H H H H H H H H < < < H < < H H < < H < < < H ",
"H H < < < H < H H < H < < < H H H H H H H H H H H H H H H H H H H H H H H H H H H H H H H H H H H H < < < H < H H < H < < < H H ",
"H H H < < H H H H H H < < H H H H H H H H H H H H H H H H H H H H H H H H H H H H H H H H H H H H H H < < H H H H H H < < H H H ",
"H H H H H H H H H H H H H H H H H H H H H H H H H H H H H H H H H H H H H H H H H H H H H H H H H H H H H H H H H H H H H H H H ",
"H H H H H H H H H H H H H H H H H H H H H H H H H H H H H H H H H H H H H H H H H H H H H H H H H H H H H H H H H H H H H H H H "
};
