/* XPM */
static char *_b01ee8c70974803c8fe9b6f3c70a687Hk3JZQOuc76ywPzq[] = {
/* columns rows colors chars-per-pixel */
"64 64 175 2 ",
"   c #292A28",
".  c #312F28",
"X  c #2B332B",
"o  c #2D392D",
"O  c #3C3527",
"+  c #343329",
"@  c #393629",
"#  c #3C3928",
"$  c #313A2C",
"%  c #493E26",
"&  c #413C2A",
"*  c #2F412F",
"=  c #3D412B",
"-  c #3D482D",
";  c #304530",
":  c #324D32",
">  c #3A4F32",
",  c #355535",
"<  c #365B36",
"1  c #3A5935",
"2  c #385634",
"3  c #285828",
"4  c #3F6035",
"5  c #386138",
"6  c #3B6B3B",
"7  c #307030",
"8  c #3E733E",
"9  c #3F793F",
"0  c #494127",
"q  c #48472A",
"w  c #46482A",
"e  c #554926",
"r  c #594926",
"t  c #504629",
"y  c #564D2B",
"u  c #46532F",
"i  c #4C592F",
"p  c #5C522B",
"a  c #535B2E",
"s  c #5D5C2B",
"d  c #445A32",
"f  c #4B5E31",
"g  c #645226",
"h  c #695627",
"j  c #6A5926",
"k  c #665B2A",
"l  c #6A5C2C",
"z  c #64562A",
"x  c #705924",
"c  c #715F2A",
"v  c #6A5F35",
"b  c #406638",
"n  c #426B39",
"m  c #4A6B38",
"M  c #446436",
"N  c #506B37",
"B  c #41733C",
"V  c #6D602D",
"C  c #7D6123",
"Z  c #7A662B",
"A  c #7B6C2E",
"S  c #74622B",
"D  c #606331",
"F  c #626C34",
"G  c #686D33",
"H  c #6D6133",
"J  c #427D40",
"K  c #6A644C",
"L  c #6A6862",
"P  c #826523",
"I  c #866824",
"U  c #896B25",
"Y  c #806C2C",
"T  c #82712F",
"R  c #8F7329",
"E  c #937223",
"W  c #9E7B25",
"Q  c #9A7C29",
"!  c #977525",
"~  c #8A7730",
"^  c #8A7C31",
"/  c #927E30",
"(  c #A47B21",
")  c #A97E21",
"_  c #428242",
"`  c #448A44",
"'  c #479447",
"]  c #489648",
"[  c #489848",
"{  c #508070",
"}  c #9D802B",
"|  c #9A8732",
" . c #A68327",
".. c #AB8122",
"X. c #A5842A",
"o. c #A78B2F",
"O. c #AD8A29",
"+. c #B28420",
"@. c #B68C25",
"#. c #BB8D22",
"$. c #BE9225",
"%. c #B6922B",
"&. c #BF9628",
"*. c #BE992C",
"=. c #A38B31",
"-. c #A88F32",
";. c #AD9332",
":. c #B69B33",
">. c #BB9D32",
",. c #B09431",
"<. c #BEA134",
"1. c #C19324",
"2. c #C79825",
"3. c #C69B2A",
"4. c #CC9F28",
"5. c #CA9C27",
"6. c #C09F30",
"7. c #C79D3B",
"8. c #C7A02C",
"9. c #CDA32A",
"0. c #D2A72B",
"q. c #D4AA2E",
"w. c #DDB22E",
"e. c #C2A433",
"r. c #CDAD34",
"t. c #D2AD31",
"y. c #D2A732",
"u. c #D4B335",
"i. c #DDB737",
"p. c #E1B630",
"a. c #E4BA31",
"s. c #E7C034",
"d. c #ECC535",
"f. c #EFC837",
"g. c #F3CC37",
"h. c #F4CD39",
"j. c #F7D03D",
"k. c #F8D038",
"l. c #8A815F",
"z. c #AF9842",
"x. c #A89448",
"c. c #B69E45",
"v. c #BEA64D",
"b. c #B6A874",
"n. c #C7A04B",
"m. c #D2AC4B",
"M. c #E3BE48",
"N. c #CDB96D",
"B. c #DEBE67",
"V. c #E6C043",
"C. c #F8D240",
"Z. c #F8D44A",
"A. c #E2C65C",
"S. c #F0CF50",
"D. c #F8D75A",
"F. c #F7D451",
"G. c #DDC56B",
"H. c #EDCE62",
"J. c #F8DA67",
"K. c #F5D86D",
"L. c #EED276",
"P. c #B6B2A4",
"I. c #C5BC99",
"U. c #B0E8B8",
"Y. c #DEC790",
"T. c #E4CC88",
"R. c #F7DE83",
"E. c #ECDB99",
"W. c #F3DF93",
"Q. c #F8E083",
"!. c #F7E295",
"~. c #F5E4A8",
"^. c #F7EDC6",
"/. c #F5EED5",
"(. c #F7F0D6",
/* pixels */
"[ [ [ [ [ [ [ [ [ [ [ [ [ [ [ [ [ [ [ [ [ [ [ [ [ [ [ [ [ [ [ [ [ [ [ [ [ [ [ [ [ [ [ [ [ [ [ [ [ [ [ [ [ [ [ [ [ [ [ [ [ [ [ [ ",
"[ [ [ [ [ [ [ [ [ [ [ [ [ [ [ [ [ [ [ [ [ [ [ [ [ [ [ [ [ [ [ [ [ [ [ [ [ [ [ [ [ [ [ [ [ [ [ [ [ [ [ [ [ [ [ [ [ [ [ [ [ [ [ [ ",
"[ [ [ [ [ [ [ [ [ [ [ [ [ [ [ [ [ [ [ [ [ [ [ [ [ [ [ [ [ [ [ [ [ [ [ [ [ [ [ [ [ [ [ [ [ [ [ [ [ [ [ [ [ [ [ [ [ [ [ [ [ [ [ [ ",
"[ [ [ [ [ [ [ [ [ [ [ [ [ [ [ [ [ [ [ [ [ [ [ [ [ [ [ [ [ [ [ [ [ [ [ [ [ [ [ [ [ [ [ [ [ [ [ [ [ [ [ [ [ [ [ [ [ [ [ [ [ [ [ [ ",
"[ [ [ [ [ [ [ [ [ [ [ [ [ [ [ [ [ [ [ [ [ [ [ [ [ [ [ [ [ [ [ [ [ [ [ [ [ [ [ [ [ [ [ [ [ [ [ [ [ [ [ [ [ [ [ [ [ [ [ [ [ [ [ [ ",
"[ [ [ [ [ [ [ [ [ [ [ [ [ [ [ [ [ [ [ [ [ [ [ [ [ [ [ [ [ [ [ [ [ [ [ [ [ [ [ [ [ [ [ [ [ [ [ [ [ [ [ [ [ [ [ [ [ [ [ [ [ [ [ [ ",
"[ [ [ [ [ [ [ [ [ [ [ [ [ [ [ [ [ [ [ [ [ [ [ [ [ [ [ [ [ [ [ [ [ [ [ [ [ [ [ [ [ [ [ [ [ [ [ [ [ [ [ [ [ [ [ [ [ [ [ [ [ [ [ [ ",
"[ [ [ [ [ [ [ [ [ [ [ [ [ [ [ [ [ [ [ [ [ [ [ [ [ [ [ [ [ [ [ [ [ [ [ [ [ [ [ [ [ [ [ [ [ [ [ [ [ [ [ [ [ [ [ [ [ [ [ [ [ [ [ [ ",
"[ [ [ [ [ [ [ [ [ [ [ [ [ [ [ [ [ [ [ [ [ [ [ [ [ [ [ [ [ [ [ [ [ [ [ [ [ [ [ [ [ [ [ [ [ [ [ [ [ [ [ [ [ [ [ [ [ [ [ [ [ [ [ [ ",
"[ [ [ [ [ [ [ [ [ [ [ [ [ [ [ [ [ [ [ [ [ [ [ [ [ [ [ [ [ [ [ [ [ [ [ [ [ [ [ [ [ [ [ [ [ [ [ [ [ [ [ [ [ [ [ [ [ [ [ [ [ [ [ [ ",
"[ [ [ [ [ [ [ [ [ [ [ [ [ [ [ [ [ _ <   : 8 [ [ [ [ [ [ [ [ [ [ [ [ [ [ [ [ [ [ [ [ 9 :   < _ [ [ [ [ [ [ [ [ [ [ [ [ [ [ [ [ [ ",
"[ [ [ [ [ [ [ [ [ [ [ [ [ [ [ ' ' 9 1 X > 8 ' ' ' [ ' ' ' ' ' ' ' ' ' ' ' [ ' ' ' ' B : $ 1 B ' ' ' [ [ [ [ [ [ [ [ [ [ [ [ [ [ ",
"[ [ [ [ [ [ [ [ [ [ [ [ [ [ ' _ 8 m F A G N 6 9 ` ' _ 8 6 6 6 6 6 6 6 6 6 _ ' ` B 8 m G A F m 8 _ ' [ [ [ [ [ [ [ [ [ [ [ [ [ [ ",
"[ [ [ [ [ [ [ [ [ [ [ [ [ [ ` 6 : i | >.| D ; 6 _ ` 6 : * * o * * * * $ , 6 ` _ 6 ; D | <.| i : 6 ` [ [ [ [ [ [ [ [ [ [ [ [ [ [ ",
"[ [ [ [ [ [ [ [ [ [ [ [ ` ` B 4 = k -.f.:.V   : 9 B M = O O O O O O O O = 1 J 8 :   l :.d.;.k = M J ` ` [ [ [ [ [ [ [ [ [ [ [ [ ",
"[ [ [ [ [ [ [ [ [ [ [ [ 5 5 b a j E <.f.:.V   * , 4 a j x x x x j x x x j a M 2 *   V :.f.>.R j a 1 5 5 [ [ [ [ [ [ [ [ [ [ [ [ ",
"[ [ [ [ [ [ [ [ [ [ [ [ o o # j E @.q.g.*.l     X = j E ( ( ( ( ( ( ( ( E j = X     V :.g.q.@.E j 0 o o [ [ [ [ [ [ [ [ [ [ [ [ ",
"[ [ [ [ [ [ [ [ [ [ [ [     O x ( 2.p.g.e.A % 0 % r I @.2.2.2.2.2.2.2.3.@.U r % % % A >.k.w.2.( j O     [ [ [ [ [ [ [ [ [ [ [ [ ",
"[ [ [ [ [ [ [ [ [ [ [ [     . x ( 2.w.g.t.X.C C C U O.0.w.p.w.w.w.w.w.w.9.O.U C C C  .t.g.w.2.( x O     [ [ [ [ [ [ [ [ [ [ [ [ ",
"[ [ [ [ [ [ [ [ [ [ [ [     O x ( 2.w.g.a.5.+.+.+.$.0.d.g.g.g.k.g.g.k.g.d.0.#.+.+.+.8.a.k.w.2...x .     [ [ [ [ [ [ [ [ [ [ [ [ ",
"[ [ [ [ [ [ [ [ [ [ [ [ : : > z C W *.w.w.0.5.4.9.0.w.g.k.k.k.k.k.k.Z.J.K.M.r.9.4.4.0.w.w.*.} C p - : : [ [ [ [ [ [ [ [ [ [ [ [ ",
"[ [ [ [ [ [ [ [ [ [ [ [ 8 9 n M y x W 3.0.w.a.a.a.s.d.g.k.k.k.k.k.j.K.!.~.L.V.i.a.a.w.0.2.W x y f n 8 8 [ [ [ [ [ [ [ [ [ [ [ [ ",
"[ [ [ [ [ [ [ [ [ [ [ [ [ [ ` 5 * 0 C ..3.p.g.g.f.f.g.k.k.k.k.k.k.C.Q.^.(.W.S.f.g.k.a.2...C 0 o 5 ` [ [ [ [ [ [ [ [ [ [ [ [ [ [ ",
"[ [ [ [ [ [ [ [ [ [ [ [ [ [ ` 9 5 d s C W *.w.8.%.,.r.d.k.k.k.k.k.C.J.!.E.N.:.>.u.g.t. .C s d 5 9 ' [ [ [ [ [ [ [ [ [ [ [ [ [ [ ",
"[ [ [ [ [ [ [ [ [ [ [ [ [ [ [ ` _ B d 0 x W 2.Q S V ;.a.j.j.j.k.k.k.F.D.A.x.H A <.f.<.A 0 d n _ ` ' [ [ [ [ [ [ [ [ [ [ [ [ [ [ ",
"[ [ [ [ [ [ [ [ [ [ [ [ [ [ [ ' ` B d # g ! @.P 0 # T e.a.f.k.k.k.k.d.a.e.T = y | f.<.Z # 1 8 ` ' ' [ [ [ [ [ [ [ [ [ [ [ [ [ [ ",
"[ [ [ [ [ [ [ [ [ [ [ [ [ [ [ B 6 d s j E %.0.E q @ p T -.r.g.k.k.h.u.;.T p + y o.f.r.W x s d 6 9 ' [ [ [ [ [ [ [ [ [ [ [ [ [ [ ",
"[ [ [ [ [ [ [ [ [ [ [ [ [ [ ` 5 ; q x W &.t.s.| y   @ # l ,.f.k.k.h.;.V & @   y o.f.w.$.( x w * 6 ` [ [ [ [ [ [ [ [ [ [ [ [ [ [ ",
"[ [ [ [ [ [ [ [ [ [ [ [ [ [ ` 5 o % C +.5.a.g.:.A y &   y -.f.k.k.f.=.y . & t A :.g.p.9.+.C % o 5 ` [ [ [ [ [ [ [ [ [ [ [ [ [ [ ",
"[ [ [ [ [ [ [ [ [ [ [ [ [ [ _ 5 o % C +.9.a.g.u.:./ k @ y =.f.k.k.f.=.y @ k / :.u.g.a.9.+.C % o 5 _ [ [ [ [ [ [ [ [ [ [ [ [ [ [ ",
"[ [ [ [ [ [ [ [ [ [ [ [ [ [ ` 5 o % C +.5.a.k.g.g.u.~ & y =.f.k.k.f.=.y & ~ u.g.k.k.p.9.+.C % X 5 ` [ [ [ [ [ [ [ [ [ [ [ [ [ [ ",
"[ [ [ [ [ [ [ [ [ [ [ [ [ [ ` 8 2 u k I ..8.a.a.p.y.} h Z :.g.k.k.g.e.~ A =.t.a.a.p.8. .I k u < 8 ` [ [ [ [ [ [ [ [ [ [ [ [ [ [ ",
"[ [ [ [ [ [ [ [ [ [ [ [ [ [ ' ` 9 6 i e C  .5.9.4.2.) E ( 9.g.k.k.k.p.e.>.3.3.4.5.9. .C e i n 9 _ ' [ [ [ [ [ [ [ [ [ [ [ [ [ [ ",
"[ [ [ [ 7 7 [ [ [ [ 7 7 [ [ [ [ ' _ 1 X e I +.+.+.+.+.#.2.w.g.g.h.g.g.h.d.q.#.+.+.+.I e X < _ [ [ [ [ U.U.U.[ [ [ [ [ [ [ [ [ [ ",
"[ [ [ [ [ 7 7 [ [ 7 7 [ [ [ [ [ [ ` 8 , i k C C P P ! ) 1.9.w.w.p.w.w.w.y.O.U C C C k i < 8 ` [ [ U.[ U.U.U.[ U.[ [ [ [ [ [ [ [ ",
"[ 7 7 7 [ 7 7 [ [ 7 7 [ 7 7 7 [ [ ` ` _ n u % % % r P ) #.1.2.2.2.2.2.2.@.U r % % % u n B ` ' [ [ U.U.{ { { U.U.[ [ [ [ [ [ [ [ ",
"[ [ 7 7 7 [ 7 [ [ 7 [ 7 7 7 [ [ [ [ [ [ 9 2 X o + = j E ) ) +.#.#.1.@.) E j = o o o 2 9 [ [ [ [ [ 3 U.{ { { U.3 [ [ [ [ [ [ [ [ ",
"[ [ [ 7 7 [ [ [ [ [ [ 7 7 [ [ [ [ [ [ [ ` 9 5 5 < M a j P W +.2.4.0.O.U j a 4 5 5 5 8 _ [ [ [ [ [ 3 3 U.U.U.3 3 [ [ [ [ [ [ [ [ ",
"[ [ [ [ [ [ [ [ [ [ [ [ [ [ [ [ [ [ [ [ ' ` ` ` ` B 4 = r P +.5.w.a.=.z w 1 J ` _ ` ` ' [ [ [ [ [ [ [ 3 3 3 [ [ [ [ [ [ [ [ [ [ ",
"[ [ [ [ [ [ [ [ [ [ [ [ [ [ [ [ [ [ [ [ [ [ ' [ [ ` 5 X % C +.5.a.g.=.y X , 8 _ ' [ [ [ [ [ [ [ [ [ [ 3 3 3 [ [ [ [ [ [ [ [ [ [ ",
"[ [ [ [ [ [ [ [ [ [ [ [ [ [ [ [ [ [ [ [ [ [ [ [ [ ` < o % C +.9.a.f.=.y   * , 5 _ ' [ [ [ [ [ [ [ [ [ [ [ [ [ [ [ [ [ [ [ [ [ [ ",
"[ [ [ [ [ [ [ [ [ [ [ [ [ [ [ [ [ [ [ [ [ [ [ [ [ ` 5 o % C +.5.a.g.=.y       * 6 ' [ [ [ [ [ [ [ [ [ [ 7 7 [ [ [ [ 7 7 [ [ [ [ ",
"[ [ [ [ [ [ [ [ [ [ [ [ [ [ [ [ [ [ [ [ [ [ [ [ [ ` < o % C +.9.a.f.n.l.L K H D N 8 _ ` [ [ [ [ [ [ [ [ [ 7 7 [ [ 7 7 [ [ [ [ [ ",
"[ [ [ [ [ [ [ [ [ [ [ [ [ [ [ [ [ [ [ [ [ [ [ [ [ _ 5 o % C +.5.a.j.G.I.P.b.c.| G , 5 _ [ [ [ [ [ 7 7 7 [ 7 7 [ [ 7 7 [ 7 7 7 [ ",
"[ [ [ [ [ [ [ [ [ [ [ [ [ [ [ [ [ [ [ [ [ [ [ [ [ ` 5 o % C +.4.a.C.R.^./.W.S.e.A . : 8 [ [ [ [ [ [ 7 7 7 [ 7 [ [ 7 [ 7 7 7 [ [ ",
"[ [ [ [ [ [ [ [ [ [ [ [ [ [ [ [ [ [ [ [ [ [ [ [ ' ` 5 o % C +.9.a.j.H.T.Y.B.M.%.c . : 8 [ [ [ [ [ [ [ 7 7 [ [ [ [ [ [ 7 7 [ [ [ ",
"[ [ [ [ [ [ [ [ [ [ [ [ [ [ [ [ [ [ [ [ [ [ [ [ [ ` < o % C +.5.a.h.M.m.n.7.3.( h . : 8 [ [ [ [ [ [ [ [ [ [ [ [ [ [ [ [ [ [ [ [ ",
"[ [ [ [ [ [ [ [ [ [ [ [ [ [ [ [ [ [ [ [ [ [ [ [ ' ` 5 o % C +.4.a.h.q.$.( ( ( I p $ 2 9 [ [ [ [ [ [ [ [ [ [ [ [ [ [ [ [ [ [ [ [ ",
"[ [ [ [ [ [ [ [ [ [ [ [ [ [ [ [ [ [ [ [ [ [ [ [ [ ` 5 o % C +.9.a.g.>.E x x j z i 5 8 _ [ [ [ [ [ [ [ [ [ [ [ [ [ [ [ [ [ [ [ [ ",
"[ [ [ [ [ [ [ [ [ [ [ [ [ [ [ [ [ [ [ [ [ [ [ [ [ _ < o % C +.5.a.f.;.k O O O - b ` ` ' [ [ [ [ [ [ [ [ [ [ [ [ [ [ [ [ [ [ [ [ ",
"[ [ [ [ [ [ [ [ [ [ [ [ [ [ [ [ [ [ [ [ [ [ [ [ [ ` 6 , q V E  .*.<.^ a * * * 2 8 ' [ [ [ [ [ [ [ [ [ [ [ [ [ [ [ [ [ [ [ [ [ [ ",
"[ [ [ [ [ [ [ [ [ [ [ [ [ [ [ [ [ [ [ [ [ [ [ [ [ ' J 8 M a g j S A F m 6 6 6 8 _ [ [ [ [ [ [ [ [ [ [ [ [ [ [ [ [ [ [ [ [ [ [ [ ",
"[ [ [ [ [ [ [ [ [ [ [ [ [ [ [ [ [ [ [ [ [ [ [ [ [ ' ' ] J 2 X   + o 2 B ' ' ' ' [ [ [ [ [ [ [ [ [ [ [ [ [ [ [ [ [ [ [ [ [ [ [ [ ",
"[ [ [ [ [ [ [ [ [ [ [ [ [ [ [ [ [ [ [ [ [ [ [ [ [ [ [ [ _ 2         < _ [ [ [ [ [ [ [ [ [ [ [ [ [ [ [ [ [ [ [ [ [ [ [ [ [ [ [ [ ",
"[ [ [ [ [ [ [ [ [ [ [ [ [ [ [ [ [ [ [ [ [ [ [ [ [ [ [ [ ] [ [ [ [ [ [ [ [ [ [ [ [ [ [ [ [ [ [ [ [ [ [ [ [ [ [ [ [ [ [ [ [ [ [ [ ",
"[ [ [ [ [ [ [ [ [ [ [ [ [ [ [ [ [ [ [ [ [ [ [ [ [ [ [ [ [ [ [ [ [ [ [ [ [ [ [ [ [ [ [ [ [ [ [ [ [ [ [ [ [ [ [ [ [ [ [ [ [ [ [ [ ",
"[ [ [ [ [ [ [ [ [ [ [ [ [ [ [ [ [ [ [ [ [ [ [ [ [ [ [ [ [ [ [ [ [ [ [ [ [ [ [ [ [ [ [ [ [ [ [ [ [ [ [ [ [ [ [ [ [ [ [ [ [ [ [ [ ",
"[ [ [ [ 7 7 [ [ [ [ 7 7 [ [ [ [ [ [ [ [ [ [ [ [ [ [ [ [ [ [ [ [ [ [ [ [ [ [ [ [ [ [ [ [ [ [ [ [ [ [ [ [ 7 7 [ [ [ [ 7 7 [ [ [ [ ",
"[ [ [ [ [ 7 7 [ [ 7 7 [ [ [ [ [ [ [ [ [ [ [ [ [ [ [ [ [ [ [ [ [ [ [ [ [ [ [ [ [ [ [ [ [ [ [ [ [ [ [ [ [ [ 7 7 [ [ 7 7 [ [ [ [ [ ",
"[ 7 7 7 [ 7 7 [ [ 7 7 [ 7 7 7 [ [ [ [ [ [ [ [ [ [ [ [ [ [ [ [ [ [ [ [ [ [ [ [ [ [ [ [ [ [ [ [ [ [ 7 7 7 [ 7 7 [ [ 7 7 [ 7 7 7 [ ",
"[ [ 7 7 7 [ 7 [ [ 7 [ 7 7 7 [ [ [ [ [ [ [ [ [ [ [ [ [ [ [ [ [ [ [ [ [ [ [ [ [ [ [ [ [ [ [ [ [ [ [ [ 7 7 7 [ 7 [ [ 7 [ 7 7 7 [ [ ",
"[ [ [ 7 7 [ [ [ [ [ [ 7 7 [ [ [ [ [ [ [ [ [ [ [ [ [ [ [ [ [ [ [ [ [ [ [ [ [ [ [ [ [ [ [ [ [ [ [ [ [ [ 7 7 [ [ [ [ [ [ 7 7 [ [ [ ",
"[ [ [ [ [ [ [ [ [ [ [ [ [ [ [ [ [ [ [ [ [ [ [ [ [ [ [ [ [ [ [ [ [ [ [ [ [ [ [ [ [ [ [ [ [ [ [ [ [ [ [ [ [ [ [ [ [ [ [ [ [ [ [ [ ",
"[ [ [ [ [ [ [ [ [ [ [ [ [ [ [ [ [ [ [ [ [ [ [ [ [ [ [ [ [ [ [ [ [ [ [ [ [ [ [ [ [ [ [ [ [ [ [ [ [ [ [ [ [ [ [ [ [ [ [ [ [ [ [ [ "
};
