/* XPM */
static char *_898f4b649ea405086a3adc6cfe87d91FXBSQRR5mfWg7yhR[] = {
/* columns rows colors chars-per-pixel */
"64 64 18 1 ",
"  c #489848",
". c #282828",
"X c #509010",
"o c #78B820",
"O c #F87800",
"+ c #F0A068",
"@ c #E860B0",
"# c #B86820",
"$ c #F8F8F8",
"% c #40D870",
"& c #389068",
"* c gray22",
"= c #885828",
"- c #2828C8",
"; c #E09050",
": c #8080F0",
"> c #F0D840",
", c #C01820",
/* pixels */
"                                                                ",
"                                                                ",
"                                                                ",
"                                                                ",
"                                                                ",
"                                                                ",
"                                                                ",
"                                                                ",
"                                                                ",
"                                                                ",
"                                                                ",
"                                                                ",
"                                                                ",
"                                                                ",
"                                                                ",
"                                                                ",
"                                                                ",
"                                                                ",
"                                                                ",
"                                                                ",
"                                                                ",
"                              ....                              ",
"                             .XXoX..                            ",
"                            .XXooooX.                           ",
"                         . ..OXXoXO.X..                         ",
"                        .+.@..OOOO..X.+.                        ",
"                        .+.@@@....@@..+.                        ",
"                        .#+.@@@@@@@@.+#.                        ",
"                        .#.@........@.#.                        ",
"                         .#.#$$##$$#.#.                         ",
"                          .##$.++.$##.                          ",
"                          ..#+.++.+#..                          ",
"                         .%&.#++++#.&%.                         ",
"                        .*.&&.*##..&&.=.                        ",
"                        *$****$*.&%&.==.                        ",
"                        *$$$$$$*%%&&.=..                        ",
"                        *$----$*%&&&..;.                        ",
"                        *$-::-$*>.>>.;.                         ",
"                        *$-::-$*>>&&..                          ",
"                        *$-::-$*&&..,.                          ",
"                         *$--$*...,,..                          ",
"                          *$$*.......                           ",
"                           **......                             ",
"                                                                ",
"                                                                ",
"                                                                ",
"                                                                ",
"                                                                ",
"                                                                ",
"                                                                ",
"                                                                ",
"                                                                ",
"                                                                ",
"                                                                ",
"                                                                ",
"                                                                ",
"                                                                ",
"                                                                ",
"                                                                ",
"                                                                ",
"                                                                ",
"                                                                ",
"                                                                ",
"                                                                "
};
