/* XPM */
static char *_8e90a53ea0a4a48adf69bd5151a860aq2qjjUVlCDkZawbe[] = {
/* columns rows colors chars-per-pixel */
"64 64 123 2 ",
"   c #489848",
".  c #448B44",
"X  c #3D723D",
"o  c #417F41",
"O  c #365A36",
"+  c #282828",
"@  c #383628",
"#  c #403D28",
"$  c #334E33",
"%  c #2B342B",
"&  c #585328",
"*  c #686128",
"=  c #79712A",
"-  c #8B832D",
";  c #706828",
":  c #989030",
">  c #504C28",
",  c #7D752B",
"<  c #867E2C",
"1  c #948C2F",
"2  c #2F412F",
"3  c #827A2C",
"4  c #484428",
"5  c #746C29",
"6  c #8F872E",
"7  c #302F28",
"8  c #605A28",
"9  c #3A673A",
"0  c #307030",
"q  c #B0E8B8",
"w  c #364641",
"e  c #285828",
"r  c #2A382A",
"t  c #647D68",
"y  c #418D46",
"u  c #2B5835",
"i  c #28332A",
"p  c #285A34",
"a  c #3D8143",
"s  c #3D4633",
"d  c #7A6742",
"f  c #4C4434",
"g  c #334C35",
"h  c #416139",
"j  c #9A8252",
"k  c #4F4737",
"l  c #615439",
"z  c #615234",
"x  c #8F7747",
"c  c #8C7444",
"v  c #484030",
"b  c #4D432D",
"n  c #6D5B35",
"m  c #887040",
"M  c #605030",
"N  c #2B412B",
"B  c #336E38",
"V  c #343C2C",
"C  c #34312A",
"Z  c #28382B",
"A  c #2D6530",
"S  c #36723E",
"D  c #28362D",
"F  c #284433",
"G  c #3D8240",
"H  c #3D8845",
"J  c #285334",
"K  c #28482D",
"L  c #283D2C",
"P  c #2E2C29",
"I  c #473E2C",
"U  c #725E37",
"Y  c #5F5134",
"T  c #413A2C",
"R  c #6E5C39",
"E  c #3B352B",
"W  c #285D3A",
"Q  c #285D35",
"!  c #285830",
"~  c #7F693C",
"^  c #4C422E",
"/  c #645432",
"(  c #695734",
")  c #5C4E32",
"_  c #28633B",
"`  c #2B653A",
"'  c #285A32",
"]  c #5A4C2F",
"[  c #766239",
"{  c #3F392C",
"}  c #54472E",
"|  c #2F6F3E",
" . c #337843",
".. c #7B653B",
"X. c #285C34",
"o. c #449247",
"O. c #3A8344",
"+. c #28532F",
"@. c #2E422C",
"#. c #2B6336",
"$. c #645539",
"%. c #998254",
"&. c #9D8555",
"*. c #867044",
"=. c #947E52",
"-. c #335835",
";. c #A89060",
":. c #937B4B",
">. c #282D29",
",. c #284D2E",
"<. c #967E4E",
"1. c #544932",
"2. c #285338",
"3. c #336A3D",
"4. c #28432C",
"5. c #367C42",
"6. c #28663E",
"7. c #28643C",
"8. c #283C2E",
"9. c #286840",
"0. c #2F653C",
"q. c #367741",
"w. c #3D7940",
/* pixels */
"                                                  . X X X X X X X X X X X X .                                                   ",
"                                              o X O + @ # # # # # # # # @ + O X o                                               ",
"                                          o $ % + @ & * = - - - - - - ; * & @ + % $                                             ",
"                                          + & ; ; ; ; - : : : : : : : : - ; ; ; ; # +                                           ",
"                              o X + + + + > ; ; , < : : 1 - - - - - - : : : < = ; ; # + + + 2 X .                               ",
"                            o % + & & & & ; ; 3 : : : < = ; ; ; ; ; ; , < : : 1 3 ; ; & & & 4 + 2                               ",
"                            2 + 4 ; ; ; ; = - 1 : : < 5 ; ; ; ; ; ; ; ; 5 6 : : 1 - ; ; ; ; * 4 + $                             ",
"                          + 7 8 ; 5 , 6 : : : : - 3 ; ; ; 5 , , , , 5 ; ; ; 3 6 : : : : < , ; ; > + $                           ",
"                        o + # ; ; < : : : : 6 - ; ; ; ; , < : : : : < = ; ; ; = - 1 : : : : = ; ; + 2 o                         ",
"                      9 % + 8 ; 3 : : : : , 5 ; ; ; ; 3 : : : : : : : 1 3 ; ; ; ; = , : : : 1 3 ; & + % o                       ",
"                    X + + + ; ; - : : : ; ; ; ; ; ; - : : : , ; ; - : : : , ; ; ; ; ; , : : : - ; ; + + +                       ",
"                  X + @ # ; 5 6 : : : 6 ; ; ; ; , < : : - 3 ; ; ; ; 3 6 : : < = ; ; ; = 1 : : : < ; 8 # 7 + o                   ",
"                  + @ * ; ; 6 : : : 6 5 ; ; ; 3 : : : < ; ; 3 - - = ; 5 < : : 1 3 ; ; ; = 6 : : : - ; ; 8 + $                   ",
"                9 + # ; ; ; : : : 6 = ; ; ; 3 1 : : < 5 ; = 1 : : 6 = ; 5 6 : : 1 = ; ; ; = : : : : ; ; ; + % o                 ",
"              . 2 # ; ; ; : : : : 3 ; ; ; ; - : : : , ; , : : : : : : ; ; - : : : , ; ; ; ; 6 : : : - ; ; ; @ O .               ",
"              X + ; ; ; = : : : : ; ; ; ; ; - : : : , ; , : : : : : : ; ; - : : : , ; ; ; ; , : : : 6 = ; ; & + X               ",
"            o 2 4 ; ; ; - : : : < ; ; ; ; ; - : : : , ; 5 < : : : : < ; ; - : : : , ; ; ; ; 5 < : : : - ; ; * @ 2               ",
"            X + & ; ; 3 1 : : : , ; ; ; ; ; - : : : , ; ; 5 6 : : < 5 ; ; - : : : , ; ; ; ; ; , : : : 1 = ; ; # +               ",
"            X + & ; ; - : : : : , ; ; ; ; ; ; 3 : : : , ; ; ; ; ; ; ; ; , : : 1 3 ; ; ; ; ; ; , : : : : , ; ; # +               ",
"            X + & ; ; - : : : 6 = ; ; ; ; ; ; ; 6 : : < ; ; ; ; ; ; ; 5 < : : 3 ; ; ; ; ; ; ; = 1 : : : , ; ; # +               ",
"            X + & ; ; - : : : , ; ; ; ; ; ; ; ; , : : : 3 ; ; ; ; ; ; 6 : : : ; ; ; ; ; ; ; ; ; - : : : , ; ; # +               ",
"            X + & ; ; - : : : , ; ; ; ; ; ; ; ; ; , : : : : , ; ; - : : : : , ; ; ; ; ; ; ; ; ; - : : : , ; ; # +               ",
"            X + & ; ; - : : : , ; ; ; ; ; ; ; ; ; = 1 : : : : : : : : : : 6 = ; ; ; ; ; ; ; ; ; - : : : , ; ; # +               ",
"            X + & ; ; - : : : , ; ; ; ; ; ; ; ; ; ; = 6 : : : : : : : : 6 5 ; ; ; ; ; ; ; ; ; ; - : : : , ; ; # +               ",
"            X + & ; ; - : : : 6 = ; ; ; ; ; ; ; ; ; ; = : : : : : : : 6 = ; ; ; ; ; ; ; ; ; ; = 1 : : : , ; ; # +               ",
"            X + & ; ; ; - : : : < ; ; ; ; ; ; ; ; ; ; ; ; = - - - - = ; ; ; ; ; ; ; ; ; ; ; 5 < : : : - ; ; ; # +               ",
"            X + & ; ; ; 3 : : : : = ; ; ; ; ; ; ; ; ; ; ; ; ; ; ; ; ; ; ; ; ; ; ; ; ; ; ; ; < : : : 1 3 ; ; ; # +               ",
"            X + & ; ; ; ; , : : : 1 - = ; ; ; ; ; ; ; ; ; ; ; ; ; ; ; ; ; ; ; ; ; ; ; ; 3 - : : : : = ; ; ; ; # +               ",
"            X + + ; ; ; ; ; , : : : : : : ; ; ; ; ; ; ; ; ; ; ; ; ; ; ; ; ; ; ; ; ; ; : : : : : : ; ; ; ; ; & + +               ",
"              X + ; ; ; ; ; ; 3 1 : : : : : < 5 ; ; ; ; ; ; ; ; ; ; ; ; ; ; ; ; 5 6 : : : : : 1 = ; ; ; ; ; & + X               ",
"              X + # ; ; ; ; ; ; - : : : : : : 6 ; ; ; ; ; ; ; ; ; ; ; ; ; ; ; = 6 : : : : : : - ; ; ; ; ; ; @ + X               ",
"              . 2 + ; ; ; ; ; ; = : : : : : : : - 3 ; ; ; ; ; ; ; ; ; ; ; ; 3 6 : : : : : : 6 = ; ; ; ; ; ; + O .               ",
"                $ + 8 ; ; ; ; ; ; 6 : : : : : : : 6 5 ; ; ; ; ; ; ; ; ; ; = 6 : : : : : : : 3 ; ; ; ; ; ; & + X                 ",
"        0 0     9 + # ; ; ; ; ; ; = 6 : : : : : : : < , ; ; ; ; ; ; ; 5 , 6 : : : : : : : 6 ; ; ; ; ; ; ; + % o                 ",
"          0 0     + 7 8 ; ; ; ; ; ; 5 6 : : : : : : : : - - - - - - - 6 : : : : : : : : < 5 ; ; ; ; ; ; > + $ q                 ",
"  0 0 0   0 0     0 + + & ; ; ; ; ; ; ; : : : : : : : : : : : : : : : : : : : : : : : - ; ; ; ; ; ; ; & + + q q                 ",
"    0 0 0   0     0 2 + + & ; ; ; ; ; ; ; ; 3 - - 6 : : : : : : : : : : : : 6 - - = ; ; ; ; ; ; ; ; 4 + + w q e                 ",
"      0 0           . r + + > ; ; ; ; ; ; ; ; ; ; 5 , 6 : : : : : : : : 6 , 5 ; ; ; ; ; ; ; ; ; ; # + + t q e e                 ",
"                    y u i + 7 8 ; ; ; ; ; ; ; ; ; ; ; = : : : : : : : 6 = ; ; ; ; ; ; ; ; ; ; ; > + + i p e                     ",
"                    a s d + + & ; ; ; ; ; ; ; ; ; ; ; ; ; = - - - - = ; ; ; ; ; ; ; ; ; ; ; ; ; # + f d g e                     ",
"                    h d j + + 4 * ; ; ; ; ; ; ; ; ; ; ; ; ; ; ; ; ; ; ; ; ; ; ; ; ; ; ; ; ; ; * @ + k j l X                     ",
"                  $ z x c + + + @ ; ; ; ; ; ; ; ; ; ; ; ; ; ; ; ; ; ; ; ; ; ; ; ; ; ; ; ; ; 8 @ + + v c c b 9       0 0         ",
"                  + n m m + + + + + # ; ; ; ; ; ; ; ; ; ; ; ; ; ; ; ; ; ; ; ; ; ; ; ; ; ; # + + + + v m m M N     0 0           ",
"                  B V b b + + + + + + + + + + + + @ & * ; ; ; ; ; ; ; ; * & @ + + + + + + + + + + + C b b Z A     0 0   0 0 0   ",
"                    S D + + + + + C b b + b b b + + + @ # # # # # # # # @ + + C b b b C b b + + + + + + F G 0     0   0 0 0     ",
"                    H J K K L + + P I M + M M U Y T + T T + + + + + + b T + T R U M M E M I + + + K K K W             0 0       ",
"                    H Q ! ! ! Z + E E E E E M M ~ ~ ^ P / ( M M M M ( b P ) ~ U M M + E E E C + K ! ! ! _                       ",
"                    y ` ' ! ! Z C n n n M T ] M ( ~ [ { ( [ / M M ( [ b { ~ ~ M M } E / n n ) C K ! ! ' |                       ",
"                       .Q ! ! Z b n [ m ..] T } M / ~ z I n n M M ..n T z [ / M } I M ~ m [ ( b K ! ! Q H                       ",
"                      y | ! ! Z C I / ~ m U } T M M ..n E / / M M ( / E n n M } T ] ..m [ / E C K ! X.| o.                      ",
"                        O.! +.V } } T ] ....M E M M M } P E E E E E E C } M M b E M m U } T M } @.! #.O.                        ",
"                          ! @.) n M } I M U M E } M } C I M M M M M M C C ] M T E M ..] T } / n ^ K B                           ",
"                          Z $.%.&.U M E M M M E P E P T M ( ........( ] T C E + E M M b b M *.&.=.b -.                          ",
"                          + ;.;.;...M E + M E + + + + b n m m m m m m M b + + + + b M + b M :.;.;.;.$                           ",
"                          + &.x m U ] C + >.Z ,.! K + b M ] b b b b ] M b + K ! ,.Z + + T ] ~ m <.&.$                           ",
"                          + 1.n n } C + K ,.! ! ! +.i C } T b b b b T } C L +.! ! ! K L + C / n n v $                           ",
"                          2.P E E C + L ! ! ! ! ! ! ,.i T } U ....( } C i +.! ! ! ! ! +.i + E E E + 3.                          ",
"        0 0         0 0                  .| Q Q ! ! ! 4.E / ~ ;.&.[ / >.4.! ! ' Q Q  .O.                0 0         0 0         ",
"          0 0     0 0                     y  . .Q X.X.' E n m &.<.m n Z ' ' X.`  . .                      0 0     0 0           ",
"  0 0 0   0 0     0 0   0 0 0                   H 5.6.7.P ^ ~ m m [ ^ 8.7.7.5.y                   0 0 0   0 0     0 0   0 0 0   ",
"    0 0 0   0     0   0 0 0                            .2.E M m ..M E 9. .                          0 0 0   0     0   0 0 0     ",
"      0 0             0 0                               0.D T b b C D O.                              0 0             0 0       ",
"                                                        o.q.D + + F q.                                                          ",
"                                                          o.w.X X a o.                                                          "
};
