/* XPM */
static char *_d71e64839b94e77980de8d012ff382duNDLawnGuKohXXQy[] = {
/* columns rows colors chars-per-pixel */
"64 64 229 2 ",
"   c #292929",
".  c #2D2A27",
"X  c #342C28",
"o  c #2E3B2E",
"O  c #2C3529",
"+  c #373728",
"@  c #342B30",
"#  c #3F2F39",
"$  c #2D3934",
"%  c #333433",
"&  c #383938",
"*  c #363C37",
"=  c #613F1D",
"-  c #7E1F23",
";  c #552326",
":  c #4B3A2A",
">  c #45372B",
",  c #573D25",
"<  c #483B34",
"1  c #492728",
"2  c #752125",
"3  c #662427",
"4  c #39551E",
"5  c #3F641C",
"6  c #344724",
"7  c #395A2A",
"8  c #2D493B",
"9  c #354936",
"0  c #2E553D",
"q  c #365736",
"w  c #2A532A",
"e  c #396439",
"r  c #386A39",
"t  c #307030",
"y  c #3E743D",
"u  c #3F7B3F",
"i  c #69411C",
"p  c #794918",
"a  c #43691A",
"s  c #487618",
"d  c #4A492A",
"f  c #58442B",
"g  c #4B4937",
"h  c #564535",
"j  c #455938",
"k  c #555532",
"l  c #6D4B29",
"z  c #674626",
"x  c #754C26",
"c  c #745128",
"v  c #664A38",
"b  c #6A533C",
"n  c #78513A",
"m  c #48643A",
"M  c #4B6D33",
"N  c #656628",
"B  c #543746",
"V  c #4C3441",
"C  c #663B54",
"Z  c #763F5F",
"A  c #2F5542",
"S  c #375A46",
"D  c #354B41",
"F  c #32654C",
"G  c #357649",
"H  c #336D52",
"J  c #357859",
"K  c #474747",
"L  c #575757",
"P  c #535243",
"I  c #765644",
"U  c #6E4847",
"Y  c #426C43",
"T  c #417C41",
"R  c #48784A",
"E  c #567654",
"W  c #726650",
"Q  c #7C4063",
"!  c #696969",
"~  c #646463",
"^  c #767676",
"/  c gray47",
"(  c #73746E",
")  c #911D23",
"_  c #821E23",
"`  c #AE1A21",
"'  c #B75F0D",
"]  c #A65C0F",
"[  c #96760C",
"{  c #BA690B",
"}  c #875425",
"|  c #975A24",
" . c #875D3B",
".. c #865330",
"X. c #A25E22",
"o. c #94633A",
"O. c #A86223",
"+. c #B76924",
"@. c #BD7534",
"#. c #B37039",
"$. c #AF6E36",
"%. c #8A5A14",
"&. c #EE7A01",
"*. c #F07C02",
"=. c #C37739",
"-. c #C2722D",
";. c #C47609",
":. c #854E51",
">. c #956A48",
",. c #8E674C",
"<. c #AD7854",
"1. c #B47C54",
"2. c #B47748",
"3. c #894569",
"4. c #964975",
"5. c #924E66",
"6. c #A24C7F",
"7. c #C47E48",
"8. c #4E8A12",
"9. c #528A13",
"0. c #579613",
"q. c #588F0F",
"w. c #718C0D",
"e. c #6A9916",
"r. c #69A81A",
"t. c #74B41E",
"y. c #7CB51F",
"u. c #79AE1C",
"i. c #6BA221",
"p. c #378859",
"a. c #379254",
"s. c #378A64",
"d. c #389168",
"f. c #399768",
"g. c #3BA86A",
"h. c #3CB76A",
"j. c #3AA95F",
"k. c #428342",
"l. c #458C45",
"z. c #469246",
"x. c #489848",
"c. c #489648",
"v. c #538B55",
"b. c #71934E",
"n. c #71A65C",
"m. c #5B9E60",
"M. c #4C8A6B",
"N. c #778B78",
"B. c #3EC36B",
"V. c #3FD26F",
"C. c #4DCC69",
"Z. c #8B920F",
"A. c #B2880A",
"S. c #88A517",
"D. c #91883B",
"F. c #B4A83C",
"G. c #C7A82B",
"H. c #D9C43F",
"J. c #E0CA3E",
"K. c #BE8258",
"L. c #92AE4F",
"P. c #A1B64E",
"I. c #A88C73",
"U. c #918E5E",
"Y. c #D38547",
"T. c #C88858",
"R. c #D28B56",
"E. c #E6965B",
"W. c #DC9662",
"Q. c #C18860",
"!. c #E79A64",
"~. c #F0A068",
"^. c #D6A57B",
"/. c #B6C14D",
"(. c #96C451",
"). c #E4D443",
"_. c #D0C242",
"`. c #7D7D85",
"'. c #3434CE",
"]. c #3A3AD1",
"[. c #2D2DCA",
"{. c #4C4CD1",
"}. c #4949D7",
"|. c #5757D9",
" X c #4141CF",
".X c #6868D8",
"XX c #7676DA",
"oX c #5C5CE0",
"OX c #7A7AED",
"+X c #6E6EE8",
"@X c #AA4E84",
"#X c #B4518B",
"$X c #BD5492",
"%X c #C45596",
"&X c #CF599E",
"*X c #D55AA2",
"=X c #E25EAB",
"-X c #E860B0",
";X c #979797",
":X c #87878B",
">X c #9797B3",
",X c #A6A7A5",
"<X c #B3B3B3",
"1X c #BCBCBC",
"2X c #B1A9A2",
"3X c #A79380",
"4X c #D2AA88",
"5X c #D0BBAA",
"6X c #EBB994",
"7X c #B0E8B8",
"8X c #A8DCAF",
"9X c #9393D2",
"0X c #ABABCD",
"qX c #9B9BE3",
"wX c #9292E2",
"eX c #8080F0",
"rX c #8C8CE1",
"tX c #ADADE6",
"yX c #C1C1C1",
"uX c #C7C7CB",
"iX c #D5D5D7",
"pX c #C9C9D4",
"aX c #EFE4D9",
"sX c #E8E8E8",
"dX c #E9E9F5",
"fX c #F3F3F5",
"gX c #F6F6F8",
"hX c #F8F8F8",
"jX c #D8D0E0",
/* pixels */
"x.x.x.x.x.x.x.x.x.x.x.x.x.x.x.x.x.x.x.x.x.x.x.x.x.x.x.x.x.x.x.x.x.x.x.x.x.x.x.x.x.x.x.x.x.x.x.x.x.x.x.x.x.x.x.x.x.x.x.x.x.x.x.x.",
"x.x.x.x.x.x.x.x.x.x.x.x.x.x.x.x.x.x.x.x.x.x.x.x.x.x.x.x.z.z.x.x.x.x.x.a.x.x.x.x.x.x.x.x.x.x.x.x.x.x.x.x.x.x.x.x.x.x.x.x.x.x.x.x.",
"x.x.x.x.x.x.x.x.x.x.x.x.x.x.x.x.x.x.x.x.x.x.x.x.c.T 7                   7 u x.x.x.x.x.x.x.x.x.x.x.x.x.x.x.x.x.x.x.x.x.x.x.x.x.x.",
"x.x.x.x.x.x.x.x.x.x.x.x.x.x.x.x.x.x.x.x.x.x.x.x.c.T w                   w k.x.x.x.x.x.x.x.x.x.x.x.x.x.x.x.x.x.x.x.x.x.x.x.x.x.x.",
"x.x.x.x.x.x.x.x.x.x.x.x.x.x.x.x.x.x.x.x.x.x.x.z.k.y 7 O 6 O + + + 6 6 + 7 y k.k.l.l.l.x.x.x.x.x.x.x.x.x.x.x.x.x.x.x.x.x.x.x.x.x.",
"x.x.x.x.x.x.x.x.x.x.x.x.x.x.x.x.x.x.x.x.x.x.z.M e 7 5 5 5 5 a s M s a 7 7 7 q q q r k.x.x.x.x.x.x.x.x.x.x.x.x.x.x.x.x.x.x.x.x.x.",
"x.x.x.x.x.x.x.x.x.x.x.x.x.x.x.x.x.x.x.x.x.x.l.r o 6 5 8.8.8.8.0.t.r.0.9.a + O     9 y x.x.x.x.x.x.x.x.x.x.x.x.x.x.x.x.x.x.x.x.x.",
"x.x.x.x.x.x.x.x.x.x.x.x.x.x.x.x.x.x.x.z.l.p.y 7 6 7 s 8.0.0.r.r.u.t.r.0.9.a 4 7 6 7 e y k.z.x.x.x.x.x.x.x.x.x.x.x.x.x.x.x.x.x.x.",
"x.x.x.x.x.x.x.x.x.x.x.x.x.x.x.x.x.x.x.x.T e 6 5 5 5 8.0.0.r.r.t.t.t.t.r.r.r.9.s s 5 7 9 r l.c.c.x.x.x.x.x.x.x.x.x.x.x.x.x.x.x.x.",
"x.x.x.x.x.x.x.x.x.x.x.x.c.z.z.c.c.c.c.z.r 9 . 4 q.q.8.8.r.r.y.t.y.t.t.t.y.y.y.i.9.s 6 O q T z.z.z.z.x.x.x.x.x.x.x.x.x.x.x.x.x.x.",
"x.x.x.x.x.x.x.x.x.x.x.x.k.y r T l.l.T e 9 O X N Z.Z.w.8.0.r.r.u.t.t.t.r.S.A.A.N a 5 4 4 7 e e e r M a.x.x.x.x.x.x.x.x.x.x.x.x.x.",
"x.x.x.x.x.x.x.x.x.x.x.x.u q 9 e l.k.e o O O + p { { Z.8.8.0.0.r.t.r.r.0.Z.A.A.%.d 6 5 8.a 6 o o O q M x.x.x.x.x.x.x.x.x.x.x.x.x.",
"x.x.x.x.x.x.x.x.x.x.k.k.M j h m T R P V # @ X p { { Z.w.w.w.w.u.S.S.w.w.[ ;.' p X 6 5 8.5 6 . + d g M k.a.z.z.x.x.x.x.x.x.x.x.x.",
"x.x.x.x.x.x.x.x.x.x.q q P W >.b q P L 4.Z 1 X , p %.{ [ A.{ A.A.A.A.A.{ [ %.p ; . 6 s 8.5 6 + v ,.W m q 7 x.x.x.x.x.x.x.x.x.x.x.",
"x.x.x.x.x.x.x.x.x.x.  O k <.W.,.< V 4.*X4.B   . X = ] &.&.&.&.&.G.&.&.&.] = 1 .   6 a 8.5 6 + ,.W.1.b .   x.x.x.x.x.x.x.x.x.x.x.",
"x.x.x.x.x.x.x.x.x.x.    b K.W.>.< V @X=X$X3.C C C n } ' ' ' ' ' &.' ' ' | U C C C h k a 4 O : o.W.1.b     x.x.x.x.x.x.x.x.x.x.x.",
"x.x.x.x.x.x.x.x.x.x.    v 1.W.>.< B 4.-X*X$X@X@X@X4...= = = z = i i = = :.5.6.#X@X3.U 6 O   < >.W.1.b     c.x.x.x.x.x.x.x.x.x.x.",
"x.x.x.x.x.x.x.x.x.x.    b 1.W.,.< B 4.*X=X=X-X-X=X%XQ # @ 1 @ @ @ @ @ 1 Q %X-X-X-X#XC   O . h >.W.1.v     x.x.x.x.x.x.x.x.x.x.x.",
"x.x.x.x.x.x.x.x.x.x.    h 2.Y.2.>.:.5.4.#X&X-X-X=X*X@XQ Q 3.Q Q 3.Z Q Q 6.*X-X-X-X#XC . < b ,.#.Y.>.v     c.x.x.x.x.x.x.x.x.x.x.",
"x.x.x.x.x.x.x.x.x.z.    f | @.=.T.<.:.< 3.%X-X-X=X=X*X%X%X%X%X%X%X%X%X%X&X=X-X-X-X#XC . b <.T.Y.-.| ,     x.x.x.x.x.x.x.x.x.x.x.",
"x.x.x.x.x.x.x.x.x.x.    , | +.@.Y.<.:.< Z 4.%X%X%X%X%X%X%X%X%X%X%X%X%X%X%X%X%X%X%X@XQ < :.1.Y.=.-.} ,     c.x.x.x.x.x.x.x.x.x.x.",
"x.x.x.x.x.x.x.x.x.x.    , } +.O. .:.5.4.3.3.Q Q Q Q Q Q Q Q Q Q Q Q Q Q Q Q Q Q Q 3.3.4.5.:. .o.+.| ,     x.x.x.x.x.x.x.x.x.x.x.",
"x.x.x.x.x.x.x.x.x.x.    , } O.x > B 4.*X@XC @ @ X @ @ X @ @ X % @ % @ @ @ @ @ @ @ B @X&X4.< : c O.} ,     x.x.x.x.x.x.x.x.x.x.x.",
"x.x.x.x.x.x.x.x.x.x.9 9 d c } x z v 3.@X3.U , P ~ ! ! ! L h , , , h U ! ! ! ~ P f C 3.@X3.v f x } x d 6 9 x.x.x.x.x.x.x.x.x.x.x.",
"x.x.x.x.x.x.x.x.x.x.y y m d f l } ..= Z U ....I.2X<X<X1XI.>.| } } >.I.1X1X<X2XI.o.c n C n ..} i f d m y y x.x.x.x.x.x.x.x.x.x.x.",
"x.x.x.x.x.x.x.x.x.x.x.x.M 9 + z | } z @ z %.=.4XaXfXfXsX5XT.@.+.+.T.5XdXfXfXaX4X@.| , X = } | z + 9 y x.x.x.x.x.x.x.x.x.x.x.x.x.",
"x.x.x.x.x.x.x.x.x.x.x.x.k.r 7 k x x z z } X.=.4XaXsX5X;XI.T.Y.Y.Y.T.I.;X1XaXaX4X@.X.} i x x l f 7 r k.x.x.x.x.x.x.x.x.x.x.x.x.x.",
"x.x.x.x.x.x.x.x.x.x.x.x.z.k.T e > , x | X.+.@.4XaXiX:XL ,.K.E.!.E.T.,.L ;XiXaX4X@.+.X.| x , > j M l.z.x.x.x.x.x.x.x.x.x.x.x.x.x.",
"x.x.x.x.x.x.x.x.x.x.x.x.x.x.l.e o > l | O.+.@.^.iX5X^ . I 1.~.~.~.K.b   ( <XaXW.@.O.O.| z > o e z.x.x.x.x.x.x.x.x.x.x.x.x.x.x.x.",
"x.x.x.x.x.x.x.x.x.x.x.x.x.x.z.e o X : z } X.@.W.6X4XW   U T.~.~.~.K.I   W 4X6XW.@.X.} i : X o e z.x.x.x.x.x.x.x.x.x.x.x.x.x.x.x.",
"x.x.x.x.x.x.x.x.x.x.x.x.x.z.l.e o   . . = | +.Y.!.Q.I   n K.~.~.~.K.I   I T.!.Y.+.| z X .   o e z.x.x.x.x.x.x.x.x.x.x.x.x.x.x.x.",
"x.x.x.x.x.x.x.x.x.x.x.x.l.a.M r e 0 0 8 d l | #.Y.2.>.b >.T.~.~.~.T.>.b >.K.Y.$.| c g 8 0 0 r r G M a.x.x.x.x.x.x.x.x.x.x.x.x.x.",
"x.x.x.x.x.x.x.x.x.x.x.x.a.q q G a.a.p.H S g z ..@.7.2.<.T.!.~.~.~.!.T.<.2.=.@...z d S H p.a.a.G 9 e k.z.x.x.x.x.x.x.x.x.x.x.x.x.",
"x.x.x.x.t t x.x.x.x.t t m 9 O G h.h.g.d.H 8 + z | -.Y.E.!.~.!.~.!.!.!.!.Y.@.| l % 8 H d.g.C.h.G O 9 r 8X8X7Xx.x.x.x.x.x.x.x.x.x.",
"x.x.x.x.x.t t x.x.t w e w o $ 0 p.a.s.d.J H S k l ..>.<.1.7.Y.Y.Y.7.2.>. ...c k A F J d.s.a.G m h k j N.N.7Xz.7Xx.x.x.x.x.x.x.x.",
"x.t t t x.t t x.x.t O o O % * $ 8 q J s.s.p.J K > : < P n $.-.-.-.$.n < : > > S J s.s.s.H A 9 k c v g 6 $ M.7X7Xx.x.x.x.x.x.x.x.",
"x.x.t t t x.t x.x.t X   8 K L K . $ S J J s.J S $ & K L I  .| X.O.c d $ 8 6 8 H s.s.s.J S 9 > z c c :     E 7Xt x.x.x.x.x.x.x.x.",
"x.x.x.t t x.x.x.x.x.% @ L :X;X^ g $ D F F S S D $ K / ,XI.W l l z h j F H p.p.a.s.s.F A j f z c } l >     7Xw w x.x.x.x.x.x.x.x.",
"x.x.x.x.x.x.x.x.c.c.& & ^ <XiX;XL & & D & * & & % ~ ,XdX,X! < % X 8 F s.g.h.B.g.d.J A O : l } ..} l >     w a.x.x.x.x.x.x.x.x.x.",
"x.x.x.x.x.x.x.x.x.c.& & ^ yXfXyX@X^ ^ ^ ^ ^ ^ ^ ( ;XuXhX<X! * 9 0 G s.g.h.B.h.g.d.H D   , l } x l f +     w x.x.x.x.x.x.x.x.x.x.",
"x.x.x.x.x.x.x.x.x.x.& & / 0XfXjX7X0XyX1X1X1XyX1X1XuXsXgX<X! g H a.h.h.B.h.g.g.f.f.J 8   , l c z : + X     x.x.x.x.x.x.x.x.x.x.x.",
"x.x.x.x.x.x.x.x.x.x.& & ,.yXgXfXfXfXdXdXdXdXdXdXfXgXfXgX<X! D p.B.C.V.V.h.g.d.d.d.J D . : l c f X X       t x.x.x.x.t t x.x.x.x.",
"x.x.x.x.x.x.x.x.x.x.& & `.yXdXjXtXqXqXqXqXqXqXqXqXtXjXhX<X~ 8 p.B.V.B.h.g.f.d.d.d.H D   + f z v n v +     t t x.x.t t x.x.x.x.x.",
"x.x.x.x.x.x.x.x.c.z.& & N.yXdXtX.X{.|.{.|.{.{.|.|.XXtXfX<X~ D l.B.B.h.g.f.d.d.M.d.J 8   . X :  .2.o.h     t t x.x.t t x.t t t x.",
"x.x.x.x.x.x.x.x.x.x.* & ^ yXdXwX}.[.'.'.].].'.'.[.|.tXfX<X! 9 v.C.C.m.J p.m.m.m.m.R D   @ < k  .2.o.k o O x.t x.x.t x.t t t x.x.",
"x.x.x.x.x.x.x.x.x.x.& & ^ yXsXqX}.[.}.|.|.oX|. X[.|.tXfX<X! K b.P.L.v.A v.b.P.P.P.b.k . f n o. .n b m w w x.x.x.x.x.x.t t x.x.x.",
"x.x.x.x.x.x.x.x.x.x.* * ^ yXdXwX{.].oXOXOXOX+X|.'.|.tXgX,X! g D.H.F.N O N F.).).).F.N . b 2.2.I > 9 M z.z.x.x.x.x.x.x.x.x.x.x.x.",
"x.x.x.x.x.x.x.x.c.c.* * ^ yXdXwX{.].oXeXeXeXOX|.'.{.tXgX<X! g D.H._.D.N D.P./././.L.k X h o.o.b 9 7 p.x.x.x.x.x.x.x.x.x.x.x.x.x.",
"x.x.x.x.x.x.x.x.x.x.& & ^ yXfXqX X].oXeXeXeXOX|.[.|.tXfX<X! g D.H.H._.F.L.n.n.n.n.v.g   < < k j M k.l.x.x.x.x.x.x.x.x.x.x.x.x.x.",
"x.x.x.x.x.x.x.x.x.x.& & ^ 0XsXqX{.].oXeXeXeXOXoX'.|.tXgX<X! g D.H.).J.).P.m.s.s.s.H D @ X . o e z.x.x.x.x.x.x.x.x.x.x.x.x.x.x.x.",
"x.x.x.x.x.x.x.x.x.x.& & U.0XdXwX{.].oXeXeXeXOX|.[.|.tXfX<X! g W L.L.P.P.b.R F S S D : 2 ; X o e l.x.x.x.x.x.x.x.x.x.x.x.x.x.x.x.",
"x.x.x.x.x.x.x.x.x.x.& & / 1XdXqX}.].oXeXeXeX+X|.'.|.tXfX<X! D Y v.m.m.m.E 9 $ $ $ : - ) 2 1 o e z.x.x.x.x.x.x.x.x.x.x.x.x.x.x.x.",
"x.x.x.x.x.x.x.x.x.c.g 9 ( ,XpXwX.X|..X+X+X+X+XoX|..XqXiX;XL * S J J J s.S < 1 1 1 3 _ ) 2 1 O e l.x.x.x.x.x.x.x.x.x.x.x.x.x.x.x.",
"x.x.x.x.x.x.x.x.x.c.G G E N.:X>XqXqX+X{.|.{.|..X9X9X>X:X! P % 8 A A A A < 2 - - - 2 2 2 ; X $ e l.x.x.x.x.x.x.x.x.x.x.x.x.x.x.x.",
"x.x.x.x.x.x.x.x.x.x.z.z.T P L ;XpXtXXX'.[.[. XrXjXuXN.K & %     $       3 ) ` ` ` ) 3       6 r z.x.x.x.x.x.x.x.x.x.x.x.x.x.x.x.",
"x.x.x.x.x.x.x.x.x.x.x.x.k.G K N.,X<X9X.X.X.XXX9X0X,X! % O .             ; _ ) ) ) 2 1   O 9 0 M z.c.x.x.x.x.x.x.x.x.x.x.x.x.x.x.",
"x.x.x.x.x.x.x.x.x.x.x.x.l.k.R E ( @X>XtXtXpXtX>X`.~ D                   . 1 ; ; ; 1 X   9 e G l.c.x.x.x.x.x.x.x.x.x.x.x.x.x.x.x.",
"x.x.x.x.t t x.x.x.x.t t x.x.c.Y 9 ~ ,XdXdXdXiX;XL @ .                             O . O q T x.x.x.x.x.x.t t x.x.x.x.t t x.x.x.x.",
"x.x.x.x.x.t t x.x.t t x.x.c.c.R Y E N.,X,X,X;X^ & @                           % 7 q q q y k.x.x.x.x.x.x.x.t t x.x.t t x.x.x.x.x.",
"x.t t t x.t t x.x.t t x.t t t z.k.R E L E L L D %                             q G k.k.k.l.c.x.x.x.t t t x.t t x.x.t t x.t t t x.",
"x.x.t t t x.t x.x.t x.t t t x.x.x.k.S & & & % %                             O q l.x.x.x.x.x.x.x.x.x.t t t x.t x.x.t x.t t t x.x.",
"x.x.x.t t x.x.x.x.x.x.t t x.x.x.x.k.Y & & & % %                             o e l.x.x.x.x.x.x.x.x.x.x.t t x.x.x.x.x.x.t t x.x.x.",
"x.x.x.x.x.x.x.x.x.x.x.x.x.x.x.x.x.x.x.x.c.c.x.x.x.x.c.c.x.x.x.x.z.c.x.x.x.x.c.x.x.x.x.x.x.x.x.x.x.x.x.x.x.x.x.x.x.x.x.x.x.x.x.x.",
"x.x.x.x.x.x.x.x.x.x.x.x.x.x.x.x.x.x.x.x.x.c.x.x.x.x.x.c.x.x.x.x.x.x.x.x.x.x.x.x.x.x.x.x.x.x.x.x.x.x.x.x.x.x.x.x.x.x.x.x.x.x.x.x."
};
