/* XPM */
static char *_daf258973f242a4fa167f5f75ccbcb6djI0VY4D8597GiyI[] = {
/* columns rows colors chars-per-pixel */
"64 64 228 2 ",
"   c #292928",
".  c #2A2D27",
"X  c #332E2A",
"o  c #382A27",
"O  c #2B332C",
"+  c #2D3B2E",
"@  c #2D3426",
"#  c #3A332A",
"$  c #373727",
"%  c #2B3932",
"&  c #363636",
"*  c #383838",
"=  c #3A3732",
"-  c #3A2D35",
";  c #613E1D",
":  c #572326",
">  c #43362C",
",  c #463729",
"<  c #5C3F25",
"1  c #533E29",
"2  c #553C26",
"3  c #46313E",
"4  c #483A35",
"5  c #543A37",
"6  c #47282C",
"7  c #652225",
"8  c #702929",
"9  c #3A571D",
"0  c #3F661F",
"q  c #2F412F",
"w  c #2C482C",
"e  c #364625",
"r  c #3A5726",
"t  c #2D4539",
"y  c #314531",
"u  c #334C32",
"i  c #3A483A",
"p  c #2E533A",
"a  c #355434",
"s  c #365A36",
"d  c #3A5D3A",
"f  c #3A573B",
"g  c #285928",
"h  c #3A633A",
"j  c #3B6C3B",
"k  c #3C6435",
"l  c #307030",
"z  c #3E743E",
"x  c #3F793F",
"c  c #2F662F",
"v  c #436A1A",
"b  c #467517",
"n  c #557614",
"m  c #5B4229",
"M  c #484736",
"N  c #584535",
"B  c #46543A",
"V  c #4F572C",
"C  c #664528",
"Z  c #754B27",
"A  c #7B5228",
"S  c #7F5227",
"D  c #664B36",
"F  c #79563A",
"G  c #704F37",
"H  c #4A6B27",
"J  c #547A23",
"K  c #4D6C3A",
"L  c #786E32",
"P  c #6C7038",
"I  c #60561A",
"U  c #3E3E47",
"Y  c #593749",
"T  c #4D3542",
"R  c #653A52",
"E  c #6B3D4F",
"W  c #2F5644",
"Q  c #355D46",
"!  c #364D42",
"~  c #32644D",
"^  c #326A4D",
"/  c #367A48",
"(  c #336C51",
")  c #357958",
"_  c #585858",
"`  c #49524D",
"'  c #724F4C",
"]  c #446943",
"[  c #417D41",
"{  c #437445",
"}  c #517149",
"|  c #4B4B66",
" . c #555565",
".. c #515C75",
"X. c #7A4062",
"o. c #784D62",
"O. c #4D6367",
"+. c #626263",
"@. c #68686B",
"#. c #7A7A7A",
"$. c #6A625C",
"%. c #9E1C22",
"&. c #821F23",
"*. c #A21B22",
"=. c #8E4F14",
"-. c #905314",
";. c #AA5A13",
":. c #B4660C",
">. c #895829",
",. c #875325",
"<. c #985A22",
"1. c #895E3B",
"2. c #8F542F",
"3. c #93643F",
"4. c #856E3B",
"5. c #AA6222",
"6. c #B36620",
"7. c #BA6A24",
"8. c #B46F35",
"9. c #9D6019",
"0. c #D77B04",
"q. c #D16C07",
"w. c #E87602",
"e. c #F57701",
"r. c #C87936",
"t. c #C2722C",
"y. c #8A4A56",
"u. c #8B6447",
"i. c #996A46",
"p. c #AC7853",
"a. c #AC7449",
"s. c #87446B",
"d. c #984977",
"f. c #974976",
"g. c #8F4970",
"h. c #A34E7B",
"j. c #C57D45",
"k. c #4B8413",
"l. c #4E8C11",
"z. c #538C14",
"x. c #519111",
"c. c #5C9C15",
"v. c #598F0F",
"b. c #728B0D",
"n. c #6D9618",
"m. c #65A419",
"M. c #69A91A",
"N. c #72B21E",
"B. c #70A418",
"V. c #5B8523",
"C. c #639222",
"Z. c #72AD21",
"A. c #76B420",
"S. c #78B820",
"D. c #6FA821",
"F. c #389A57",
"G. c #358557",
"H. c #388964",
"J. c #3C9467",
"K. c #3BAC69",
"L. c #428342",
"P. c #448B44",
"I. c #479347",
"U. c #489648",
"Y. c #489848",
"T. c #4F8A56",
"R. c #6A9654",
"E. c #74A75B",
"W. c #508070",
"Q. c #479F66",
"!. c #4FB367",
"~. c #60AC5D",
"^. c #3EC76D",
"/. c #3FD26F",
"(. c #40D670",
"). c #93860A",
"_. c #B28307",
"`. c #96913A",
"'. c #CCB83C",
"]. c #899744",
"[. c #8CAE53",
"{. c #AAB74B",
"}. c #B38968",
"|. c #C8834B",
" X c #D7894B",
".X c #C48559",
"XX c #DA8F57",
"oX c #E09050",
"OX c #E49459",
"+X c #CC946A",
"@X c #E89A64",
"#X c #F0A068",
"$X c #B9C34C",
"%X c #CDC947",
"&X c #EAD541",
"*X c #575987",
"=X c #5B6290",
"-X c #6868AB",
";X c #7171B6",
":X c #60649B",
">X c #7474D0",
",X c #7C7CE6",
"<X c #B5518C",
"1X c #BB5391",
"2X c #AD4F86",
"3X c #C9579A",
"4X c #D0599F",
"5X c #D85BA5",
"6X c #E45FAD",
"7X c #E860B0",
"8X c #E660AF",
"9X c #949290",
"0X c #AAAAB5",
"qX c #BABABA",
"wX c #B3B3B3",
"eX c #B6AEA7",
"rX c #9494B3",
"tX c #D0A681",
"yX c #B0E8B8",
"uX c #8787F0",
"iX c #9696EE",
"pX c #B7B7F4",
"aX c #9A9AD3",
"sX c #CCCCF4",
"dX c #F4F4F8",
"fX c #F8F8F8",
"gX c #E9E9EE",
"hX c #D4D0CC",
/* pixels */
"Y.Y.Y.Y.Y.Y.Y.Y.Y.Y.Y.Y.Y.Y.Y.Y.Y.Y.Y.Y.Y.Y.Y.Y.Y.Y.Y.Y.Y.Y.Y.Y.Y.Y.Y.Y.Y.Y.Y.Y.Y.Y.Y.Y.Y.Y.Y.Y.Y.Y.Y.Y.Y.Y.Y.Y.Y.Y.Y.Y.Y.Y.Y.Y.",
"Y.Y.Y.Y.Y.Y.Y.Y.Y.Y.Y.Y.Y.Y.Y.Y.Y.Y.Y.Y.Y.Y.Y.Y.Y.Y.Y.Y.Y.Y.Y.Y.Y.Y.Y.Y.Y.Y.Y.Y.Y.Y.Y.Y.Y.Y.Y.Y.Y.Y.Y.Y.Y.Y.Y.Y.Y.Y.Y.Y.Y.Y.Y.Y.",
"Y.Y.Y.Y.Y.Y.Y.Y.Y.Y.Y.Y.Y.Y.Y.Y.Y.Y.Y.Y.Y.Y.Y.Y.Y.Y.Y.Y.Y.Y.Y.I.Y.Y.Y.Y.Y.Y.Y.Y.Y.Y.Y.Y.Y.Y.Y.Y.Y.Y.Y.Y.Y.Y.Y.Y.Y.Y.Y.Y.Y.Y.Y.Y.",
"Y.Y.Y.Y.Y.Y.Y.Y.Y.Y.Y.Y.Y.Y.Y.Y.Y.Y.Y.Y.Y.Y.Y.Y.Y.Y.Y.Y.Y.Y.Y.I.Y.Y.Y.Y.Y.Y.Y.Y.Y.Y.Y.Y.Y.Y.Y.Y.Y.Y.Y.Y.Y.Y.Y.Y.Y.Y.Y.Y.Y.Y.Y.Y.",
"Y.Y.Y.Y.Y.Y.Y.Y.Y.Y.Y.Y.Y.Y.Y.Y.Y.Y.Y.Y.Y.Y.Y.Y.Y.Y.U.z y               O h I.Y.Y.Y.Y.Y.Y.Y.Y.Y.Y.Y.Y.Y.Y.Y.Y.Y.Y.Y.Y.Y.Y.Y.Y.Y.",
"Y.Y.Y.Y.Y.Y.Y.Y.Y.Y.Y.Y.Y.Y.Y.Y.Y.Y.Y.Y.Y.Y.Y.Y.Y.Y.U.z q   . .       . . h F.Y.Y.Y.Y.Y.Y.Y.Y.Y.Y.Y.Y.Y.Y.Y.Y.Y.Y.Y.Y.Y.Y.Y.Y.Y.",
"Y.Y.Y.Y.Y.Y.Y.Y.Y.Y.Y.Y.Y.Y.Y.Y.Y.Y.Y.Y.Y.Y.Y.Y.Y.P.G.k r e @ e e e e e r k H G.x L.P.Y.Y.Y.Y.Y.Y.Y.Y.Y.Y.Y.Y.Y.Y.Y.Y.Y.Y.Y.Y.Y.",
"Y.Y.Y.Y.Y.Y.Y.Y.Y.Y.Y.Y.Y.Y.Y.Y.Y.Y.Y.Y.Y.Y.Y.Y.I.z r r 0 v v v b V.V.V.V.H r e p h K Y.Y.Y.Y.Y.Y.Y.Y.Y.Y.Y.Y.Y.Y.Y.Y.Y.Y.Y.Y.Y.",
"Y.Y.Y.Y.Y.Y.Y.Y.Y.Y.Y.Y.Y.Y.Y.Y.Y.Y.Y.Y.F.P.I.P.P.B , 9 n v.x.x.m.N.S.S.Z.J $ @ . q j P.I.Y.Y.Y.Y.Y.Y.Y.Y.Y.Y.Y.Y.Y.Y.Y.Y.Y.Y.Y.",
"Y.Y.Y.Y.Y.Y.Y.Y.Y.Y.Y.Y.Y.Y.Y.Y.Y.U.Y.Y.V.j d d k I =.9.:.).b.x.m.Z.S.S.A.C.J H v r r k z I.Y.Y.Y.Y.Y.Y.Y.Y.Y.Y.Y.Y.Y.Y.Y.Y.Y.Y.",
"Y.Y.Y.Y.Y.Y.Y.Y.Y.Y.Y.Y.Y.Y.Y.Y.U.U.Y.Y.^ + . . $ =.q.e._._.).x.m.Z.S.S.S.S.Z.m.x.b r O s P.Y.U.Y.Y.Y.Y.Y.Y.Y.Y.Y.Y.Y.Y.Y.Y.Y.Y.",
"Y.Y.Y.Y.Y.Y.Y.Y.Y.Y.Y.Y.Y.Y.Y.Y.I.F.V.z ` _ Y 3 X =.e.e.e.e.).x.c.m.N.N.S.S.N.N.m.z.9   y k z z z L.Y.Y.Y.Y.Y.Y.Y.Y.Y.Y.Y.Y.Y.Y.",
"Y.Y.Y.Y.Y.Y.Y.Y.Y.Y.Y.Y.Y.Y.Y.Y.C.F.j w ' h.d.Y o =.w.e.e.w.).x.x.x.m.M.N.S.N.N.A.C.0   O + w + u z Y.Y.Y.Y.Y.Y.Y.Y.Y.Y.Y.Y.Y.Y.",
"Y.Y.Y.Y.Y.Y.Y.Y.Y.Y.Y.Y.Y.Y.U.I.G.K ` 3 s.3X3Xs.5 ,.q.q.w.w._.b.b.b.B.M.N.N.N.N.N.C.V   @ @ @ e e k [ P.I.Y.Y.Y.Y.Y.Y.Y.Y.Y.Y.Y.",
"Y.Y.Y.Y.Y.Y.Y.Y.Y.Y.Y.Y.Y.Y.Y.L.h ` o.2X1X5X5X1Xd.y.8 ;.q.e._.:._._._.).m.c.m.c.c.z.r   e 9 b J J H a j P.Y.Y.Y.Y.Y.Y.Y.Y.Y.Y.Y.",
"Y.Y.Y.Y.Y.Y.Y.Y.Y.Y.Y.Y.Y.Y.Y.z t - s.7X7X7X6X6X5Xg.> Z q.e.e.w.e.e._.).v.l.l.l.x.k.9 . 9 k.c.M.N.H @ a x Y.I.Y.Y.Y.Y.Y.Y.Y.Y.Y.",
"Y.Y.Y.Y.Y.Y.Y.Y.Y.Y.Y.Y.Y.Y.Y./ y 3 f.6X7X7X7X7X6X<Xg.y.2.-.-.;.:.w.0.q.:.n v b k.l.0 9 0 l.c.N.Z.C.H H h h h Y.Y.Y.Y.Y.Y.Y.Y.Y.",
"Y.Y.Y.Y.Y.Y.Y.Y.Y.Y.Y.Y.Y.Y.Y.^ u - f.8X7X7X7X7X7X5X5Xd.5 6 , o =.0.e.e._.=.$ 9 b x.x.k.l.x.c.M.N.A.D.J r O O Y.Y.Y.Y.Y.Y.Y.Y.Y.",
"Y.Y.Y.Y.Y.Y.Y.Y.Y.Y.Y.Y.Y.Y.Y.V.d B o.2X2X2X1X5X7X7X7X1Xs.E Y R 2.;.:.:.q.,.D V v b l.x.x.x.c.c.M.A.S.V.e     Y.Y.Y.Y.Y.Y.Y.Y.Y.",
"Y.Y.Y.Y.Y.Y.Y.Y.Y.Y.Y.Y.Y.Y.Y.I.L.] ` Y R Y X.<X7X7X7X5X3X<X<X<Xg.8 ; ; C 1.}.u.V 9 0 x.x.x.x.x.c.M.A.V.e     Y.Y.Y.Y.Y.Y.Y.Y.Y.",
"Y.Y.Y.Y.Y.Y.Y.Y.Y.Y.Y.Y.I.I.P.P.P.[ a     # 5 h.4X3X3X3X3X5X5X7Xd.3 X # N i.@Xp.m @ 9 k.k.l.x.x.c.m.S.V.e     U.Y.Y.Y.Y.Y.Y.Y.Y.",
"Y.Y.Y.Y.Y.Y.Y.Y.Y.Y.Y.Y.U.[ K ~ Q f y   , C Z y.X.X.X.X.X.g.1X7Xd.3 4 ' a..X@Xp.N . e 9 b l.x.x.x.m.S.V.e     Y.Y.Y.Y.Y.Y.Y.Y.Y.",
"Y.Y.Y.Y.Y.Y.Y.Y.Y.Y.Y.Y.I.] i * * = X   < 2.<.2       .   T d.7Xd.3 N p.#X#X#Xa.m     . 9 b x.l.x.m.A.V.e .   Y.Y.Y.Y.Y.Y.Y.Y.Y.",
"Y.Y.Y.Y.Y.Y.Y.Y.Y.Y.P.L.] O...| T = X   D 8.8.C X ` #. .* T d.8Xd.3 D p.#XOX X3.4       e 9 b k.x.z.J H B s s Y.Y.Y.Y.Y.Y.Y.Y.Y.",
"Y.Y.Y.Y.Y.Y.Y.Y.Y.U.P.] ` *X;X-X| &     ' |..XD * #.hX9X_ 3 f.8Xd.3 N p.@X Xr.>.2         @ r v l.v e r K P.L.Y.Y.Y.Y.Y.Y.Y.Y.Y.",
"Y.Y.Y.Y.Y.Y.Y.Y.[ L.{ ` | ;XiX;X..& M N i.+X.XD * 9XgXwX_ T f.8Xd.3 N 8.oXr.7.,.,       . w r 0 v 9 u k G.Y.Y.Y.Y.Y.Y.Y.Y.Y.Y.Y.",
"Y.Y.Y.Y.Y.Y.Y.Y.f f O.=X;XaXsXrX .* ' p..X@X.XD & 9XgXwX_ T d.7Xd.3 1 3.r.t.7.,.6       y j k r r s z G.V.F.Y.Y.Y.Y.Y.Y.Y.Y.Y.Y.",
"Y.Y.Y.Y.Y.Y.Y.Y.* & | -XiXpXdXqX+.4 u.OXXX@X.XF M 9XhXeX$.N f.5Xg.5 2 ,.6.6.5.,.5 - -   w c c a + j Y.Y.Y.Y.Y.Y.Y.Y.Y.Y.Y.Y.Y.Y.",
"Y.Y.Y.Y.Y.Y.Y.Y.* * _ rXpXgXdXqX@.> D u.i.j.j.a.i.}.tX+Xp.u.y.s.E Z ,.9.6.-.Z G y.E Y   w c V.z j x Y.Y.Y.Y.Y.Y.Y.Y.Y.Y.Y.Y.Y.Y.",
"Y.Y.Y.Y.Y.Y.Y.Y.* * +.0XdXdXfXqX@.* & $ C 5.r. X@X|.t.j.XX+X' - Z <.6.6.5.Z 6 E 2X3XE   w G.F.I.I.I.Y.Y.Y.Y.Y.Y.Y.Y.Y.Y.Y.Y.Y.Y.",
"Y.Y.Y.Y.Y.Y.Y.Y.* * +.wXdXfXfXqX@.= N G G ,.>.i.a.8.5.r.j.j.3.< ,.5.6.<.Z 2   Y s.g._ r z V.Y.Y.Y.Y.Y.Y.Y.Y.Y.Y.Y.Y.Y.Y.Y.Y.Y.Y.",
"Y.Y.Y.Y.Y.Y.Y.Y.* * +.wXdXdXfXqX+.> F a.1.m , 5 N >.5.7.7.8.6.<.5.6.<.C , o   - 3 ` B G.P.F.Y.Y.Y.Y.Y.Y.Y.Y.Y.Y.Y.Y.Y.Y.Y.Y.Y.Y.",
"Y.Y.Y.Y.Y.Y.Y.Y.* = +.wXfXfXfXwX .> i.oXi.4   % y C >.<.<.<.<.<.<.<.A M + O   O + u z Y.Y.Y.Y.Y.Y.Y.Y.Y.Y.Y.Y.Y.Y.Y.Y.Y.Y.Y.Y.Y.",
"Y.Y.Y.Y.l l Y.Y.* & +.wXfXfXfXqX$.> 3. X3., % W ^ B m < < < < C < < N ] ~ t . + k z P.Y.Y.Y.Y.Y.Y.Y.Y.yXyXyXY.Y.Y.Y.Y.Y.Y.Y.Y.Y.",
"Y.Y.Y.Y.Y.l l Y.* *  .wXdXdXdXqX+.> u.|.3., t ( H.~ %       . .   o * ( H.W % a x I.Y.Y.Y.Y.Y.Y.Y.yXY.yXyXyXY.yXY.Y.Y.Y.Y.Y.Y.Y.",
"Y.l l l Y.l l Y.* *  .rXpXgXdXqX@.= D 1.D # % ( H.) ~ t O o # m 2 2 M f Q ^ / / j k G.Y.Y.Y.Y.Y.Y.yXyXW.W.W.yXyXY.Y.Y.Y.Y.Y.Y.Y.",
"Y.Y.l l l Y.l Y.& * | -XiXpXdXqX@.& = # X   % ( H.H.H.~ t X m A S S C , % / K.F.p w z Y.Y.Y.Y.Y.Y.g yXO.W.W.yXg Y.Y.Y.Y.Y.Y.Y.Y.",
"Y.Y.Y.l l Y.Y.Y.* * | -X,XpXsXaX@.& .   % t ~ H.K.K.K.) t o C ,.>.>.Z , % G./.F.p + j Y.Y.Y.Y.Y.Y.g g yXyXyXg g Y.Y.Y.Y.Y.Y.Y.Y.",
"Y.Y.Y.Y.Y.Y.Y.Y.& & | -XuXuXiX;X..& O   t ~ H.K.^.^.^.H.p # m >.>.>.Z e @ / ^.F.w + ^ F.Y.Y.Y.Y.Y.Y.Y.g c g Y.Y.Y.Y.Y.Y.Y.Y.Y.Y.",
"Y.Y.Y.Y.Y.Y.Y.Y.i i | =X>X,X,X>X| & X   p T.!.!./././.F.p X m A A A C $ @ G.^.F.K B K V.P.Y.Y.Y.Y.Y.Y.g g g Y.Y.Y.Y.Y.Y.Y.Y.Y.Y.",
"Y.Y.Y.Y.Y.Y.Y.Y.{ { ] O.*X;X,X-X| - O   K ].[.~.K.(.(.F.p X # 1 M 2 , . O ^ K.R.].].H a z P.Y.Y.Y.Y.Y.Y.Y.Y.Y.Y.Y.Y.Y.Y.Y.Y.Y.Y.",
"Y.Y.Y.Y.Y.Y.Y.Y.Y.Y.L.` U =X,X-X| * -   L '.%XE.J.(.(.F.p       . .     . Q H.E.%X'.L   s L.Y.Y.Y.Y.Y.Y.l l Y.Y.Y.Y.l l Y.Y.Y.Y.",
"Y.Y.Y.Y.Y.Y.Y.Y.Y.Y.P.{ Q ..:X*X| &     P '.%X$XE.~.!.H.t X N G F F C > + } [.[.{.].V X s P.Y.Y.Y.Y.Y.Y.Y.l l Y.Y.l l Y.Y.Y.Y.Y.",
"Y.Y.Y.Y.Y.Y.Y.Y.Y.Y.Y.P.L.] ` U * & O   L '.&X&X%X[.Q.) t > 1.|.j.|.i.N $ 4.%X{.E.T.Q   s P.Y.Y.Y.l l l Y.l l Y.Y.l l Y.l l l Y.",
"Y.Y.Y.Y.Y.Y.Y.Y.Y.Y.Y.Y.U.[ B ! f i +   P ].%X$X{.[.E.} i 4 u.oX XoXa.G $ L {.[.T.( W y j P.Y.Y.Y.Y.l l l Y.l Y.Y.l Y.l l l Y.Y.",
"Y.Y.Y.Y.Y.Y.Y.Y.Y.Y.Y.Y.U.P.L.[ [ z u   ` R.E.E.E.[.$X].V , 3.oXoXoXa.D @ } R.T.Q W h z L.Y.Y.Y.Y.Y.Y.l l Y.Y.Y.Y.Y.Y.l l Y.Y.Y.",
"Y.Y.Y.Y.Y.Y.Y.Y.Y.Y.Y.Y.U.U.U.U.U.P.s   W ( H.H.T.[.%X{.V 4 u.j.|.|.i.N O W ) ~ % + j U.Y.Y.Y.Y.Y.Y.Y.Y.Y.Y.Y.Y.Y.Y.Y.Y.Y.Y.Y.Y.",
"Y.Y.Y.Y.Y.Y.Y.Y.Y.Y.Y.Y.Y.Y.U.U.U.P.p   % ! W W Q T.].R.} Q P ' 1.F G > . t W t % & j U.Y.Y.Y.Y.Y.Y.Y.Y.Y.Y.Y.Y.Y.Y.Y.Y.Y.Y.Y.Y.",
"Y.Y.Y.Y.Y.Y.Y.Y.Y.Y.Y.Y.Y.Y.Y.Y.Y.P.s   . .     O ~ H.J.J.) ! O     o             + j U.Y.Y.Y.Y.Y.Y.Y.Y.Y.Y.Y.Y.Y.Y.Y.Y.Y.Y.Y.Y.",
"Y.Y.Y.Y.Y.Y.Y.Y.Y.Y.Y.Y.Y.Y.Y.P.z h y             t ~ ~ ~ Q 5 7 7 7 : o           O a z L.I.Y.Y.Y.Y.Y.Y.Y.Y.Y.Y.Y.Y.Y.Y.Y.Y.Y.Y.",
"Y.Y.Y.Y.Y.Y.Y.Y.Y.Y.Y.Y.Y.Y.Y.x a + O             O % % . > 7 *.*.*.&.:             O + k P.Y.Y.Y.Y.Y.Y.Y.Y.Y.Y.Y.Y.Y.Y.Y.Y.Y.Y.",
"Y.Y.Y.Y.Y.Y.Y.Y.Y.Y.Y.Y.Y.Y.Y.x y                         6 7 *.*.*.8 o                 s P.Y.Y.Y.Y.Y.Y.Y.Y.Y.Y.Y.Y.Y.Y.Y.Y.Y.Y.",
"Y.Y.Y.Y.Y.Y.Y.Y.Y.Y.Y.Y.Y.Y.Y.z w                           o : : 7 : o                 r P.Y.Y.Y.Y.Y.Y.Y.Y.Y.Y.Y.Y.Y.Y.Y.Y.Y.Y.",
"Y.Y.Y.Y.Y.Y.Y.Y.Y.Y.Y.Y.Y.Y.Y.x u .                                                   O c G.Y.Y.Y.Y.Y.Y.Y.Y.Y.Y.Y.Y.Y.Y.Y.Y.Y.Y.",
"Y.Y.Y.Y.Y.Y.Y.Y.Y.Y.Y.Y.Y.Y.Y.P.z a +                                             O u s K I.Y.Y.Y.Y.Y.Y.Y.Y.Y.Y.Y.Y.Y.Y.Y.Y.Y.Y.",
"Y.Y.Y.Y.Y.Y.Y.Y.Y.Y.Y.Y.Y.Y.Y.Y.I.x a                                             + k I.I.U.Y.Y.Y.Y.Y.Y.Y.Y.Y.Y.Y.Y.Y.Y.Y.Y.Y.Y.",
"Y.Y.Y.Y.Y.Y.Y.Y.Y.Y.Y.Y.Y.Y.Y.Y.Y.V./ g u u e O                           . w u g s / Y.Y.Y.Y.Y.Y.Y.Y.Y.Y.Y.Y.Y.Y.Y.Y.Y.Y.Y.Y.Y.",
"Y.Y.Y.Y.l l Y.Y.Y.Y.l l Y.Y.Y.Y.Y.F.G.[ [ [ j y                           + K / x L.I.U.Y.Y.Y.Y.Y.Y.Y.Y.l l Y.Y.Y.Y.l l Y.Y.Y.Y.",
"Y.Y.Y.Y.Y.l l Y.Y.l l Y.Y.Y.Y.Y.Y.Y.Y.Y.Y.Y.[ u                         . k Y.Y.Y.Y.Y.Y.Y.Y.Y.Y.Y.Y.Y.Y.Y.l l Y.Y.l l Y.Y.Y.Y.Y.",
"Y.l l l Y.l l Y.Y.l l Y.l l l Y.Y.Y.Y.Y.Y.Y./ a                         . k F.Y.Y.Y.Y.Y.Y.Y.Y.Y.Y.l l l Y.l l Y.Y.l l Y.l l l Y.",
"Y.Y.l l l Y.l Y.Y.l Y.l l l Y.Y.Y.Y.Y.Y.Y.Y.Y.Y.P.V.Y.Y.Y.Y.Y.Y.Y.Y.Y.Y.Y.Y.Y.Y.Y.Y.Y.Y.Y.Y.Y.Y.Y.Y.l l l Y.l Y.Y.l Y.l l l Y.Y.",
"Y.Y.Y.l l Y.Y.Y.Y.Y.Y.l l Y.Y.Y.Y.Y.Y.Y.Y.Y.Y.Y.I.F.Y.Y.Y.Y.Y.Y.Y.Y.Y.Y.Y.Y.Y.Y.Y.Y.Y.Y.Y.Y.Y.Y.Y.Y.Y.l l Y.Y.Y.Y.Y.Y.l l Y.Y.Y.",
"Y.Y.Y.Y.Y.Y.Y.Y.Y.Y.Y.Y.Y.Y.Y.Y.Y.Y.Y.Y.Y.Y.Y.Y.Y.Y.Y.Y.Y.Y.Y.Y.Y.Y.Y.Y.Y.Y.Y.Y.Y.Y.Y.Y.Y.Y.Y.Y.Y.Y.Y.Y.Y.Y.Y.Y.Y.Y.Y.Y.Y.Y.Y.Y.",
"Y.Y.Y.Y.Y.Y.Y.Y.Y.Y.Y.Y.Y.Y.Y.Y.Y.Y.Y.Y.Y.Y.Y.Y.Y.Y.Y.Y.Y.Y.Y.Y.Y.Y.Y.Y.Y.Y.Y.Y.Y.Y.Y.Y.Y.Y.Y.Y.Y.Y.Y.Y.Y.Y.Y.Y.Y.Y.Y.Y.Y.Y.Y.Y."
};
