/* XPM */
static char *a4036eb94dd14c66cb77ae4391035e665ebnA6fqAQyYaGza[] = {
/* columns rows colors chars-per-pixel */
"64 64 228 2 ",
"   c #292928",
".  c #2A2D27",
"X  c #332E2A",
"o  c #382A27",
"O  c #2B332C",
"+  c #2D3B2E",
"@  c #2D3426",
"#  c #3A332A",
"$  c #373727",
"%  c #2B3932",
"&  c #363636",
"*  c #383838",
"=  c #3A3833",
"-  c #3A2D35",
";  c #613E1D",
":  c #572326",
">  c #43362C",
",  c #46392C",
"<  c #473628",
"1  c #5C3F25",
"2  c #533E29",
"3  c #553C26",
"4  c #46313E",
"5  c #483A35",
"6  c #543A37",
"7  c #47282C",
"8  c #652225",
"9  c #702929",
"0  c #3A571D",
"q  c #3F661F",
"w  c #2F412F",
"e  c #364625",
"r  c #3A5726",
"t  c #2D4539",
"y  c #314531",
"u  c #334C32",
"i  c #3A4839",
"p  c #2E533A",
"a  c #355434",
"s  c #365A36",
"d  c #3A5D3A",
"f  c #3A573B",
"g  c #285828",
"h  c #3A633A",
"j  c #3B6C3B",
"k  c #386634",
"l  c #307030",
"z  c #3E743E",
"x  c #3F793F",
"c  c #436A1A",
"v  c #467517",
"b  c #557614",
"n  c #5B4229",
"m  c #484736",
"M  c #584535",
"N  c #46543A",
"B  c #4F572C",
"V  c #664528",
"C  c #754B27",
"Z  c #7B5228",
"A  c #7F5227",
"S  c #664B36",
"D  c #79563A",
"F  c #704F37",
"G  c #4A6B27",
"H  c #547A23",
"J  c #4D6C3A",
"K  c #786E32",
"L  c #6C7038",
"P  c #60561A",
"I  c #3E3E47",
"U  c #593749",
"Y  c #4D3542",
"T  c #653A52",
"R  c #6B3D4F",
"E  c #2F5644",
"W  c #355C46",
"Q  c #364D42",
"!  c #32644D",
"~  c #326A4D",
"^  c #367A48",
"/  c #336C51",
"(  c #357958",
")  c #585858",
"_  c #49514C",
"`  c #724F4C",
"'  c #446942",
"]  c #417D41",
"[  c #437445",
"{  c #517149",
"}  c #4B4B66",
"|  c #555565",
" . c #515C75",
".. c #7A4062",
"X. c #784D62",
"o. c #4D6367",
"O. c #626263",
"+. c #68686B",
"@. c #7A7A7A",
"#. c #6A625C",
"$. c #9E1C22",
"%. c #821F23",
"&. c #A21B22",
"*. c #8E4F14",
"=. c #905314",
"-. c #AA5A13",
";. c #BB610C",
":. c #A0770B",
">. c #895829",
",. c #875325",
"<. c #9B5A22",
"1. c #935822",
"2. c #895E3B",
"3. c #8F542F",
"4. c #93643F",
"5. c #856E3B",
"6. c #AA6222",
"7. c #B36620",
"8. c #BA6A24",
"9. c #B46F35",
"0. c #9D6019",
"q. c #D77B04",
"w. c #D16C07",
"e. c #E87602",
"r. c #F57701",
"t. c #C2722C",
"y. c #C87936",
"u. c #8A4A56",
"i. c #8B6447",
"p. c #996A46",
"a. c #AC7853",
"s. c #AC7449",
"d. c #87446B",
"f. c #984977",
"g. c #974976",
"h. c #8F4970",
"j. c #A34E7B",
"k. c #C57D45",
"l. c #4B8413",
"z. c #4E8C11",
"x. c #538C14",
"c. c #519111",
"v. c #5C9C15",
"b. c #598F0F",
"n. c #728B0D",
"m. c #6D9618",
"M. c #65A419",
"N. c #69A91A",
"B. c #72B21E",
"V. c #70A418",
"C. c #5B8523",
"Z. c #639222",
"A. c #72AD21",
"S. c #76B420",
"D. c #78B820",
"F. c #6FA821",
"G. c #389A57",
"H. c #358557",
"J. c #388964",
"K. c #3C9467",
"L. c #3BAC69",
"P. c #428342",
"I. c #448B44",
"U. c #479347",
"Y. c #489648",
"T. c #489848",
"R. c #4F8A56",
"E. c #6A9654",
"W. c #74A75B",
"Q. c #4FB367",
"!. c #57A760",
"~. c #3EC76D",
"^. c #3FD26F",
"/. c #40D670",
"(. c #93860A",
"). c #B98106",
"_. c #A58609",
"`. c #96913A",
"'. c #CCB83C",
"]. c #899744",
"[. c #8CAE53",
"{. c #AAB74B",
"}. c #B38968",
"|. c #C8834B",
" X c #D7894B",
".X c #C48559",
"XX c #DA8F57",
"oX c #E09050",
"OX c #E49459",
"+X c #CC946A",
"@X c #E89A64",
"#X c #F0A068",
"$X c #B9C34C",
"%X c #CDC947",
"&X c #EAD541",
"*X c #575987",
"=X c #5C6193",
"-X c #6868AB",
";X c #7171B6",
":X c #7474D0",
">X c #7C7CE6",
",X c #B5518C",
"<X c #BC5391",
"1X c #AD4F86",
"2X c #C9579A",
"3X c #D0599F",
"4X c #D85BA5",
"5X c #E45FAD",
"6X c #E860B0",
"7X c #E660AF",
"8X c #949290",
"9X c #9494B3",
"0X c #AAAAB5",
"qX c #BABABA",
"wX c #B3B3B3",
"eX c #B6AEA7",
"rX c #D0A681",
"tX c #B0E8B8",
"yX c #8787F0",
"uX c #9595F1",
"iX c #9696E3",
"pX c #B7B7F4",
"aX c #9A9AD3",
"sX c #CCCCF4",
"dX c #F4F4F8",
"fX c #F8F8F8",
"gX c #E9E9EE",
"hX c #D4D0CC",
/* pixels */
"T.T.T.T.T.T.T.T.T.T.T.T.T.T.T.T.T.T.T.T.T.T.T.T.T.T.T.T.T.T.T.T.T.T.T.T.T.T.T.T.T.T.T.T.T.T.T.T.T.T.T.T.T.T.T.T.T.T.T.T.T.T.T.T.",
"T.T.T.T.T.T.T.T.T.T.T.T.T.T.T.T.T.T.T.T.T.T.T.T.T.T.T.T.T.T.T.T.T.T.T.T.T.T.T.T.T.T.T.T.T.T.T.T.T.T.T.T.T.T.T.T.T.T.T.T.T.T.T.T.",
"T.T.T.T.T.T.T.T.T.T.T.T.T.T.T.T.T.T.T.T.T.T.T.T.T.T.T.T.T.T.Y.Y.T.T.T.T.T.T.T.T.T.T.T.T.T.T.T.T.T.T.T.T.T.T.T.T.T.T.T.T.T.T.T.T.",
"T.T.T.T.T.T.T.T.T.T.T.T.T.T.T.T.T.T.T.T.T.T.T.T.T.T.T.T.T.T.Y.Y.T.T.T.T.T.T.T.T.T.T.T.T.T.T.T.T.T.T.T.T.T.T.T.T.T.T.T.T.T.T.T.T.",
"T.T.T.T.T.T.T.T.T.T.T.T.T.T.T.T.T.T.T.T.T.T.T.T.U.h .               y z T.T.T.T.T.T.T.T.T.T.T.T.T.T.T.T.T.T.T.T.T.T.T.T.T.T.T.T.",
"T.T.T.T.T.T.T.T.T.T.T.T.T.T.T.T.T.T.T.T.T.T.T.Y.I.h @ .             y x T.T.T.T.T.T.T.T.T.T.T.T.T.T.T.T.T.T.T.T.T.T.T.T.T.T.T.T.",
"T.T.T.T.T.T.T.T.T.T.T.T.T.T.T.T.T.T.T.T.I.P.] ] x k r m e e e e e @ e k P.I.Y.T.T.T.T.T.T.T.T.T.T.T.T.T.T.T.T.T.T.T.T.T.T.T.T.T.",
"T.T.T.T.T.T.T.T.T.T.T.T.T.T.T.T.T.T.T.T.] s u u a G H C.x.C.H c v q q r a z U.T.T.T.T.T.T.T.T.T.T.T.T.T.T.T.T.T.T.T.T.T.T.T.T.T.",
"T.T.T.T.T.T.T.T.T.T.T.T.T.T.T.T.T.T.T.I.j w . O e H S.D.B.B.v.c.c.b.b 0 $ k I.C.G.U.U.Y.T.T.T.T.T.T.T.T.T.T.T.T.T.T.T.T.T.T.T.T.",
"T.T.T.T.T.T.T.T.T.T.T.T.T.T.T.T.G.C.x k r r c G H Z.B.D.B.B.M.c.n.(.:.-.=.S d d d j H.T.Y.Y.T.T.T.T.T.T.T.T.T.T.T.T.T.T.T.T.T.T.",
"T.T.T.T.T.T.T.T.T.T.T.T.T.T.T.T.Y.H.s @ r v c.M.A.S.B.D.D.B.v.c._.).e.e.w.*.o   . % k T.G.Y.T.T.T.T.T.T.T.T.T.T.T.T.T.T.T.T.T.T.",
"T.T.T.T.T.T.T.T.T.T.T.T.Y.P.z z z k u   0 x.N.B.D.S.B.B.B.N.v.c.(.e.r.r.e.*.o 4 U ` ' J C.U.T.T.T.T.T.T.T.T.T.T.T.T.T.T.T.T.T.T.",
"T.T.T.T.T.T.T.T.T.Y.Y.Y.U.J u w w w @   B Z.B.B.D.D.D.B.v.v.c.c.(.).r.r.e.*.o U g.1X) + h I.U.T.T.T.T.T.T.T.T.T.T.T.T.T.T.T.T.T.",
"T.T.T.T.T.T.T.T.T.Y.Y.I.] k u e $ @ .   q v.B.B.S.N.B.V.m.n.n.n.).r.r.w.;.,.6 d.<X2Xd.Y _ [ H.G.T.T.T.T.T.T.T.T.T.T.T.T.T.T.T.T.",
"T.T.T.T.T.T.T.Y.T.T.I.j s G H H c q e   r x.v.M.v.M.v.n._.).).).).r.e.-.,.u.f.<X4X4X<X1X` _ k C.T.T.T.T.T.T.T.T.T.T.T.T.T.T.T.T.",
"T.T.T.T.T.T.T.Y.Y.Y.] a @ G N.N.v.l.0 . 0 v c.z.x.c.c.(.q.r.r.r.r.r.;.C 7 d.4X6X6X6X6X7Xg.4 w x T.T.T.T.T.T.T.T.T.T.T.T.T.T.T.T.",
"T.T.T.T.T.T.T.T.J h h G G Z.A.N.v.z.q 0 v l.l.v c b _.).e.e.;.=.-.=.*.u.d.,X5X6X6X6X7X7Xh.4 u z T.T.T.T.T.T.T.T.T.T.T.T.T.T.T.T.",
"T.T.T.T.T.T.T.T.O O r H F.A.S.N.v.z.z.l.z.z.v 0 $ =.w.e.r.w.*.7 o o R j.4X5X5X5X6X6X6X5Xg.4 y z T.T.T.T.T.T.T.T.T.T.T.T.T.T.T.T.",
"T.T.T.T.T.T.T.T.    e H S.S.N.M.v.c.z.c.l.v c B F 1.-.;.;.-.3.T R U ..<X5X5X5X4X<X1X,X1XX.m d ] T.T.T.T.T.T.T.T.T.T.T.T.T.T.T.T.",
"T.T.T.T.T.T.T.T.    e C.S.N.M.v.c.c.c.c.c 0 B p.s.4.V ; ; C d.,X,X,X2X5X6X6X5X<X..U U U _ [ P.U.T.T.T.T.T.T.T.T.T.T.T.T.T.T.T.T.",
"T.T.T.T.T.T.T.T.    e C.B.M.c.c.c.z.z.v 0 @ M s.@Xp.M # o Y f.6X4X2X2X2X2X2X2Xf.U - X   a ^ I.I.I.U.Y.Y.T.T.T.T.T.T.T.T.T.T.T.T.",
"T.T.T.T.T.T.T.T.    e x.B.M.c.c.c.z.q 0 e @ M a.#X.Xa.` > 4 f.6X2Xd...........R ,.V <   * f N j ' ^ Y.T.T.T.T.T.T.T.T.T.T.T.T.T.",
"T.T.T.T.T.T.T.T..   e C.B.N.c.c.c.l.0       M a.#X#X@Xa.M Y f.6Xf.4 o         1 1.<.V   O & & & i ' U.T.T.Y.T.T.T.T.T.T.T.T.T.T.",
"T.T.T.T.T.T.T.T.s s N G C.x.c.z.q 0 e       M 4. XOX#Xa.6 Y f.6Xf.4 * O.@.) O M 9.9.V   - * Q }  .o.' P.U.Y.T.T.T.T.T.T.T.T.T.T.",
"T.T.T.T.T.T.T.T.P.P.J k e q z.v 0 @ @       < 3.t. X@Xs.S 4 f.5Xf.4 ) 8XhX@.X S s.|.` . O * } -X;X*Xi h I.T.T.T.T.T.T.T.T.T.T.T.",
"T.T.T.T.T.T.T.T.T.T.H.h y 0 q q 0 w @       < ,.t.y.oXs.6 4 f.5Xf.4 O.wXgX8X& ` .X+Xp.S 5 = | ;XiX;X| o.[ P.P.T.T.T.T.T.T.T.T.T.",
"T.T.T.T.T.T.T.T.T.T.C.H.z k e r k j w .     7 ,.8.t.y.3.6 4 f.6Xf.Y ) wXgX8X& F .XOX.Xa.` = | 0XsXaX;X*Xo.f N T.T.T.T.T.T.T.T.T.",
"T.T.T.T.T.T.T.T.T.T.T.T.U.j w a ^ I.g .   - 2 ,.6.7.8.1.3 6 h.4Xf.6 O.eXhX8Xm ` .X@X@XXXp.5 O.qXgXpXuX-X} & * T.T.T.T.T.T.T.T.T.",
"T.T.T.T.T.T.T.T.T.T.T.T.T.P.k x I.I.s   Y ..u.` C =.7.0.,.C ` d.d.i.a.+X+X}.p.s.s.|.s.i.M 5 +.qXdXsXsX9X| * * T.T.T.T.T.T.T.T.T.",
"T.T.T.T.T.T.T.T.T.T.T.T.T.U.U.U.Y.I.s . ..<X,XR o C 7.7.7.<.V o D .XXX|.|. XOX Xy.6.V X & * +.qXfXdXdX0X| * * T.T.T.T.T.T.T.T.T.",
"T.T.T.T.T.T.T.T.T.T.T.T.T.T.T.T.Y.I.z s ) h.d.Y X 3 Z 1.6.6.,.1 5.|. Xt.7.9.s.p.3.,.Z F M = +.qXfXfXfXwXO.* * T.T.T.T.T.T.T.T.T.",
"T.T.T.T.T.T.T.T.T.T.T.T.T.T.T.T.Y.Y.I.J N _ 4 X   o < V <.7.<.<.7.9.t.8.6.,.M , , n 2.s.D = O.qXfXfXfXwXO.* * T.T.T.T.T.T.T.T.T.",
"T.T.T.T.T.T.T.T.T.T.T.T.T.T.T.T.T.T.T.T.z a + .   O % M A <.0.1.<.<.<.<.1.M y % . 5 p.oXi.< O.qXfXfXfXwXO.* * T.T.T.T.T.T.T.T.T.",
"T.T.T.T.l l T.T.T.T.l l T.T.T.T.T.T.T.T.P.z h + . t ! W m 1 1 n 1 n 1 n n N ! E % , 4. Xi.> ) qXfXfXfXwXO.* * T.T.T.T.T.T.T.T.T.",
"T.T.T.T.T.l l T.T.l l T.T.T.T.T.T.T.Y.T.Y.Y.x a % W H./ y . @ .       . % ! J./ t > 2. X4.> O.qXdXdXdX0X| = * tXT.T.T.T.T.T.T.T.",
"T.l l l T.l l T.T.l l T.l l l T.T.T.Y.G.C.j h ^ ^ ~ ! N m 1 n n < X O t W ( J./ w - S i.S # +.qXdXgXpX9X| * * tXT.T.T.T.T.T.T.T.",
"T.T.l l l T.l T.T.l T.l l l T.T.T.T.T.T.z u p G.L.H.w $ S Z Z A n X t ~ J.J.J./ t   X # - & +.qXgXpXyX;X} * * g T.T.T.T.T.T.T.T.",
"T.T.T.l l T.T.T.T.T.T.l l T.T.T.T.T.T.T.k + p G.^.H.+ < C A >.>.n X t ( L.L.L.J.! % O   O - O.0XsXpXyX-X} * * g T.T.T.T.T.T.T.T.",
"T.T.T.T.T.T.T.T.T.T.T.T.T.T.T.T.T.T.T.T.z + a G.~.H.+ < C >.>.>.V $ p G.~.~.L.L.J.! t   - &  .:XuXyXyX-X} & = T.T.T.T.T.T.T.T.T.",
"T.T.T.T.T.T.T.T.T.T.T.T.T.T.T.T.T.U.I.H.k m J G.~.^ @ $ V C Z C n X E G.^.^.^.Q.Q.R.Q   O & } -X>X>X:X=X} O i T.T.T.T.T.T.T.T.T.",
"T.T.T.T.T.T.T.T.T.T.T.T.T.T.T.T.T.U.x s J `.].E.L.! O . < 2 2 2 # . a G.^.^.L.Q.[.[.S   X & } -X>X;X*X .[ J [ T.T.T.T.T.T.T.T.T.",
"T.T.T.T.T.T.T.T.T.T.T.T.T.T.T.T.G.C.p   K '.$XW.R.! O               p G.^.Q.K.W.%X%XK   O * } :X:X*XI f k l T.T.T.T.l l T.T.T.T.",
"T.T.T.T.T.T.T.T.T.T.T.T.T.T.T.T.T.C.E   J ].{.[.W.J @ > S D D F M X p H.L.Q.[.{.%X'.K   O - I *X=X .' z H.l l T.T.l l T.T.T.T.T.",
"T.T.T.T.T.T.T.T.T.T.T.T.T.T.T.T.T.H.s O Q R.!.$X%X5.$ M p.|.k.|.2.> t ( Q.[.%X%X&X'.K   O - I _ _ W k l Y.l l T.T.l l T.l l l T.",
"T.T.T.T.T.T.T.T.T.T.T.T.T.T.T.T.T.I.h u W / R.[.{.K = S s.oXoXoX4.> f { W.{.{.%X%X{.L   O i N Q Q [ l l l T.l T.T.l T.l l l T.T.",
"T.T.T.T.T.T.T.T.T.T.T.T.T.T.T.T.T.Y.P.^ h p N R.E.{ & S s.oXoXOX4.> M ].$X[.W.W.W.R.'   u ~ ] ^ ] U.Y.l l T.T.T.T.T.T.l l T.T.T.",
"T.T.T.T.T.T.T.T.T.T.T.T.T.T.T.T.T.T.T.T.J + + ! ( E . M s.k.k.k.i.m B `.%X[.J.H.( / Q   s H.T.T.T.T.Y.Y.T.T.T.T.T.T.T.T.T.T.T.T.",
"T.T.T.T.T.T.T.T.T.T.T.T.T.T.T.T.T.T.Y.Y.j + % t E t   > S 2.D ,.J _ [ E.W.E.W E W E %   s C.T.T.T.T.T.Y.T.T.T.T.T.T.T.T.T.T.T.T.",
"T.T.T.T.T.T.T.T.T.T.T.T.T.T.T.T.T.T.T.T.j $     .               E ( K.J.H.!     . .     a I.T.T.T.T.T.T.T.T.T.T.T.T.T.T.T.T.T.T.",
"T.T.T.T.T.T.T.T.T.T.T.T.T.T.T.T.T.U.H.k a @           o : 8 8 8 5 W / / ! %             y h x I.T.T.T.T.T.T.T.T.T.T.T.T.T.T.T.T.",
"T.T.T.T.T.T.T.T.T.T.T.T.T.T.T.T.T.I.h w O .           7 $.&.&.&.9 * % % % O             O + a x T.T.T.T.T.T.T.T.T.T.T.T.T.T.T.T.",
"T.T.T.T.T.T.T.T.T.T.T.T.T.T.T.T.Y.I.s                 : 8 $.$.&.9 o                         u z T.T.T.T.T.T.T.T.T.T.T.T.T.T.T.T.",
"T.T.T.T.T.T.T.T.T.T.T.T.T.T.T.T.G.U.s                   : : : : 7                           y z T.T.T.T.T.T.T.T.T.T.T.T.T.T.T.T.",
"T.T.T.T.T.T.T.T.T.T.T.T.T.T.T.T.C.H.k O                                                   @ u x T.T.T.T.T.T.T.T.T.T.T.T.T.T.T.T.",
"T.T.T.T.T.T.T.T.T.T.T.T.T.T.T.T.Y.U.z k w .                                             + a z I.T.T.T.T.T.T.T.T.T.T.T.T.T.T.T.T.",
"T.T.T.T.T.T.T.T.T.T.T.T.T.T.T.T.Y.Y.U.U.k +                                             r H.I.T.T.T.T.T.T.T.T.T.T.T.T.T.T.T.T.T.",
"T.T.T.T.T.T.T.T.T.T.T.T.T.T.T.T.T.T.T.T.^ s r a u +                             y u u r z I.T.T.T.T.T.T.T.T.T.T.T.T.T.T.T.T.T.T.",
"T.T.T.T.l l T.T.T.T.l l T.T.T.T.T.T.T.T.I.P.H.J z p .                         @ j ] J H.H.U.T.T.T.T.T.T.l l T.T.T.T.l l T.T.T.T.",
"T.T.T.T.T.l l T.T.l l T.T.T.T.T.T.T.T.T.T.T.T.T.U.k .                         y ] T.T.T.Z.T.T.T.T.T.T.T.T.l l T.T.l l T.T.T.T.T.",
"T.l l l T.l l T.T.l l T.l l l T.T.T.T.T.T.T.T.T.I.k .                         u ] T.T.T.G.T.T.T.T.l l l T.l l T.T.l l T.l l l T.",
"T.T.l l l T.l T.T.l T.l l l T.T.T.T.T.T.T.T.T.T.T.T.T.T.T.T.T.T.T.T.T.T.U.T.T.T.T.T.T.T.T.T.T.T.T.T.l l l T.l T.T.l T.l l l T.T.",
"T.T.T.l l T.T.T.T.T.T.l l T.T.T.T.T.T.T.T.T.T.T.T.T.T.T.T.T.T.T.T.T.T.T.T.T.T.T.T.T.T.T.T.T.T.T.T.T.T.l l T.T.T.T.T.T.l l T.T.T.",
"T.T.T.T.T.T.T.T.T.T.T.T.T.T.T.T.T.T.T.T.T.T.T.T.T.T.T.T.T.T.T.T.T.T.T.T.T.T.T.T.T.T.T.T.T.T.T.T.T.T.T.T.T.T.T.T.T.T.T.T.T.T.T.T.",
"T.T.T.T.T.T.T.T.T.T.T.T.T.T.T.T.T.T.T.T.T.T.T.T.T.T.T.T.T.T.T.T.T.T.T.T.T.T.T.T.T.T.T.T.T.T.T.T.T.T.T.T.T.T.T.T.T.T.T.T.T.T.T.T."
};
