/* XPM */
static char *_e1bd5672c574d42dd599cffefcb8cff1NG3zPv8jIB4Mg30[] = {
/* columns rows colors chars-per-pixel */
"64 64 231 2 ",
"   c #282928",
".  c #2A2B27",
"X  c #322C26",
"o  c #332B29",
"O  c #2C362C",
"+  c #2E3B2E",
"@  c #2E3725",
"#  c #3C322A",
"$  c #343826",
"%  c #3B2E36",
"&  c #3F2F38",
"*  c #2C3832",
"=  c #373936",
"-  c #55391F",
";  c #42352A",
":  c #4A3927",
">  c #513D2A",
",  c #583D26",
"<  c #433931",
"1  c #48313E",
"2  c #4B3D33",
"3  c #4B2D2A",
"4  c #6B2D2E",
"5  c #3B581D",
"6  c #374F1F",
"7  c #3D631F",
"8  c #364526",
"9  c #385728",
"0  c #2D483A",
"q  c #3A443B",
"w  c #354A34",
"e  c #345334",
"r  c #3A593A",
"t  c #2B502E",
"y  c #2F692F",
"u  c #396339",
"i  c #3A6B39",
"p  c #307030",
"a  c #3D723D",
"s  c #3F7A3F",
"d  c #3B612A",
"f  c #734C18",
"g  c #406719",
"h  c #436C19",
"j  c #4B7518",
"k  c #48482D",
"l  c #59452B",
"z  c #444834",
"x  c #5A4635",
"c  c #475536",
"v  c #585639",
"b  c #4D542B",
"n  c #644628",
"m  c #684727",
"M  c #744E28",
"N  c #764A25",
"B  c #7C5329",
"V  c #654C38",
"C  c #77573B",
"Z  c #6A5734",
"A  c #45663A",
"S  c #4E6F2C",
"D  c #6F6C39",
"F  c #505D1B",
"G  c #583749",
"H  c #683B56",
"J  c #6B3C54",
"K  c #783F61",
"L  c #2E5241",
"P  c #365A47",
"I  c #344A40",
"U  c #35654A",
"Y  c #357858",
"T  c #377745",
"R  c #494949",
"E  c #464343",
"W  c #5B5447",
"Q  c #575655",
"!  c #525144",
"~  c #744440",
"^  c #7B5845",
"/  c #655658",
"(  c #406A40",
")  c #446444",
"_  c #417C41",
"`  c #427442",
"'  c #547153",
"]  c #6A6A6A",
"[  c #636563",
"{  c #787879",
"}  c #6B7D6B",
"|  c #636964",
" . c #854C16",
".. c #905413",
"X. c #AA5A13",
"o. c #92790E",
"O. c #AA6E0B",
"+. c #834D2B",
"@. c #855224",
"#. c #845628",
"$. c #8A592A",
"%. c #8A5423",
"&. c #965922",
"*. c #9B5B22",
"=. c #895C36",
"-. c #A35F21",
";. c #8A613D",
":. c #8E6C3A",
">. c #AB6222",
",. c #B66822",
"<. c #BE702D",
"1. c #AB6B36",
"2. c #D57106",
"3. c #C67A3B",
"4. c #EE7502",
"5. c #885556",
"6. c #8B504D",
"7. c #956948",
"8. c #8E694C",
"9. c #AA7552",
"0. c #B97D55",
"q. c #B37748",
"w. c #86446B",
"e. c #894669",
"r. c #974976",
"t. c #904E67",
"y. c #975B78",
"u. c #C17D45",
"i. c #A31C22",
"p. c #529211",
"a. c #5B9816",
"s. c #508713",
"d. c #738E0F",
"f. c #68A81A",
"g. c #74B41E",
"h. c #79AE1C",
"j. c #73B120",
"k. c #619022",
"l. c #389055",
"z. c #3DAA5F",
"x. c #389465",
"c. c #3CB769",
"v. c #3BAC68",
"b. c #438443",
"n. c #458D45",
"m. c #479247",
"M. c #489648",
"N. c #489848",
"B. c #548553",
"V. c #77944A",
"C. c #76A656",
"Z. c #569C61",
"A. c #6E8770",
"S. c #48AC62",
"D. c #3FCE6E",
"F. c #4FD16A",
"G. c #92890B",
"H. c #9D940F",
"J. c #B18F0D",
"K. c #928B38",
"L. c #B6A63D",
"P. c #96A524",
"I. c #D88306",
"U. c #D1BD3C",
"Y. c #E7D03F",
"T. c #BC8258",
"R. c #96AD4E",
"E. c #99836F",
"W. c #AC8B72",
"Q. c #AAAC44",
"!. c #C88348",
"~. c #D48749",
"^. c #CC8959",
"/. c #D78F59",
"(. c #E39356",
"). c #DD9763",
"_. c #E99C65",
"`. c #F0A068",
"'. c #A3C751",
"]. c #E6D442",
"[. c #CCCA44",
"{. c #2B2BC9",
"}. c #3131CC",
"|. c #3B3BD1",
" X c #4B4BD2",
".X c #4C4CD8",
"XX c #5757DA",
"oX c #6565D8",
"OX c #7070D9",
"+X c #7C7CDC",
"@X c #5E5EE0",
"#X c #7373EA",
"$X c #6A6AE6",
"%X c #B3518A",
"&X c #BD5391",
"*X c #A74D82",
"=X c #C45697",
"-X c #D259A0",
";X c #DD5DA9",
":X c #E25FAC",
">X c #E860B0",
",X c #888889",
"<X c #959695",
"1X c #8F8E96",
"2X c #A0A0A0",
"3X c #ACACAF",
"4X c #B4B4B4",
"5X c #BBBABA",
"6X c #ACA9AD",
"7X c #9E9E97",
"8X c #DAB391",
"9X c #F0BC97",
"0X c #A6D9AD",
"qX c #B0E8B8",
"wX c #8F8FCA",
"eX c #AEAED2",
"rX c #9D9DE3",
"tX c #9494E3",
"yX c #8080F0",
"uX c #B4B4E9",
"iX c #DFDFDF",
"pX c #D5D5D5",
"aX c #C8C8CA",
"sX c #EBDBCF",
"dX c #C5C5EC",
"fX c #D6D6F0",
"gX c gray92",
"hX c #F5F2EF",
"jX c #EFEFF6",
"kX c #E7E7F4",
"lX c #F3F3F4",
/* pixels */
"N.N.N.N.N.N.N.N.N.N.N.N.N.N.N.N.N.N.N.N.N.N.N.N.N.N.N.N.N.N.N.N.N.N.N.N.N.N.N.N.N.N.N.N.N.N.N.N.N.N.N.N.N.N.N.N.N.N.N.N.N.N.N.N.",
"N.N.N.N.N.N.N.N.N.N.N.N.N.N.N.N.N.N.N.N.N.N.N.N.N.N.m.m.n.l.n.n.n.n.n.n.m.m.N.N.N.N.N.N.N.N.N.N.N.N.N.N.N.N.N.N.N.N.N.N.N.N.N.N.",
"N.N.N.N.N.N.N.N.N.N.N.N.N.N.N.N.N.N.N.N.N.N.N.N.N.N.b.a u u u 9 i u u u i n.N.N.N.N.N.N.N.N.N.N.N.N.N.N.N.N.N.N.N.N.N.N.N.N.N.N.",
"N.N.N.N.N.N.N.N.N.N.N.N.N.N.N.N.N.N.N.N.N.N.N.N.N.N.a e O O O @ @ @ O O e a N.N.N.N.N.N.N.N.N.N.N.N.N.N.N.N.N.N.N.N.N.N.N.N.N.N.",
"N.N.N.N.N.N.N.N.N.N.N.N.N.N.N.N.N.N.N.N.N.N.m.m.n.s i 9 8 8 6 6 8 8 8 8 9 u s s T b.n.N.N.N.N.N.N.N.N.N.N.N.N.N.N.N.N.N.N.N.N.N.",
"N.N.N.N.N.N.N.N.N.N.N.N.N.N.N.N.N.N.N.N.N.N.N.n.a e 9 7 7 7 h j s.k.j j 7 9 e e t u A N.N.N.N.N.N.N.N.N.N.N.N.N.N.N.N.N.N.N.N.N.",
"N.N.N.N.N.N.N.N.N.N.N.N.N.N.N.N.N.N.N.N.N.N.m.b.e @ 6 h p.p.p.a.j.j.f.p.j 9 . . . 8 i m.N.N.N.N.N.N.N.N.N.N.N.N.N.N.N.N.N.N.N.N.",
"N.N.N.N.N.N.N.N.N.N.N.N.N.N.N.N.N.N.N.N.N.b.a i d 5 7 s.p.p.f.f.j.g.f.f.a.S F g 5 9 d i s n.N.N.N.N.N.N.N.N.N.N.N.N.N.N.N.N.N.N.",
"N.N.N.N.N.N.N.N.N.N.N.N.N.N.N.N.N.N.N.N.N.a e 8 5 h s.s.p.f.f.g.g.g.g.g.g.f.f.a.j h 9 + r l.m.N.M.M.N.N.N.N.N.N.N.N.N.N.N.N.N.N.",
"N.N.N.N.N.N.N.N.N.N.N.N.N.m.b.b.n.m.m.n.s d @ $ F d.d.s.p.a.g.g.g.g.g.g.g.P.P.d.s.h 5 8 y a A n.l.n.m.N.N.N.N.N.N.N.N.N.N.N.N.N.",
"N.N.N.N.N.N.N.N.N.N.N.N.N.b.i r a l.n.a e t . ; f J.G.d.p.a.a.f.g.g.j.f.d.H.J...F 5 5 7 7 9 e e 8 i b.N.N.N.N.N.N.N.N.N.N.N.N.N.",
"N.N.N.N.N.N.N.N.N.N.N.N.N.s e . r m.A e . .   : ..4.J.d.p.p.p.a.f.g.f.p.d.I.4...- 8 7 p.7 8       e s N.N.N.N.N.N.N.N.N.N.N.N.N.",
"N.N.N.N.N.N.N.N.N.N.m._ a A W C W A ) Q J G o 3 f X.O.o.G.G.G.G.H.H.H.G.o.O.X.f X 8 7 p.7 6 $ x C Z ` T b.m.M.N.N.N.N.N.N.N.N.N.",
"N.N.N.N.N.N.N.N.N.M.m.T e v 8.T.8.x R e.=XK 1   : -  .O.2.2.2.I.I.I.I.2.O. .- X X @ 7 s.7 @ ; 6.0.8.v w a m.N.N.N.N.N.N.N.N.N.N.",
"N.N.N.N.N.N.N.N.N.N.n.u O v 9._.7.2 G r.>X*XH 1 1 1 N X.2.2.2.2.2.2.2.2.X.+.G G < k F s.7 @ : 7._.9.x O u n.N.N.N.N.N.N.N.N.N.N.",
"N.N.N.N.N.N.N.N.N.N.n.u O x 9._.7.2 G r.>X=X*Xr.r.r.6.+. . . . ...%. . .+.6.r.w.e.e.W 6 6 . k 7._.9.x O i N.N.N.N.N.N.N.N.N.N.N.",
"N.N.N.N.N.N.N.N.N.N.n.u O x 9._.7.2 G r.>X>X;X;X;X;Xr.G # X X X X X X X H r.;X;X;X&XK   . . 2 7._.q.x O u n.m.N.N.N.N.N.N.N.N.N.",
"N.N.N.N.N.N.N.N.N.N.n.u O x q.~.q.C ^ e.*X&X;X>X>X>X=Xe.J J H J H H J J w.&X>X>X>X&X/   < x ^ q./.7.> O u n.N.N.N.N.N.N.N.N.N.N.",
"N.N.N.N.N.N.N.N.N.N.n.u O > =.3.u.0.9.6.G r.=X>X>X>X-X=X%X%X%X%X%X%X%X%X=X-X>X>X>X&XK   V 7.0.3.3.$.> = u n.N.N.N.N.N.N.N.N.N.N.",
"N.N.N.N.N.N.N.N.N.N.n.u O : %.,.3.^.0.^ & K %X-X-X-X-X-X-X-X-X-X-X-X-X-X-X-X-X-X-X%XK & ^ 0.^.3.,.@.> O u m.N.N.N.N.N.N.N.N.N.N.",
"N.N.N.N.N.N.N.N.N.N.n.u @ : @.,.-.7.5.t.w.w.w.w.w.w.w.w.w.w.w.w.w.w.w.w.w.w.w.w.w.w.w.w.t.6.:.1.,.%.: + u n.N.N.N.N.N.N.N.N.N.N.",
"N.N.N.N.N.N.N.N.N.N.n.u O : @.,.+.> W r.;Xr.G % % % % % % % % 1 % % % % % & % & % G r.;Xr.G > @.,.%.: O u m.N.N.N.N.N.N.N.N.N.N.",
"N.N.N.N.N.N.N.N.N.N.m.a e k M %.N , 4 t.%Xe.J > W / [ [ / W > 3 , > W / [ [ [ W l J e.%Xe.V , N %.M k u a m.N.N.N.N.N.N.N.N.N.N.",
"N.N.N.N.N.N.N.N.N.N.m.b._ A b , m @.+.V H ~ +.;.W.4X4X4X6XE.=.+.%.&.E.6X4X4X4XE.:.+.4 H ~ +.@.m , k A A b.m.N.N.N.N.N.N.N.N.N.N.",
"N.N.N.N.N.N.N.N.N.N.N.N.N.A y @ m &.&., X m *.!.8XhXlXhXsX8X3.2.,.3.).iXjXlXhX8X!.&.m X m &.*.n @ e s N.N.N.N.N.N.N.N.N.N.N.N.N.",
"N.N.N.N.N.N.N.N.N.N.N.N.N.n.a r b N N N m %.-.u.8XlXpX4X7XW.u.3.~.!.W.7X4XpXlX8X!.-. .m m f m b e a n.N.N.N.N.N.N.N.N.N.N.N.N.N.",
"N.N.N.N.N.N.N.N.N.N.N.N.N.m.n.b.A ; > N -.>.,.u.9XhX5X{ W 7.).(.(./.7.W 8.5XlX8X!.>.>.-.N > 8 A b.m.m.N.N.N.N.N.N.N.N.N.N.N.N.N.",
"N.N.N.N.N.N.N.N.N.N.N.N.N.m.b.a e @ ; m &.-.>.3.8XsX7XQ < 7.).`.`._.7.< [ 6XsX8X3.,.-.&.M c e i s b.m.N.N.N.N.N.N.N.N.N.N.N.N.N.",
"N.N.N.N.N.N.N.N.N.N.N.N.N.b.i e 8   X : , @.-.3.).9XW.W < 7.)._._.).8.< W W.9X).3.-.N , A l.l.T e u b.N.N.N.N.N.N.N.N.N.N.N.N.N.",
"N.N.N.N.N.N.N.N.N.N.N.N.N.A e .     .   X , ..3.~.(.9.V < 8._.`.`.).7.< x 9._.~.<.&.n . p z.z.Y O e s N.N.N.N.N.N.N.N.N.N.N.N.N.",
"N.N.N.N.N.N.N.N.N.N.M.b.s r k > k > > > > n N %.1.~.q.7.8.0._.`.`._.0.8.7.q.~.1.$.M c L U l.T t O e s N.N.N.N.N.N.N.N.N.N.N.N.N.",
"N.N.N.N.N.N.N.N.N.N.n.A t z l B M M M M N n : , $.3.3.!.^.)._.`.`._.)./.u.3.3.=., q U Y U 0 0 O   e A N.N.N.N.N.N.N.N.N.N.N.N.N.",
"N.N.N.N.N.N.N.N.N.M.n.u @ # l B #.#.#.B M x = z m &.1.T./.(.(.(.(.(./.^.T.1.&.Z q 0 U l.P = # # # 9 A b.l.N.N.N.N.N.N.N.N.N.N.N.",
"N.N.N.N.p p N.N.N.M.y t O $ 2 l M B B m > z P P c n M ^ 8.q.u.u.u.u.1.6.C m n b P U L L z z n l l l e A.7X0XN.N.N.N.N.N.N.N.N.N.",
"N.N.N.N.N.p p N.N.p y u O . % = x M M > . L Y Y P . * & 2 +.>.,.2.-.B ;   . . L Y Y L   2 M #.#.#.m ; q A.0XN.qXN.N.N.N.N.N.N.N.",
"N.p p p N.p p N.N.p y u * E [ { ] C x < o I U P I * R ] { 8.=.#.+.B v ) U L L P U P 0   > M #.$.$.m ; O P ' qXqXN.N.N.N.N.N.N.N.",
"N.N.p p p N.p N.N.p m.e = Q <XaX,X/ k < % = I I = = ] 2X5XE.W > : : i z.z.l.Y P 0 * *   : M %.#.$.m ; O P | 0Xy N.N.N.N.N.N.N.N.",
"N.N.N.p p N.N.N.N.N.m.e = ] 5XlX4X] Q Q Q / Q Q Q Q 1XaXiX<XR = * t l.c.c.x.Y P z < < ; l M B #.#.m # q A.0Xt y N.N.N.N.N.N.N.N.",
"N.N.N.N.N.N.N.N.N.N.m.) q ] 5XlXpX3X2X2X2X2X2X2X2X2X0XiXiX<X! I T l.x.v.x.Y P ! ^ ;.;.;.C l l N #.m ; . t t l.N.N.N.N.N.N.N.N.N.",
"N.N.N.N.N.N.N.N.N.M.m.( I ] 4XlXhXgXgXgXgXgXgXgXgXgXjXlXiX<XR U l.D.c.x.l.L * C q.~.~.~.7.> # n #.m # . + t N.N.N.N.N.N.N.N.N.N.",
"N.N.N.N.N.N.N.N.N.N.m.( q ] 4XlXfXdXuXuXuXuXuXuXuXuXdXkXiX<XR U z.D.c.x.Y 0 . C u.(.(.~.7.> o : m b 9 t p N.N.N.N.N.N.N.N.N.N.N.",
"N.N.N.N.N.N.N.N.N.N.m.( q ] 4XlXuX+XoXoXoXoXoXoXoXoXrXfXiX1X! U z.D.c.x.Y 0 o C u.(.(.(.7.> o # ; z A b.p p N.N.N.N.p p N.N.N.N.",
"N.N.N.N.N.N.N.N.N.N.m.( q ] 4XjXrX X{.{.}.}.}.}.{.{.OXdXiX<XR ( S.F.c.Z.Y r < =.q.!.!.~.;.2   . O e s N.N.p p N.N.p p N.N.N.N.N.",
"N.N.N.N.N.N.N.N.N.N.m.( q ] 4XjXrX X}. XXX.XXX X|.{.OXuXiX<XR ) C.'.Z.U ` D :.:.;.C ;.=.x # O w u t p p N.p p N.N.p p N.p p p N.",
"N.N.N.N.N.N.N.N.N.N.m.A q ] 4XjXrX X|.XX#X#X#X$X.X{.OXdXiX1XR D Q.[.K.8 b K.U.K.v ; # # % . O u b.m.p p p N.p N.N.p N.p p p N.N.",
"N.N.N.N.N.N.N.N.N.N.m.) q ] 4XjXrX X|.@XyXyXyX#X.X{.OXdXiX1XR D L.Y.L.D D Q.Q.V.c *         + u m.N.m.p p N.N.N.N.N.N.p p N.N.N.",
"N.N.N.N.N.N.N.N.N.N.n.T q ] 4XjXrX X|.@XyXyXyX#X.X{.OXdXiX<XR D L.].U.L.Q.R.C.B.Y P 0       * i m.N.N.N.N.N.N.N.N.N.N.N.N.N.N.N.",
"N.N.N.N.N.N.N.N.N.N.m.A q ] 4XlXrX X|.@XyXyXyX#X.X{.OXdXiX<XR D L.].].].Q.C.x.x.x.Y I o .   + i m.N.N.N.N.N.N.N.N.N.N.N.N.N.N.N.",
"N.N.N.N.N.N.N.N.N.N.m.( q ] 4XjXrX X|.@XyXyXyX$X.X{.OXdXiX<XP v R.R.R.R.R.' L L e : 3 4 3 o O i m.N.N.N.N.N.N.N.N.N.N.N.N.N.N.N.",
"N.N.N.N.N.N.N.N.N.N.m.( q ] 4XjXrX X|.@XyXyXyX#X.X}.OXdXiX<XR ) ' Z.Z.Z.l.P *   O 3 4 i.4 3 + u m.N.N.N.N.N.N.N.N.N.N.N.N.N.N.N.",
"N.N.N.N.N.N.N.N.N.N.m.` r | 2XaXtXOXXX@X$X$X$X$XoXXX+XeXeXy.E I U Y Y Y P 0       3 4 i.4 3 + i m.N.N.N.N.N.N.N.N.N.N.N.N.N.N.N.",
"N.N.N.N.N.N.N.N.N.N.M.b.T ' } ,X1XeXtXOX.X.X.XXX+XeXwX1X{ Q * = L L L L 0 *       o 3 4 3 o + i m.N.N.N.N.N.N.N.N.N.N.N.N.N.N.N.",
"N.N.N.N.N.N.N.N.N.N.N.N.N._ ) < ,XpXdX+X{.{.{. XrXjX3X] = o                                 + i m.N.N.N.N.N.N.N.N.N.N.N.N.N.N.N.",
"N.N.N.N.N.N.N.N.N.N.N.N.N.n.` ) A.<X6XwX+X+X+XwXwX3X,XQ   *                                 + u m.N.N.N.N.N.N.N.N.N.N.N.N.N.N.N.",
"N.N.N.N.N.N.N.N.N.N.N.N.N.m.n.b.' | { 6XdXdXdXuX1X] Q =                                     + d m.N.N.N.N.N.N.N.N.N.N.N.N.N.N.N.",
"N.N.N.N.N.N.N.N.N.N.N.N.N.M.M.m.T r | 7XpXpXpX5XA.= o                                   . + w i N.N.N.N.N.N.N.N.N.N.N.N.N.N.N.N.",
"N.N.N.N.N.N.N.N.N.N.N.N.N.N.N.M.b.` ' A.,X,X,X{ Q o                                     + e a l.N.N.N.N.N.N.N.N.N.N.N.N.N.N.N.N.",
"N.N.N.N.p p N.N.N.N.p p N.N.N.N.M.M.b.) q G E & *                                       e s m.M.N.N.N.N.p p N.N.N.N.p p N.N.N.N.",
"N.N.N.N.N.p p N.N.p p N.N.N.N.N.N.N.n.` r u c r *                               t e e r i n.M.N.N.N.N.N.N.p p N.N.p p N.N.N.N.N.",
"N.p p p N.p p N.N.p p N.p p p N.M.M.m.n.l.A b.T e                             * a s s A n.m.M.M.N.p p p N.p p N.N.p p N.p p p N.",
"N.N.p p p N.p N.N.p N.p p p N.N.N.N.N.N.N.N.m.n.u * O O O O O O O O + $ O * O u n.m.N.N.N.N.N.N.N.N.p p p N.p N.N.p N.p p p N.N.",
"N.N.N.p p N.N.N.N.N.N.p p N.N.N.N.N.N.N.N.N.N.n._ u u u u u u u u u u y y r u T n.N.N.N.N.N.N.N.N.N.N.p p N.N.N.N.N.N.p p N.N.N.",
"N.N.N.N.N.N.N.N.N.N.N.N.N.N.N.N.N.N.N.N.N.N.N.N.m.n.n.n.n.m.n.n.n.n.n.n.n.n.l.m.N.N.N.N.N.N.N.N.N.N.N.N.N.N.N.N.N.N.N.N.N.N.N.N.",
"N.N.N.N.N.N.N.N.N.N.N.N.N.N.N.N.N.N.N.N.N.N.N.N.N.N.N.N.N.N.N.N.N.M.N.N.N.N.N.N.N.N.N.N.N.N.N.N.N.N.N.N.N.N.N.N.N.N.N.N.N.N.N.N."
};
