/* XPM */
static char *ffd58b9340cf456ed7f722664dfbb34d33xR0CqvGq8Ee52t[] = {
/* columns rows colors chars-per-pixel */
"64 64 226 2 ",
"   c #292928",
".  c #2C2A27",
"X  c #342D27",
"o  c #312C29",
"O  c #392927",
"+  c #2A312B",
"@  c #2E3B2E",
"#  c #2E3825",
"$  c #3A3529",
"%  c #392D33",
"&  c #2B3A33",
"*  c #3A3F39",
"=  c #353835",
"-  c #2D2F32",
";  c #7F1F23",
":  c #472626",
">  c #582325",
",  c #463728",
"<  c #533B25",
"1  c #553C27",
"2  c #483835",
"3  c #51353B",
"4  c #6A2D29",
"5  c #5D3C1E",
"6  c #3A571E",
"7  c #374F1F",
"8  c #3E631C",
"9  c #2F412F",
"0  c #2B4C2B",
"q  c #354724",
"w  c #3A5627",
"e  c #2D473A",
"r  c #304530",
"t  c #324B32",
"y  c #32493B",
"u  c #2E5139",
"i  c #355435",
"p  c #365B36",
"a  c #395E39",
"s  c #395938",
"d  c #295729",
"f  c #396539",
"g  c #3C6C3B",
"h  c #396734",
"j  c #307030",
"k  c #3D733D",
"l  c #3F793F",
"z  c #2F662F",
"x  c #6E431B",
"c  c #794C17",
"v  c #446B1A",
"b  c #487917",
"n  c #47452C",
"m  c #594128",
"M  c #435926",
"N  c #474935",
"B  c #554234",
"V  c #5C4739",
"C  c #525632",
"Z  c #684626",
"A  c #764B25",
"S  c #7D5328",
"D  c #674C38",
"F  c #755332",
"G  c #456737",
"H  c #496F2B",
"J  c #726835",
"K  c #736D13",
"L  c #3A3A50",
"P  c #4D3443",
"I  c #59364A",
"U  c #663A54",
"Y  c #6C3C57",
"T  c #723E5C",
"R  c #683E42",
"E  c #2E5241",
"W  c #335945",
"Q  c #2E4F40",
"!  c #31654D",
"~  c #3E6245",
"^  c #347255",
"/  c #357C5C",
"(  c #336B51",
")  c #464957",
"_  c #575657",
"`  c #4D4D4D",
"'  c #754758",
"]  c #6E474A",
"[  c #406640",
"{  c #44694B",
"}  c #417B41",
"|  c #4E7148",
" . c #52794B",
".. c #7B6554",
"X. c #535378",
"o. c #475063",
"O. c #7C4465",
"+. c #737377",
"@. c #4D6267",
"#. c #861E23",
"$. c #931D22",
"%. c #8A2224",
"&. c #A0291E",
"*. c #C21B1F",
"=. c #CD3018",
"-. c #8F4E15",
";. c #A35713",
":. c #B2580F",
">. c #8D5522",
",. c #895829",
"<. c #845226",
"1. c #8E5531",
"2. c #95643F",
"3. c #AA6323",
"4. c #B96A23",
"5. c #AC6D39",
"6. c #A3710D",
"7. c #D34811",
"8. c #C8660A",
"9. c #C97706",
"0. c #D97604",
"q. c #E87503",
"w. c #F57700",
"e. c #EF6905",
"r. c #C77937",
"t. c #E0550C",
"y. c #8C5056",
"u. c #996A46",
"i. c #8C6750",
"p. c #AB7348",
"a. c #A87552",
"s. c #B77E56",
"d. c #B07648",
"f. c #88456B",
"g. c #9A4A78",
"h. c #904A6D",
"j. c #A24D7D",
"k. c #CD7F40",
"l. c #4F8D10",
"z. c #4C8413",
"x. c #558919",
"c. c #539311",
"v. c #5B9916",
"b. c #6B8C0D",
"n. c #729213",
"m. c #61A117",
"M. c #65A518",
"N. c #6CAB1B",
"B. c #73B31E",
"V. c #70A719",
"C. c #5C8823",
"Z. c #649322",
"A. c #728536",
"S. c #78B820",
"D. c #77B720",
"F. c #71AB21",
"G. c #379357",
"H. c #378B65",
"J. c #3A9668",
"K. c #3CB66C",
"L. c #3AA46A",
"P. c #428442",
"I. c #458B45",
"U. c #479447",
"Y. c #489748",
"T. c #489848",
"R. c #528A57",
"E. c #779F54",
"W. c #6CA55A",
"Q. c #5B9E60",
"!. c #508070",
"~. c #469865",
"^. c #5FB763",
"/. c #3FCF6F",
"(. c #40D470",
"). c #7CD45F",
"_. c #93870B",
"`. c #B08207",
"'. c #998C36",
"]. c #C6932B",
"[. c #E5CE3F",
"{. c #BB835A",
"}. c #8FAF53",
"|. c #A6BB50",
" X c #AFB94A",
".X c #938F5E",
"XX c #D28953",
"oX c #E09051",
"OX c #E5965B",
"+X c #CD9162",
"@X c #EA9C65",
"#X c #BFD44D",
"$X c #CECB47",
"%X c #EDD641",
"&X c #55568A",
"*X c #5B6191",
"=X c #6C6CB0",
"-X c #6E6EC1",
";X c #7373CC",
":X c #7F7FED",
">X c #A84D83",
",X c #B6528D",
"<X c #BE5492",
"1X c #AD5287",
"2X c #907987",
"3X c #C85799",
"4X c #D0599F",
"5X c #D85BA5",
"6X c #E45FAD",
"7X c #E760AF",
"8X c #E860B0",
"9X c #979595",
"0X c #ABABAB",
"qX c #A5A4A7",
"wX c #B6B6B6",
"eX c #9D9299",
"rX c #B0E8B8",
"tX c #ABABC9",
"yX c #8D8DF0",
"uX c #B2B2F1",
"iX c #8F8FC4",
"pX c #CACACC",
"aX c #CECEF4",
"sX c #EBEBEB",
"dX c #F5F5F8",
"fX c #E0CBB8",
/* pixels */
"T.T.T.T.T.T.T.T.T.T.T.T.T.T.T.T.T.T.T.T.T.T.T.T.T.T.T.T.T.T.T.T.T.T.T.T.T.T.T.T.T.T.T.T.T.T.T.T.T.T.T.T.T.T.T.T.T.T.T.T.T.T.T.T.",
"T.T.T.T.T.T.T.T.T.T.T.T.T.T.T.T.T.T.T.T.T.T.T.T.T.T.T.T.Y.I.I.I.I.I.I.I.I.I.U.Y.T.T.T.T.T.T.T.T.T.T.T.T.T.T.T.T.T.T.T.T.T.T.T.T.",
"T.T.T.T.T.T.T.T.T.T.T.T.T.T.T.T.T.T.T.T.T.T.T.T.T.T.T.T.I.k p p p f p p p f k I.T.T.T.T.T.T.T.T.T.T.T.T.T.T.T.T.T.T.T.T.T.T.T.T.",
"T.T.T.T.T.T.T.T.T.T.T.T.T.T.T.T.T.T.T.T.T.T.T.T.T.T.T.T.l i + + + + + + + + i l T.T.T.T.T.T.T.T.T.T.T.T.T.T.T.T.T.T.T.T.T.T.T.T.",
"T.T.T.T.T.T.T.T.T.T.T.T.T.T.T.T.T.P.l I.T.T.T.T.T.T.I.k h w q w w M M M w 7 w h l I.Y.T.T.T.T.T.T.T.T.T.T.T.T.T.T.T.T.T.T.T.T.T.",
"T.T.T.T.T.T.T.T.T.T.T.T.T.T.T.T.~ p p k T.T.T.T.Y.Y.k t w 8 b x.Z.Z.Z.C.x.v 8 w i k U.T.T.T.T.T.T.T.T.Y.T.T.T.T.T.T.T.T.T.T.T.T.",
"T.T.T.T.T.T.T.T.T.T.T.T.Y.Y.I.I.[ N 2 [ P.I.I.I.I.P.h 9 q b c.M.B.B.S.B.M.v.v q 0 f C.I.Y.Y.T.Y.U.I.I.G.T.T.T.T.T.T.T.T.T.T.T.T.",
"T.T.T.T.T.T.T.T.T.T.T.T.T.U.k p _ O.O._ s p p p p p w 8 v z.c.M.B.B.S.D.N.N.x.b w z W k I.T.T.T.l f g C.T.T.T.T.T.T.T.T.T.T.T.T.",
"T.T.T.T.T.T.T.T.T.T.T.T.T.I.p + Y ,X3XT . . . + . . 6 b l.l.c.M.B.B.S.S.B.S.B.c.b 6 . s P.T.T.Y.h 9 t G T.T.T.T.T.T.T.T.T.T.T.T.",
"T.T.T.T.T.T.T.T.T.T.T.T.T.P.p   Y 3X3Xg.Y P o $ 5 c K _.n.b.c.v.N.B.B.S.S.B.B.M.c.6 . r f G k g h M G G k P.U.T.T.T.T.T.T.T.T.T.",
"T.T.T.T.T.T.T.T.T.T.T.T.Y.I.p   T ,X6X4X<XO.2 , -.8.8.9.`.n.c.v.v.M.B.S.B.B.B.B.Z.M . + 9 r r r H C.b G r g U.T.T.T.T.T.T.T.T.T.",
"T.T.T.T.T.T.T.T.T.T.T.T.T.P.p   T 3X6X6X7X>XU 4 ;.0.q.w.9.`.b.b.b.n.V.B.B.B.B.B.Z.v   . # # # n H F.Z.M + a I.T.T.T.T.T.T.T.T.T.",
"T.T.T.T.T.T.T.T.T.T.T.T.T.I.i   Y 3X6X6X6X3Xj.h.1.-.:.q.q.9.`.`.`._.n.M.m.M.m.m.v.w . # 6 v H b Z.B.v.8 + p I.T.T.T.T.T.T.T.T.T.",
"T.T.T.T.T.T.T.T.T.T.T.T.T.P.p   T ,X6X6X8X6X6X,XU o -.0.w.w.w.w.w.`.n.l.c.c.l.l.b 6   6 b v.N.D.B.}.b.8 . h I.T.T.T.T.T.T.T.T.T.",
"T.T.T.T.T.T.T.T.T.T.T.T.C.G.p   T 3X8X8X8X8X8X4Xg.' %.3.;.;.:.8.w.`.`._.K v b l.l.v 7 v v.M.N.D.B.V.x.M + p G.T.T.T.T.T.T.T.T.T.",
"T.T.T.T.T.T.T.T.T.T.T.T.T.I.p   T 3X8X8X8X8X6X6X4X,Xh.3 < < x ;.w.w.w.9.c 7 6 b l.z.b c.M.B.D.D.N.v.b 7 + p P.T.T.T.T.T.T.T.T.T.",
"T.T.T.T.T.T.T.T.T.T.T.T.T.I.s . U >X3X3X,X4X6X6X8X6X>XU P P 3 >.8.8.8.8.>.m C v b l.c.m.N.B.B.B.v.z.v w 9 g U.T.T.T.T.T.T.T.T.T.",
"T.T.T.T.T.T.T.T.T.T.T.T.T.I.f = P U T T T j.5X6X7X6X<X>X>Xg.h.y.A c c A 1.p.J C 6 b l.c.v.m.v.v.b M w h h G.U.T.T.T.T.T.T.T.T.T.",
"T.T.T.T.T.T.T.T.T.T.T.T.T.I.W 2 &       O O.3X6X7X7X8X8X6X7X5Xf.%     2 u.@Xa.V # 8 l.l.l.l.l.l.v # r k T.T.T.T.T.T.T.T.T.T.T.T.",
"T.T.T.T.T.T.T.T.T.T.T.I.} { @.&X) L . , x ] f.g.g.g.<X5X7X7X5Xf.% 2 D i.{.@Xa.B # 7 8 8 8 8 8 v w p f P.T.T.T.T.T.T.T.T.T.T.T.T.",
"T.T.T.T.T.T.T.T.T.T.T.P.~ _ *X;X*XL , Z >.<.3 P P P g.4X6X6X5Xf.% V a.XX@X@Xa.V   # # # # # # # w ^ I.C.G.T.T.T.T.T.T.T.T.T.T.T.",
"T.T.T.T.T.T.T.T.T.T.I.{ o.X.=XyX=XP , ,.r.<., % ` _ h.1X3X5X5Xf.% D s.@XOXoXu.B             @ r ! C.T.T.T.T.T.T.T.T.T.T.T.T.T.T.",
"T.T.T.T.T.T.T.T.U.~ f @.*X=XtXaX9XW , u.XX2.2 ` +.0X2XO.h.3X5Xf.% D s.@XoXr.1.1   .       @ i k I.U.T.T.T.T.T.T.T.T.T.T.T.T.T.T.",
"T.T.T.T.T.T.T.T.U.~ = X.-XuXuXsXqXX.B a.@Xu.2 _ 0XsX9X` I >X5Xh.2 ] s.OXXX4.<.,   . . . % r g T.T.T.T.T.T.T.T.T.T.T.T.T.T.T.T.T.",
"T.T.T.T.T.T.T.T.G.~ y +.iXuXwX9Xa.i.i.+X@Xa.2 _ wXsX9X` I 1X7X1Xf.f.i.u.5.4.<.: % I O.O.O.T ` h ^ G.T.T.T.T.T.T.T.T.T.T.T.T.T.T.",
"T.T.T.T.T.T.T.T.I.G = +.tXpX9X` ..s.+X@X@Xu.2 _ 0XsX9X` I 1X7X5X4Xg.] B <.3.>., P f.3X3X4X1X' # h C.T.T.T.T.T.T.T.T.T.T.T.T.T.T.",
"T.T.T.T.T.T.T.T.I.[ = +.pXsXeX+.i.a.s.+XOXp.F ..eXfX.X..' g.,X,X,Xh.4 1 A >.S R Y h.,X,X,Xg._ r h I.T.T.T.T.T.T.T.T.T.T.T.T.T.T.",
"T.T.T.T.T.T.T.T.I.{ y +.pXdXpXwXeX..F p.r.d.s.s.+X+X+Xs.u.' U U U ] 1.S A 5 Y h.g.f.U U U I ` k C.Y.T.T.T.T.T.T.T.T.T.T.T.T.T.T.",
"T.T.T.T.T.T.T.T.I.[ y +.pXdXdXdXqX_ , A 3.r.XXoXr.4.r.oXk.D X X O < <.3.5 o U 1X,XT o . + # ~ T.G.T.T.T.T.T.T.T.T.T.T.T.T.T.T.T.",
"T.T.T.T.T.T.T.T.I.[ P +.pXdXdXdXqX_ X 1 A F i.2.5.4.r.XX5.1.A Z Z A Z Z < . P T f._ h 0 0 h G.T.T.T.T.T.T.T.T.T.T.T.T.T.T.T.T.T.",
"T.T.T.T.T.T.T.T.I.[ 2 +.pXdXdXdX0X_   . O $ % m >.4.4.4.r.4.;.3.3.>.1 X .   o % y G I.I.I.U.U.T.T.T.T.T.T.T.T.T.T.T.T.T.T.T.T.T.",
"T.T.T.T.T.T.T.T.U.[ y +.tXsXsXdXqX_ - , 1 , . , Z >.>.>.>.>.>.>.>.Z N e e e & - @ h U.T.Y.Y.T.T.T.T.T.T.T.T.T.T.T.T.T.T.T.T.T.T.",
"T.T.T.T.T.T.T.T.I.[ y X.iXuXaXdXqX_ $ Z >.5 $ . , < , 1 < < < < < N ~ ^ ^ ^ E & @ g Y.T.T.T.T.T.T.T.T.T.T.T.T.T.T.T.T.T.T.T.T.T.",
"T.T.T.T.j j T.T.I.[ = X.-XyXaXdXqX_ , A 3.A $ +   & .   . + . . . y ^ J.J.J.^ e @ g Y.Y.T.T.T.T.T.T.T.rXrXrXT.T.T.T.T.T.T.T.T.T.",
"T.T.T.T.T.j j T.I.s = X.-X:XyXuXiX) $ 1 Z < X + Q W e + X 1 n , . u ^ J.L.K.H.9 @ f Y.T.T.T.T.T.T.rXT.rXrXrXT.rXT.T.T.T.T.T.T.T.",
"T.j j j T.j j T.I.i & &X;X:XyXyX=X) = o O o . e W H.W & $ Z S m o e ^ J.K./.G.u @ f Y.T.T.T.T.T.T.rXrX!.!.!.rXrXT.T.T.T.T.T.T.T.",
"T.T.j j j T.j T.U.s G o.*X=X;X:X*XL % 3 D D D V ~ ( [ , m A S m + e ^ J.K./.G.u + i k k k k k k P.d rX@.!.!.rXd T.T.T.T.T.T.T.T.",
"T.T.T.j j T.T.T.Y.I.} W o.X.=X:X=XL , ..d.d.5.u.` t N Z A S S m . u ^ J.K./.G.u   @ r r 0 9 9 0 f d d rXrXrXd d T.T.T.T.T.T.T.T.",
"T.T.T.T.T.T.T.T.T.T.Y.} ~ ) *X;X&XL 2 2.oXoXoXd.D . 1 S ,.,.S m . u ^ L./.(.G.u   $ , # X . O , M l I.d z d T.T.T.T.T.T.T.T.T.T.",
"T.T.T.T.T.T.T.T.T.Y.Y.I.} ~ o.&X) = B 2.oXoXoXd.D . 1 S ,.,.S m o e ^ J.K.(.G.u # J '.J $ , x ;.A G f d d d T.T.T.T.T.T.T.T.T.T.",
"T.T.T.T.T.T.T.T.T.T.T.Y.U.G.p - -   3 u.oXoXoXd.D . 1 S ,.,.S m o e ^ J.K.(.J.u n '.[.'.n < ;.e.-., 0 k T.T.T.T.T.T.T.T.T.T.T.T.",
"T.T.T.T.T.T.T.T.T.T.T.T.G.C.p   O > 4 1.u.u.u.1.B . , m Z Z Z B y ! H.~.^.).E.A.J }.|.'.n < -.t.:.-.Z G d z Y.T.T.T.j j T.T.T.T.",
"T.T.T.T.T.T.T.T.T.T.T.T.U.P.p   > ; #.4 B 3 1 2 o   . $ $ , , W ^ / H.~.}.#X$X X'.}.Q.| r : %.=.7.8.;.Z t 0 z T.T.j j T.T.T.T.T.",
"T.T.T.T.T.T.T.T.T.T.T.T.Y.P.p . > #.$.4 : O .   & & & & = t N | R.Q.Q.W.}.$X$X$X#XE.H.W 9 : %.*.7.e.8.x + 0 z T.T.j j T.j j j T.",
"T.T.T.T.T.T.T.T.T.T.T.T.Y.I.p . : > ; ; ; > . + E ! ! ! { '.'.}.|.|.|.|.}.}.}.}.E. .W e + : #.*.7.e.8.x   f z T.T.j T.j j j T.T.",
"T.T.T.T.T.T.T.T.T.T.T.T.T.P.p +     O #.*.; : e ( H.H.H.W. X%X%X%X%X%X$X}.~.J.J./ u       : #.*.7.e.8.x . h I.T.T.T.T.j j T.T.T.",
"T.T.T.T.T.T.T.T.T.T.T.T.T.I.~ p & . O > #.> O + E ( ! (  .}.|.|.|.|.|.}.^.~./ ^ W e   @ r N 4 #.&.;.-.m w l G.T.T.T.T.T.T.T.T.T.",
"T.T.T.T.T.T.T.T.T.T.T.T.T.Y.I.P.a & . O : O     & & & & E  .Q.~.Q.Q.Q.Q.~.H.^ E & +   t g G N : , < n G G.G.C.T.T.T.T.T.T.T.T.T.",
"T.T.T.T.T.T.T.T.T.T.T.T.T.T.T.T.^ i @ +                 & ! ^ / / / / ^ / / W +       i C.G.f 9 @ 9 i G T.T.T.T.T.T.T.T.T.T.T.T.",
"T.T.T.T.T.T.T.T.T.T.T.T.T.T.T.T.C.( z r                     E E Q E E Q Q Q e         i G.T.G g h k ^ U.T.T.T.T.T.T.T.T.T.T.T.T.",
"T.T.T.T.T.T.T.T.T.T.T.T.T.T.T.T.G.U.G.i                                               i k U.C.G.T.T.T.T.T.T.T.T.T.T.T.T.T.T.T.T.",
"T.T.T.T.T.T.T.T.T.T.T.T.T.T.T.T.C.g w 9                                               9 p g G.T.T.T.T.T.T.T.T.T.T.T.T.T.T.T.T.T.",
"T.T.T.T.T.T.T.T.T.T.T.T.T.T.T.T.k u @ .                                                 @ t k T.T.T.T.T.T.T.T.T.T.T.T.T.T.T.T.T.",
"T.T.T.T.T.T.T.T.T.T.T.T.T.T.T.T.g 9                                                       9 k Y.T.T.T.T.T.T.T.T.T.T.T.T.T.T.T.T.",
"T.T.T.T.T.T.T.T.T.T.T.T.T.T.T.T.g 9                                                     + @ k T.T.T.T.T.T.T.T.T.T.T.T.T.T.T.T.T.",
"T.T.T.T.T.T.T.T.T.T.T.T.T.T.T.T.g @                                                     . 9 g T.T.T.T.T.T.T.T.T.T.T.T.T.T.T.T.T.",
"T.T.T.T.T.T.T.T.T.T.T.T.T.T.T.T.} f i @                                               & u f l T.T.T.T.T.T.T.T.T.T.T.T.T.T.T.T.T.",
"T.T.T.T.j j T.T.T.T.j j T.T.T.T.U.I.k t                                               0 k I.U.T.T.T.T.T.j j T.T.T.T.j j T.T.T.T.",
"T.T.T.T.T.j j T.T.j j T.T.T.T.T.T.T.I.f r 0 r @                               + 0 9 e g I.T.T.T.T.T.T.T.T.j j T.T.j j T.T.T.T.T.",
"T.j j j T.j j T.T.j j T.j j j T.T.T.U.P.k k k f &                           0 u k k k C.U.T.T.T.T.j j j T.j j T.T.j j T.j j j T.",
"T.T.j j j T.j T.T.j T.j j j T.T.T.T.T.T.T.T.C.G.u + + + - + + & + + +     & u G.T.T.T.T.T.T.T.T.T.T.j j j T.j T.T.j T.j j j T.T.",
"T.T.T.j j T.T.T.T.T.T.j j T.T.T.T.T.T.T.T.T.G.I.j f f p z W p p f p f f u z ! C.T.T.T.T.T.T.T.T.T.T.T.j j T.T.T.T.T.T.j j T.T.T.",
"T.T.T.T.T.T.T.T.T.T.T.T.T.T.T.T.T.T.T.T.T.T.T.U.I.I.I.I.I.C.I.I.I.I.I.I.C.G.U.U.T.T.T.T.T.T.T.T.T.T.T.T.T.T.T.T.T.T.T.T.T.T.T.T.",
"T.T.T.T.T.T.T.T.T.T.T.T.T.T.T.T.T.T.T.T.T.T.T.T.T.T.T.T.T.T.T.Y.Y.Y.T.T.G.T.T.U.T.T.T.T.T.T.T.T.T.T.T.T.T.T.T.T.T.T.T.T.T.T.T.T."
};
