/* XPM */
static char *_2cb8d0f46a742749eeef7d54f7af44fufhafxwr5RZEaCjy[] = {
/* columns rows colors chars-per-pixel */
"64 64 223 2 ",
"   c #282928",
".  c #2D2A28",
"X  c #352627",
"o  c #322D2C",
"O  c #372B26",
"+  c #2B322C",
"@  c #2E3B2E",
"#  c #2E3724",
"$  c #333D25",
"%  c #373129",
"&  c #3D3329",
"*  c #392D34",
"=  c #2B3B33",
"-  c #383838",
";  c #363734",
":  c #5C3C1E",
">  c #791F24",
",  c #473626",
"<  c #42352A",
"1  c #4B3827",
"2  c #573D26",
"3  c #473339",
"4  c #523D33",
"5  c #4D2629",
"6  c #672326",
"7  c #742024",
"8  c #613E1D",
"9  c #38531E",
"0  c #3D5C1D",
"q  c #3E631D",
"w  c #2F412F",
"e  c #334422",
"r  c #364B20",
"t  c #364828",
"y  c #385627",
"u  c #2C4637",
"i  c #314531",
"p  c #334D33",
"a  c #3A4B38",
"s  c #355435",
"d  c #375C37",
"f  c #3A5B38",
"g  c #29572A",
"h  c #39643A",
"j  c #3B6B3A",
"k  c #307030",
"l  c #3D723D",
"z  c #3F783F",
"x  c #3A602F",
"c  c #585719",
"v  c #4F4B1D",
"b  c #6B441B",
"n  c #784B19",
"m  c #426B19",
"M  c #43681A",
"N  c #457417",
"B  c #477915",
"V  c #487718",
"C  c #547B19",
"Z  c #5D422A",
"A  c #53482F",
"S  c #4D4736",
"D  c #564636",
"F  c #4B522E",
"G  c #634628",
"H  c #6C4A28",
"J  c #6B4624",
"K  c #764D27",
"L  c #7A5128",
"P  c #745127",
"I  c #654A35",
"U  c #6C513E",
"Y  c #7E593C",
"T  c #77463E",
"R  c #567B26",
"E  c #436A3B",
"W  c #4E6935",
"Q  c #767135",
"!  c #727A10",
"~  c #383844",
"^  c #4A3641",
"/  c #5B374C",
"(  c #6A3C57",
")  c #743E5E",
"_  c #2F5342",
"`  c #2F5946",
"'  c #345B45",
"]  c #32664D",
"[  c #347557",
"{  c #33704F",
"}  c #44475A",
"|  c #4E5352",
" . c #6B4549",
".. c #407B40",
"X. c #437447",
"o. c #4E6F49",
"O. c #75664D",
"+. c #52517A",
"@. c #49496C",
"#. c #7C4A66",
"$. c #6D716E",
"%. c #971D22",
"&. c #871E23",
"*. c #A71B21",
"=. c #BB1820",
"-. c #B21921",
";. c #C01820",
":. c #8A4E15",
">. c #985312",
",. c #855614",
"<. c #AF5E0E",
"1. c #B8650C",
"2. c #835528",
"3. c #885828",
"4. c #885323",
"5. c #995A22",
"6. c #915C30",
"7. c #8A6B3B",
"8. c #AB6221",
"9. c #B86820",
"0. c #B36620",
"q. c #AC6932",
"w. c #A56625",
"e. c #CF6908",
"r. c #8F4D50",
"t. c #866247",
"y. c #976840",
"u. c #A16C43",
"i. c #B3784C",
"p. c #864468",
"a. c #974976",
"s. c #8F4B6F",
"d. c #C66550",
"f. c #4B8214",
"g. c #4E8C11",
"h. c #528817",
"j. c #539311",
"k. c #5A9A14",
"l. c #599418",
"z. c #629C1C",
"x. c #6F830F",
"c. c #65A519",
"v. c #6AAA1B",
"b. c #63A317",
"n. c #74B41E",
"m. c #5D8A21",
"M. c #619823",
"N. c #77B720",
"B. c #78B820",
"V. c #7EBB2B",
"C. c #6DA62D",
"Z. c #36805D",
"A. c #3A825D",
"S. c #369153",
"D. c #3A965B",
"F. c #388862",
"G. c #389168",
"H. c #399A69",
"J. c #3C9267",
"K. c #3AA46A",
"L. c #3DB96C",
"P. c #428342",
"I. c #458C45",
"U. c #479347",
"Y. c #489648",
"T. c #489848",
"R. c #508555",
"E. c #65A25E",
"W. c #78A658",
"Q. c #72B25D",
"!. c #4A9764",
"~. c #569C62",
"^. c #508070",
"/. c #63A264",
"(. c #3EC96E",
"). c #3FD26F",
"_. c #40D870",
"`. c #40D670",
"'. c #50D06B",
"]. c #62D166",
"[. c #84BE34",
"{. c #C1AE3A",
"}. c #BF8359",
"|. c #8EB255",
" X c #97B655",
".X c #88A952",
"XX c #A5BB50",
"oX c #AFBE4E",
"OX c #85A466",
"+X c #C68658",
"@X c #CF864C",
"#X c #E09050",
"$X c #DB9461",
"%X c #93C95C",
"&X c #A8D153",
"*X c #CECA47",
"=X c #EAD641",
"-X c #565687",
";X c #5B5B95",
":X c #727293",
">X c #6363A7",
",X c #596289",
"<X c #6D6DC2",
"1X c #7171CC",
"2X c #A74D82",
"3X c #B3508B",
"4X c #BB5490",
"5X c #8B7281",
"6X c #CC589C",
"7X c #D1599F",
"8X c #DB5CA7",
"9X c #E35FAD",
"0X c #E860B0",
"qX c #E760AF",
"wX c #D9608D",
"eX c gray51",
"rX c gray62",
"tX c #ACABAB",
"yX c #B4B4B4",
"uX c #B6D393",
"iX c #B0E8B8",
"pX c #A4D7AC",
"aX c #E2E4DF",
/* pixels */
"T.T.T.T.T.T.T.T.T.T.T.T.T.T.T.T.T.T.T.T.T.T.T.T.T.T.T.T.T.T.T.T.T.T.T.T.T.T.T.T.T.T.T.T.T.T.T.T.T.T.T.T.T.T.T.T.T.T.T.T.T.T.T.T.",
"T.T.T.T.T.T.T.T.T.T.T.T.T.T.T.T.T.T.T.T.T.T.T.T.T.T.T.T.T.T.T.T.T.T.T.T.T.T.T.T.T.T.T.T.T.T.T.T.T.T.T.T.T.T.T.T.T.T.T.T.T.T.T.T.",
"T.T.T.T.T.T.T.T.T.T.T.T.T.T.T.T.T.T.T.T.T.T.T.T.T.T.T.T.T.T.T.T.T.T.T.T.T.T.T.T.T.T.T.T.T.T.T.T.T.T.T.T.T.T.T.T.T.T.T.T.T.T.T.T.",
"T.T.T.T.T.T.T.T.T.T.T.T.T.T.T.T.T.T.T.T.T.T.T.T.T.T.T.T.T.T.T.T.T.T.T.T.T.T.T.T.T.T.T.T.T.T.T.T.T.T.T.T.T.T.T.T.T.T.T.T.T.T.T.T.",
"T.T.T.T.T.T.T.T.T.T.T.T.T.T.T.T.T.T.T.T.T.T.T.T.T.S.s               + h U.T.T.T.Y.Y.Y.T.T.T.T.T.T.T.T.T.T.T.T.T.T.T.T.T.T.T.T.T.",
"T.T.T.T.T.T.T.T.T.T.T.T.T.T.T.T.T.T.T.T.T.T.T.T.S.m.s .             + h U.T.T.T.Y.Y.T.T.T.T.T.T.T.T.T.T.T.T.T.T.T.T.T.T.T.T.T.T.",
"T.T.T.T.T.T.T.T.T.T.T.T.T.T.T.T.T.T.T.T.T.m.{ z { j x r r r r r r r r x l l l z S.U.T.T.T.T.T.T.T.T.T.T.T.T.T.T.T.T.T.T.T.T.T.T.",
"T.T.T.T.T.T.T.T.T.T.T.T.T.T.T.T.T.T.T.T.T.{ p w w t q B B B B B B B N 0 w w w d m.T.T.T.T.T.Y.Y.T.T.T.T.T.T.T.T.T.T.T.T.T.T.T.T.",
"T.T.T.T.T.T.T.T.T.T.T.T.T.T.U.P.P.U.Y.I...h r e $ r B k.k.k.k.k.k.j.j.V t e $ t j P.I.T.I.P.I.U.T.T.T.T.T.T.T.T.T.T.T.T.T.T.T.T.",
"T.T.T.T.T.T.T.T.T.T.T.T.T.T.P.d h ..U.l s y q m m N z.v.v.v.v.v.v.v.v.M.l.C N M y d { Y.l f h I.T.T.T.T.T.T.T.T.T.T.T.T.T.T.T.T.",
"T.T.T.T.T.T.T.T.T.T.T.T.I.I.E a a E P.d . 9 B j.j.k.v.n.n.n.n.n.n.n.n.n.n.b.j.N e @ E m.h $ a ..U.U.T.T.T.T.T.T.T.T.T.T.T.T.T.T.",
"T.T.T.T.T.T.T.T.T.T.T.T.d f W t.t.W s w . 9 f.j.k.v.n.n.n.[.n.c.b.b.b.b.b.k.j.N e + u ` O.t.O.F h S.T.T.T.T.T.T.T.T.T.T.T.T.T.T.",
"T.T.T.T.T.T.T.T.T.T.T.T.     .+X+XI     . 9 f.k.n.n.n.n.n.n.n.k.g.j.j.g.j.g.j.N e     # t.$Xu.| @ l Y.T.T.T.T.T.T.T.T.T.T.T.T.T.",
"T.T.T.T.T.T.T.T.T.T.T.T.    U +X+XU       9 f.k.v.n.v.n.v.v.l.N q M m B g.j.j.f.q r # . t.$Xi.D w l T.T.T.T.T.T.T.T.T.T.T.T.T.T.",
"T.T.T.T.T.T.T.T.T.T.T.T.    U +X+XU       9 C k.v.n.b.k.k.j.N 9 # # e m g.g.g.g.g.q 9 + t.$Xi.D w l T.T.T.T.T.T.T.T.T.T.T.T.T.T.",
"T.T.T.T.T.T.T.T.T.T.T.T.  + Z }.i.I . , 8 c M h.z.c.h.N B g.B 9 e e r m g.g.B C x.! v + Y @Xu.3 w l T.T.T.T.T.T.T.T.T.T.T.T.T.T.",
"T.T.T.T.T.T.T.T.T.T.T.T.    Z q.w.D O n 1.:.v M f.j.M e M g.f.B N N V f.j.m 0 c <.1.b . K q.6.1 w l Y.T.T.T.T.T.T.T.T.T.T.T.T.T.",
"T.T.T.T.T.T.T.T.T.T.T.T.    2 5.5.J 1 :.e.>.: v M N 9 $ M h.k.k.j.k.k.M.C.R r Z <.1.b   H 8.4., w l T.T.T.T.T.T.T.T.T.T.T.T.T.T.",
"T.T.T.T.T.T.T.T.T.T.T.T.    Z 5.8.5.K n n :.>.,.c 9 0 M h.z.v.v.v.v.V.%XuXW.W c c n , X J 8.4., w l T.T.T.T.T.T.T.T.T.T.T.T.T.T.",
"T.T.T.T.T.T.T.T.T.T.T.T.    : 5.9.9.8.J . :.e.1.b # M g.z.n.n.n.N.N.[.uXaXyXC.N r     X K 8.4., w l T.T.T.T.T.T.T.T.T.T.T.T.T.T.",
"T.T.T.T.T.T.T.T.T.T.T.T.    2 5.9.9.0.b . : n >.:.n c M h.b.c.c.v.N.V.%XuX XM.V e # 1 J 4.0.4., w l T.T.T.T.T.T.T.T.T.T.T.T.T.T.",
"T.T.T.T.T.T.T.T.T.T.T.T.  . 2 5.9.9.8.b . X O 8 <.e.n # y g.j.j.k.v.B.V.[.n.k.V e % K 8.0.0.4.5 w l T.T.T.T.T.T.T.T.T.T.T.T.T.T.",
"T.T.T.T.T.T.T.T.T.T.T.T.p p F P 4.4.4.( ( ^ X 1 :.>.:   r M B g.k.v.B.B.n.v.j.N $ * 6.d.q.5.t.t.$.o...X.T.T.T.T.T.T.T.T.T.T.T.T.",
"T.T.T.T.T.T.T.T.T.T.T.T.I.E x F , , 1 p.4Xp.3 O , : O   # $ 0 B k.v.B.B.n.v.j.N e 3 s.wXa.2 $.yXtX$.s a T.T.T.T.T.T.T.T.T.T.T.T.",
"T.T.T.T.T.T.T.T.T.T.T.T.T.T.{ s @ + * s.9X2X( ^ / ^ *       r B l.c.n.n.n.c.h.M S ( s.4Xs.| ^.yXtX$.- - T.T.T.T.T.T.T.T.T.T.T.T.",
"T.T.T.T.T.T.T.T.T.T.T.T.T.T.m.A.f w * s.8X6X3X2X2Xs./       r V j.k.b.v.n.m.M | s.a.p.( 5XtXrX:X$.| - - T.T.T.T.T.T.T.T.T.T.T.T.",
"T.T.T.T.T.T.T.T.T.T.T.T.T.T.U.U.E p 3 p.8X8X9X0X0X6Xp.* o   9 B g.j.j.c.N.C % / 2X4X( o 5XaXtX$.^ - - - T.T.T.T.T.T.T.T.T.T.T.T.",
"T.T.T.T.T.T.T.T.T.T.T.T.T.T.P.j f A 8 ( p.2X8X0X0X8X3Xp./ . r B g.j.j.c.N.R $ 3 ( ) ^   | eX:X:X-X} - - T.T.T.T.T.T.T.T.T.T.T.T.",
"T.T.T.T.T.T.T.T.T.T.T.T.T.T.l w < H L Z . #.6X0X0X0X9X8Xp.* y B j.j.j.c.N.R $   . o       o @.<X<X+.; ; T.T.T.T.T.T.T.T.T.T.T.T.",
"T.T.T.T.T.T.T.T.T.T.T.T.j j f v Z P 2.H : ( s.a.a.2X6X9X3Xp. .F m B l.c.N.R $     . & 4 1 1 | -X-X} - - T.T.T.T.T.T.T.T.T.T.T.T.",
"T.T.T.T.T.T.T.T.T.T.T.T.@ @ S J L 2.3.L P G 3 ^ ^ / 2X9X8X6Xa.3 r N l.b.n.m.$     o 2 L L L I ^ ~ ~ - - T.T.T.T.T.T.T.T.T.T.T.T.",
"T.T.T.T.T.T.T.T.T.T.T.T.    O Z H H H H H A a u u | #.3X3X3X#.^ # 0 V h.m.W s = + % G 3.3.3.G &   ; ; - T.T.T.T.T.T.T.T.T.T.T.T.",
"T.T.T.T.T.T.T.T.T.T.T.T.    X & < & < < < a ] Z.D.D.o./ / / ^ * . # r r y h { ` = % Z 3.3.3.G & . * ; ; T.T.T.T.T.T.T.T.T.T.T.T.",
"T.T.T.T.k k T.T.T.T.k k     o * < 4 < % . _ Z.K.L.L.[ w i u w u u w u p w ` Z.[ u % G 3.2.L I 3 ~ ~ - - iXiXT.T.T.T.T.T.T.T.T.T.",
"T.T.T.T.T.k k T.T.k k T.    4 7.y.y.t.Z . _ F.G.K.K.H.S.S.S.S.S.S.S.S.S.S.D.G.[ u % G 2.H 4 | -X-X/ ; - iXiXT.iXT.T.T.T.T.T.T.T.",
"T.k k k T.k k T.T.k k U.    H i.#X#X@XY . _ [ G.J.K.L._.`.`.`.`.)._._.).).L.H.[ u * G 2.Z o @.<X1X+._ - ^.^.iXiXT.T.T.T.T.T.T.T.",
"T.T.k k k T.k T.T.k T.k     I i.#X#X@XY + _ Z.G.G.H.L.).`.`.`.`._.).).L.L.K.H.Z.[ ' | 2 | -X;X;X-X` /.| $.[ iXg T.T.T.T.T.T.T.T.",
"T.T.T.k k T.T.T.T.T.T.k     I i.#X#X@XY . d F.G.G.H.(._.`.`.`.`._.).).L.H.G.G.G.G.[ a X +.1X>X@.} _ g pXiXiXg g T.T.T.T.T.T.T.T.",
"T.T.T.T.T.T.T.T.T.T.T.T.p s W t.u.u.y.7.P o.A.G.G.H.K.(.L.`.`.`._._.).L.G.G.G.G.G.[ _   @.>X,X| E P.Y.g ` g T.T.T.T.T.T.T.T.T.T.",
"T.T.T.T.T.T.T.T.T.T.T.T.....W F A A A 7.{..X~.G.G.G.H.H.H.H.K.`._._.(.L.G.G.G.G.G.[ _   ~ _ | o.I.I.Y.g g g T.T.T.T.T.T.T.T.T.T.",
"T.T.T.T.T.T.T.T.T.T.T.T.T.T.E d @ + ; 7.*X XW.~.~.~.!.F.G.G.K.L.`.'.].L.G.F.[ [ [ ] _   $ a X.I.T.T.T.T.T.T.T.T.T.T.T.T.T.T.T.T.",
"T.T.T.T.T.T.T.T.T.T.T.T.T.T.I.z h w + W Q.|.XXoXoX XE.!.G.G.H.H./.%X&XQ.!.[ ` _ _ _     a { ..I.T.T.T.T.k k T.T.T.T.k k T.T.T.T.",
"T.T.T.T.T.T.T.T.T.T.T.T.T.T.T.T.P.s @ ] A.W.*X=X=X*X.X!.!.!.!.!.E.oX*X|.F.] ; X X X     d U.T.T.T.T.T.T.T.k k T.T.k k T.T.T.T.T.",
"T.T.T.T.T.T.T.T.T.T.T.T.T.T.T.T.I.l h ' d R.W..X|.|.|. X X X X X X X.XR.' D 6 > > 6 5   d I.T.T.T.k k k T.k k T.T.k k T.k k k T.",
"T.T.T.T.T.T.T.T.T.T.T.T.T.T.T.T.T.Y.I.x   ` A.J.J.~.XX=X=X=X=X=X*XW.J.'   6 *.=.=.*.6   d I.T.T.T.T.k k k T.k T.T.k T.k k k T.T.",
"T.T.T.T.T.T.T.T.T.T.T.T.T.T.T.T.T.T.U.{ s ` ] ] ] X.W.XXXXXXXX X.XR.' S 6 &.-.;.=.*.6 . d I.T.T.T.T.T.k k T.T.T.T.T.T.k k T.T.T.",
"T.T.T.T.T.T.T.T.T.T.T.T.T.T.T.T.T.T.T.U.S.j i = = u X.~.~.~.!.!.R.f ; 7 *.-.=.;.;.*.6   d I.T.T.T.T.T.T.T.T.T.T.T.T.T.T.T.T.T.T.",
"T.T.T.T.T.T.T.T.T.T.T.T.T.T.T.T.T.T.S.m.E s +     = _ [ { [ [ [ ] @ X > =.*.%.%.%.&.5   d U.T.T.T.T.T.T.T.T.T.T.T.T.T.T.T.T.T.T.",
"T.T.T.T.T.T.T.T.T.T.T.T.T.T.T.T.T.T.U.j p @         = u = = u u =   X > =.&.6 5 5 5 O   d U.T.T.T.T.T.T.T.T.T.T.T.T.T.T.T.T.T.T.",
"T.T.T.T.T.T.T.T.T.T.T.T.T.T.T.T.U.I.z s                             X 6 *.7 X           d I.T.T.T.T.T.T.T.T.T.T.T.T.T.T.T.T.T.T.",
"T.T.T.T.T.T.T.T.T.T.T.T.T.T.T.T.I.j p @                               5 6 5             d I.T.T.T.T.T.T.T.T.T.T.T.T.T.T.T.T.T.T.",
"T.T.T.T.T.T.T.T.T.T.T.T.T.T.T.T.P.p                                                     d U.T.T.T.T.T.T.T.T.T.T.T.T.T.T.T.T.T.T.",
"T.T.T.T.T.T.T.T.T.T.T.T.T.T.T.T.P.g                                                     d I.T.T.T.T.T.T.T.T.T.T.T.T.T.T.T.T.T.T.",
"T.T.T.T.T.T.T.T.T.T.T.T.T.T.T.T...p                                                     d U.T.T.T.T.T.T.T.T.T.T.T.T.T.T.T.T.T.T.",
"T.T.T.T.T.T.T.T.T.T.T.T.T.T.T.T.I.h p @                                             @ p l U.T.T.T.T.T.T.T.T.T.T.T.T.T.T.T.T.T.T.",
"T.T.T.T.T.T.T.T.T.T.T.T.T.T.T.T.U.I.l p                                           + ` m.I.T.T.T.T.T.T.T.T.T.T.T.T.T.T.T.T.T.T.T.",
"T.T.T.T.T.T.T.T.T.T.T.T.T.T.T.T.T.T.S.] w w w @                             @ w t s z T.T.T.T.T.T.T.T.T.T.T.T.T.T.T.T.T.T.T.T.T.",
"T.T.T.T.k k T.T.T.T.k k T.T.T.T.T.T.T.m.l l l x @                         # h l E { I.T.T.T.T.T.T.T.T.T.k k T.T.T.T.k k T.T.T.T.",
"T.T.T.T.T.k k T.T.k k T.T.T.T.T.T.T.T.T.T.T.T.z w                         s S.m.T.T.T.T.T.T.T.T.T.T.T.T.T.k k T.T.k k T.T.T.T.T.",
"T.k k k T.k k T.T.k k T.k k k T.T.T.T.T.T.T.T.{ w                         s I.D.T.T.T.T.T.T.T.T.T.k k k T.k k T.T.k k T.k k k T.",
"T.T.k k k T.k T.T.k T.k k k T.T.T.T.T.T.T.T.T.T.T.T.T.T.T.T.T.T.T.T.T.T.T.T.T.T.T.T.T.T.T.T.T.T.T.T.k k k T.k T.T.k T.k k k T.T.",
"T.T.T.k k T.T.T.T.T.T.k k T.T.T.T.T.T.T.T.T.T.T.T.T.T.T.T.T.T.T.T.T.T.T.T.T.T.T.T.T.T.T.T.T.T.T.T.T.T.k k T.T.T.T.T.T.k k T.T.T.",
"T.T.T.T.T.T.T.T.T.T.T.T.T.T.T.T.T.T.T.T.T.T.T.T.T.T.T.T.T.T.T.T.T.T.T.T.T.T.T.T.T.T.T.T.T.T.T.T.T.T.T.T.T.T.T.T.T.T.T.T.T.T.T.T.",
"T.T.T.T.T.T.T.T.T.T.T.T.T.T.T.T.T.T.T.T.T.T.T.T.T.T.T.T.T.T.T.T.T.T.T.T.T.T.T.T.T.T.T.T.T.T.T.T.T.T.T.T.T.T.T.T.T.T.T.T.T.T.T.T."
};
