/* XPM */
static char *bf61dd857e7b4220cc2f8577a37ef676WMSbGhyHQy2b8aLW[] = {
/* columns rows colors chars-per-pixel */
"64 64 5 1 ",
"  c #489848",
". c #307030",
"X c #B0E8B8",
"o c #508070",
"O c #285828",
/* pixels */
"                                                                ",
"                                                                ",
"                                                                ",
"                                                                ",
"                                                                ",
"                                                                ",
"                                                                ",
"                                                                ",
"                                                                ",
"                                                                ",
"                                                                ",
"                                                                ",
"                                                                ",
"                                                                ",
"                                                                ",
"                                                                ",
"                                                                ",
"                                                                ",
"                                                                ",
"                                                                ",
"                                                                ",
"                                                                ",
"                                                                ",
"                                                                ",
"                                                                ",
"                                    ..    ..                    ",
"                                     ..  ..                     ",
"                                 ... ..  .. ...                 ",
"                                  ... .  . ...                  ",
"                                   ..      ..                   ",
"                                                                ",
"                                                                ",
"                                                                ",
"    ..    ..                                       XXX          ",
"     ..  ..                                      X XXX X        ",
" ... ..  .. ...                                  XXoooXX        ",
"  ... .  . ...                                   OXoooXO        ",
"   ..      ..                                    OOXXXOO        ",
"                                                   OOO          ",
"                                                   OOO          ",
"                                                                ",
"                                                    ..    ..    ",
"                                                     ..  ..     ",
"                                                 ... ..  .. ... ",
"                                                  ... .  . ...  ",
"                                                   ..      ..   ",
"                                                                ",
"                                                                ",
"                                                                ",
"                                                                ",
"                                                                ",
"                                                                ",
"                                                                ",
"                                                                ",
"                                                                ",
"                                                                ",
"                                                                ",
"    ..    ..                                        ..    ..    ",
"     ..  ..                                          ..  ..     ",
" ... ..  .. ...                                  ... ..  .. ... ",
"  ... .  . ...                                    ... .  . ...  ",
"   ..      ..                                      ..      ..   ",
"                                                                ",
"                                                                "
};
