/* XPM */
static char *_33881190409497da721d6e2c14920e3DsmrdViECn6EI4MV[] = {
/* columns rows colors chars-per-pixel */
"64 64 141 2 ",
"   c #383028",
".  c #373B29",
"X  c #3C3B2C",
"o  c #3F3730",
"O  c #3F3830",
"+  c #41392F",
"@  c #443C32",
"#  c #36442A",
"$  c #3B432E",
"%  c #354E2C",
"&  c #3D4A2F",
"*  c #33582D",
"=  c #3D4E32",
"-  c #3E5333",
";  c #3F5E36",
":  c #32622E",
">  c #3F6036",
",  c #3F6338",
"<  c #307030",
"1  c #464434",
"2  c #4B4336",
"3  c #444B34",
"4  c #494D37",
"5  c #4E463A",
"6  c #4C4B39",
"7  c #554D3E",
"8  c #435036",
"9  c #54523E",
"0  c #496F3F",
"q  c #43733D",
"w  c #564E41",
"e  c #555540",
"r  c #5B5342",
"t  c #5C5E46",
"y  c #5C554A",
"u  c #615946",
"i  c #655D4A",
"p  c #69614D",
"a  c #656B4C",
"s  c #68694E",
"d  c #6D6551",
"f  c #6C6A50",
"g  c #6A645C",
"h  c #726A54",
"j  c #766E59",
"k  c #6E7654",
"l  c #677E53",
"z  c #6B7B53",
"x  c #737456",
"c  c #767358",
"v  c #7A725A",
"b  c #746E68",
"n  c #7E7462",
"m  c #80785E",
"M  c #847C62",
"N  c #857E69",
"B  c #897F69",
"V  c #817C73",
"C  c #458141",
"Z  c #478F45",
"A  c #568B4D",
"S  c #5A894E",
"D  c #479346",
"F  c #489347",
"G  c #4A9649",
"H  c #499848",
"J  c #52914B",
"K  c #628351",
"L  c #898166",
"P  c #8D8569",
"I  c #938B6E",
"U  c #8D8471",
"Y  c #908670",
"T  c #968D73",
"R  c #988E76",
"E  c #978C79",
"W  c #998E79",
"Q  c #9B9374",
"!  c #9D937A",
"~  c #9F987D",
"^  c #A09878",
"/  c #988D82",
"(  c #A09581",
")  c #A79C86",
"_  c #A39882",
"`  c #A89C87",
"'  c #A79B88",
"]  c #A89C88",
"[  c #A89D88",
"{  c #AB9F8B",
"}  c #A9A285",
"|  c #AAA286",
" . c #AAA286",
".. c #ADA18D",
"X. c #ACA08C",
"o. c #AEA28E",
"O. c #ADA18C",
"+. c #B3A98E",
"@. c #AEA092",
"#. c #AAA596",
"$. c #AEA092",
"%. c #B0A490",
"&. c #B3A693",
"*. c #B1A491",
"=. c #B4A894",
"-. c #B6AA95",
";. c #B9AC99",
":. c #BBAE9B",
">. c #BCB097",
",. c #BCB098",
"<. c #BDB09D",
"1. c #BFB19F",
"2. c #BFB19F",
"3. c #C0B49C",
"4. c #C0B3A0",
"5. c #C3B5A3",
"6. c #C5B7A5",
"7. c #C2B4A2",
"8. c #C6B8A6",
"9. c #C6BCA6",
"0. c #C8BBA5",
"q. c #C8BAA8",
"w. c #C9BBA9",
"e. c #CDBFAA",
"r. c #CDBEAA",
"t. c #CFC1AE",
"y. c #CFC0B1",
"u. c #D0C1B0",
"i. c #D3C4B3",
"p. c #D5C6B3",
"a. c #D4C5B4",
"s. c #D3C4B3",
"d. c #D7C8B7",
"f. c #D6C8B6",
"g. c #D4C6B9",
"h. c #D8C9B8",
"j. c #D9CAB9",
"k. c #DDCDBD",
"l. c #DDD0C0",
"z. c #E0D0C0",
"x. c #E0D0C0",
/* pixels */
"q A A A S S A 8   + @ 2 2 @ 2 2 @ 5 5 @ 5 5 @ 2 5 @ 5 2 @ 5 5 @ @ 5 5 @ 5 @ @ 5 @ @ 5 @ 5 @ @ @ @ @ 5 @ 2 2 2 @   3 S S A A A A ",
"H H H H G G F - X X + + + + + +         + + + + +   + +   +   + + +   + + +   + + + + + + +     + + + @ + + +     & F F H H H D ",
"D H H H G S 0 $ @ 7 7 7 7 7 7 7 5       w w 7 7 7 + 2 7 @ 5 @ @ 7 @ @ @ + 7 5 + w w w w 7 +     5 7 r 7 7 7 7 7 5 $ 0 S H H H D ",
"H H H H G K 6   r h h h h d h h i     o d h h d d + u h @ r 5 w d r 5 u @ h u + d d d g h +     u d h h d h h h 9 + 4 z H H H H ",
"H H H H J a @ + i j j m m #.V b b @ +     + X   +   +   + +       +     + + + +                 + g b N $.m v j i + 1 a J H H H ",
"H H H H K e X 7 d v j m I B 2   +                                                                 + + 5 B M j j h 7 + 9 K H H H ",
"H H H H z @   i v v v P ^ N 2 2 @                                                                 @ @ 5 B P v v v i   + x G H H ",
"H H H S t X 5 j L L m R >.N 2 7 u                                                                 r r @ N E m B L v 2 + t S H H ",
"H H H z 7   9 P Q Q L ^ p.j 7 u i                                                                 i i 7 j ) M Q Q L u   2 k H H ",
"H H J s + + h P Q I L ` x.u y d i                                                                 i d r y o.M Q Q P h @ + s J H ",
"H H K 9   7 m P L m m ) z.w i m i                                                                 p v p w ..v L m P m 9 + 9 K H ",
"H H x +   p I L v v v ) z.d v P h                                                                 h L v g ..v j v m Q p   + c G ",
"H H p . 2 j T M Y ( ( :.r.M U Q j                                                                 v ! I M 4.( ( T m Q v 2   u H ",
"H H 1   u P ^ M ' w.w.i.4.Y _ &.B                                                                 P =.^ Y a.w.q.o.m ^ L u   1 H ",
"H J X   h I ^ B { j.z.d.' ^ >.e.V                                                                 ( t.>.^ d.z.j.%.m ^ Q h   X J ",
"H K X   v Q ^ M T 8.z.6.N  .e.z.b                                                                 o.z.t.| 5.z.e.R M ^ Q m   + K ",
"H x +   M ^ ^ M v &.z.&.u | e.z.%.                                                                $.k.e.| @.z.;.v N ^ ^ P     c ",
"H p X 2 P ^ ^ P m &.z.*.u } e.z.$.                                                                $.z.e.| { z.-.v P ^ ^ I 2 X u ",
"H 1   u I ^ ^ Q M &.z.%.r } e.z.$.                                                                @.z.e. .{ z.;.m Q ^ ^ I u   2 ",
"H .   d Q ^ ^ ^ M *.z.%.r | e.z.$.                                                                @.z.e. .{ z.-.L ^ ^ ^ Q h     ",
"G .   d I ^ ^ ^ P &.z.%.r } e.z.'                                                                 $.z.e. .{ z.-.M ^ ^ ^ R d     ",
"G     d Q ^ ^ ^ M &.z.%.u } e.z.'                                                                 $.z.e. .{ z.;.B ^ ^ ^ Q h     ",
"G +   d Q ^ I I T 3.z.%.r } e.z.$.                                                                $.z.e. .{ z.5.I I I ^ Q h   + ",
"H .   h I ^ I m ) u.z.o.u } e.z.$.                                                                $.z.e. .{ z.i.` B P ^ I d     ",
"G +   f Q ^ m m >.z.z.*.u } e.z.$.                                                                %.z.e.| { z.z.3.m m ^ R d   + ",
"G 9 + f I ^ m W w.z.z.*.r ) 0.h.'                                                                 ' j.0.| { z.z.e.W m ^ Q h   7 ",
"F s + p Q ^ m $.h.z.z.*.u ) >.3.E                                                                 E 3.>.| { z.z.j.-.M ^ Q d + d ",
"H z + u T ^ M 3.z.z.z.*.u X.^ ^ M                                                                 M ) ^ | { z.z.z.3.M ^ I u . x ",
"H S X 2 P ^ m 3.z.z.z.%.u P M m i                                                                 d M m P { z.z.z.5.m ^ I 5 + S ",
"H H X   L ^ B 3.z.z.z.*.y p w w @                                                                 5 w w g { z.z.z.3.m ^ P   X G ",
"H H 9 + m Q m ^ &.r.z.*.y y @ @ +                                                                 + @ @ y { x.e.&._ m ^ m   7 H ",
"G H a + f Q m m B 3.z.$.r / B b w                                                                 5 b B / { x.:.P B m Q h + s H ",
"G H l + u P B m m { g.%.y k.e.(                                                                   X E w.g.o.h.$.v M L P u + k H ",
"G H S + 2 v P P P W 7.%.y x.x.{ 7                                                                   { l.x...8.Q I P P m 6 X S H ",
"H H H $   p I ^ ^ P %.%.r x.z.{ r                                                                 i { z.x.o.&.L ~ Q I p . $ H H ",
"H < < % + 7 m ^ ^ P { 7.M z.z.X.u                                                                 i ..k.k.2.&.M ~ Q L 9   8 H H ",
"H H < : . @ h I ^ L | p.( 8.p.{ u                                                                 i ..a.9.a.&.L ^ Q h @ $ C H H ",
"H H H < # . r L Q L $.z.4.&.e.$.i                                                                 i ..t.o.l.%.L ^ P u   3 H H H ",
"H H H H q . 5 v I B $.z.r.B -.( u                                                                 i ( -.Y l.&.N I v 6 X q H H H ",
"H H H H D 3   i I P | z.k.p R T i                                                                 i Y Q d l.&.L I p   # Z H H H ",
"H H H H H 0 . 7 M L ^ 3.e.@ m B i                                                                 i M j 5 4.^ L L 7 X 0 D H H H ",
"H H H H H C # + m B M R -.7 r h i                                                                 i h r w E B M m 1 . : D D H H ",
"H H H H H H 8 . h B m m ' @ @ r i                                                                 i y + @ n v P m   # H H H H H ",
"H H H H H D q $ m I B m ( y + r i                                                                 i w X y n P I v . * F < < < H ",
"H H H H H H Z - h Q Q B ^ m + r r                                                                 i r @ j B Q Q c # D < < < H H ",
"H H H H H H H - m Q ^ B _ B @ r u                                                                 i 7 2 N P ^ ^ v - D < < H H H ",
"H H H H H H H - m Q ^ B _ B 5 r u                                                                 i r 2 N P ^ ^ v - H H H H H H ",
"H H H H H H H - m ^ ^ B ( B @ 7 u                                                                 i 7 2 N P ^ ^ v = H H H H H H ",
"H H H H H H H 8 c ^ I M ) N 2 7 i                                                                 i 7 5 N m I ^ v 8 H H H H D H ",
"H H H H H H H * c ^ P m _ B 2 9 i                                                                 i 7 2 B v P ^ v - H H H H H H ",
"H H H H H H H - v ^ L M %.B 2 7 i                                                                 i 7 5 B M L ^ v - H H H H H H ",
"H H H H H H H ; h ^ P I w.B 2 r i                                                                 i 7 5 B W L ^ v - H H H H H H ",
"H H H H H H H - j ^ P ' z.N 2 w i                                                                 i 7 2 P X.L ^ v - H H H H H H ",
"H H H H H H H - j ! P T -.N 2 5 7     @ + + @   +     @   @ + + + @ + + + + @ +   +   @ + + + +   7 5 2 B R L ^ v - H H H H H H ",
"H H H H H H H 8 j ^ P M P N 2 + @     r 2 @ r   7 2 @ r   r 2 + i u + 2 7 + u + 2 r + r @ 5 7     @ @ 2 N M B ^ v - H H H H H H ",
"H H H H H H H * j ^ P M v B 2     +   i r 7 m + i r 7 m @ p r 7 v m 5 r p + h 7 r i + h 5 r i + +     2 N m P ^ n = H H H H H H ",
"H H H H H H H - j ^ Q P m N 2   + r 7 p i u p r p i u h r d p i h m u p d r h u i d 7 v u i p r 9 +   2 N I I ^ v - H H H H H H ",
"H H H H < < H ; j ^ ^ ^ I B 2   @ f h m f m m p m m h h h c h h m h h h v h m h v h h v h v v f h 2   2 N Q ^ ^ v = < < H H H H ",
"H H H H H < < - d I I I M N 2 + r m m c m h m m h m h m m h v h h m h v h v h m h v v c v v v v v 7 + 2 N I I Y h # < H H H H H ",
"H < < < H < < - i m m m m L 2 2 p h h c h m h h h h h m h m c c v h m h m h m h v v v c v h h v v p 5 2 N m m M p # < H < < < H ",
"H H < < < H < - w h d d h n 2 r m m c m m m m m m m m m m v v v m m m m m m m m v m v m m v m v m m 7 2 n f h h y $ H < < < H H ",
"H H H < < H H - 2 w w w 7 d + u P P L L L P L P L P L m P P P P L L L P m P P m P L P L L P L P L P u + g w w 7 2 - H < < H H G ",
"H H H H H H H -   +   X X w   p Q Q Q Q Q Q Q Q Q Q Q Q Q Q Q Q Q Q Q Q Q Q Q Q Q Q Q Q ^ Q Q Q Q ^ p   w     X X = H H H H H H ",
"H H H H H H H F H F H H H H H H H H H H F D H H H H H H H H H H H F H H H H G G H H H H H H H H D H H H H H H H H H H H H H H H "
};
