/* XPM */
static char *_b244407ffa54c22e9786c046a5ccd50b5swtCz2SB73l6E9[] = {
/* columns rows colors chars-per-pixel */
"64 64 233 2 ",
"   c #2B2D27",
".  c #292928",
"X  c #2E2728",
"o  c #322C2A",
"O  c #342A28",
"+  c #2A322C",
"@  c #2D3C2D",
"#  c #2E3825",
"$  c #313C23",
"%  c #3B3128",
"&  c #3B3426",
"*  c #382D33",
"=  c #2B3B34",
"-  c #2A3530",
";  c #353736",
":  c #2E2E35",
">  c #5A3B1E",
",  c #633F1D",
"<  c #562627",
"1  c #443425",
"2  c #473828",
"3  c #543E28",
"4  c #543C26",
"5  c #473637",
"6  c #50302F",
"7  c #692125",
"8  c #742225",
"9  c #7A1F24",
"0  c #3A551E",
"q  c #3C5D1C",
"w  c #3F631B",
"e  c #2F402F",
"r  c #2E4C2E",
"t  c #334422",
"y  c #364924",
"u  c #3A5A27",
"i  c #2D4A3C",
"p  c #2C4439",
"a  c #304530",
"s  c #324C32",
"d  c #394A39",
"f  c #365A36",
"g  c #395E39",
"h  c #375535",
"j  c #2B562E",
"k  c #3A663A",
"l  c #3B6B3B",
"z  c #356933",
"x  c #307030",
"c  c #3E753E",
"v  c #3F783F",
"b  c #39602E",
"n  c #52551B",
"m  c #75461A",
"M  c #684F19",
"N  c #426B19",
"B  c #43681B",
"V  c #497D14",
"C  c #477617",
"Z  c #517D1D",
"A  c #47432D",
"S  c #5C4229",
"D  c #57452A",
"F  c #524237",
"G  c #455438",
"H  c #59593D",
"J  c #4A4E34",
"K  c #674828",
"L  c #784D25",
"P  c #7B5128",
"I  c #7B5027",
"U  c #644A37",
"Y  c #69503D",
"T  c #704531",
"R  c #476025",
"E  c #45683A",
"W  c #51742D",
"Q  c #6D7139",
"!  c #636516",
"~  c #3B3B46",
"^  c #3F3E52",
"/  c #58364A",
"(  c #4D3343",
")  c #663A54",
"_  c #733E5D",
"`  c #773F60",
"'  c #2F5443",
"]  c #335B46",
"[  c #3E4543",
"{  c #34634B",
"}  c #337548",
"|  c #347B4F",
" . c #336D52",
".. c #357657",
"X. c #484848",
"o. c #464559",
"O. c #555854",
"+. c #544A46",
"@. c #734753",
"#. c #416F41",
"$. c #496A47",
"%. c #417D41",
"&. c #427342",
"*. c #4B7451",
"=. c #7A6548",
"-. c #4E4E79",
";. c #505269",
":. c #7D4164",
">. c #765568",
",. c #6E6D6E",
"<. c #9C1C22",
"1. c #891E23",
"2. c #A41B22",
"3. c #B51921",
"4. c #812427",
"5. c #864D16",
"6. c #935413",
"7. c #8E5214",
"8. c #A85910",
"9. c #B16A0B",
"0. c #845628",
"q. c #885828",
"w. c #895323",
"e. c #995B23",
"r. c #855730",
"t. c #A65E2D",
"y. c #9C6539",
"u. c #AD6322",
"i. c #B86820",
"p. c #B36621",
"a. c #B96436",
"s. c #8E760D",
"d. c #CF6A08",
"f. c #C77C3F",
"g. c #986B4B",
"h. c #8A6B4A",
"j. c #AE7852",
"k. c #874569",
"l. c #964F79",
"z. c #A14B7E",
"x. c #BA5C64",
"c. c #935144",
"v. c #4C8413",
"b. c #4E8B11",
"n. c #548A16",
"m. c #529211",
"M. c #5B9B15",
"N. c #5C941A",
"B. c #629E1B",
"V. c #678510",
"C. c #66A519",
"Z. c #6CAC1B",
"A. c #63A218",
"S. c #74B41E",
"D. c #70AF1D",
"F. c #659722",
"G. c #78B820",
"H. c #76B422",
"J. c #6DA52E",
"K. c #5B8721",
"L. c #378E59",
"P. c #378A64",
"I. c #378B65",
"U. c #389168",
"Y. c #399B69",
"T. c #3C9567",
"R. c #3BA76A",
"E. c #3CB763",
"W. c #3CB76C",
"Q. c #428442",
"!. c #448B44",
"~. c #479347",
"^. c #489748",
"/. c #489848",
"(. c #489848",
"). c #568B56",
"_. c #679454",
"`. c #709550",
"'. c #68A35E",
"]. c #73A75B",
"[. c #7EAF50",
"{. c #459665",
"}. c #5B9E60",
"|. c #539B62",
" X c #418B60",
".X c #46B069",
"XX c #6A9B6A",
"oX c #3EC56E",
"OX c #3FCC6F",
"+X c #3FD16F",
"@X c #40D870",
"#X c #40D670",
"$X c #40CC6E",
"%X c #83BC35",
"&X c #A4993A",
"*X c #86AD56",
"=X c #8AB056",
"-X c #82B459",
";X c #96B554",
":X c #97AA4C",
">X c #A1B951",
",X c #A8B54B",
"<X c #8B9C63",
"1X c #E49964",
"2X c #DB8F58",
"3X c #94C650",
"4X c #B8C24C",
"5X c #9FC66F",
"6X c #CCCA48",
"7X c #D2C844",
"8X c #E5D442",
"9X c #575888",
"0X c #5A5994",
"qX c #605D9B",
"wX c #6767B2",
"eX c #656C8B",
"rX c #7272CB",
"tX c #AB4E85",
"yX c #B7528B",
"uX c #BE5492",
"iX c #AF5187",
"pX c #C75698",
"aX c #D95CA5",
"sX c #E25EAC",
"dX c #E860B0",
"fX c #E760AF",
"gX c #789581",
"hX c #8F8E90",
"jX c #ADADAD",
"kX c #90B18C",
"lX c #B5D48D",
"zX c #A9DDB0",
"xX c #DBE2D2",
/* pixels */
"/./././././././././././././././.(.(.(.(.(.(.^.^.v f r s r r s r s s h l ~.~.(.(.(.(.(.(.(.(.(.(.(.(.(.(.(.(.(.(.(.(.(.(.(.(.(.(.",
"/./././././././././././././././.(.(.(.~.~.~.~.~.k a                 @ g L.!.~.~.~.~.(.(.(.(.(.(.(.(.(.(.(.(.(.(.(.(.(.(.(.(.(.(.",
"/./././././././././././././././.(.(.~.v l z k k b u q 0 q 0 0 0 0 0 q u k k b l v !.(.(.(.(.(.(.(.(.(.(.(.(.(.(.(.(.(.(.(.(.(.(.",
"/./././././././././././././././.(.(.!.l e e @ @ u N V V V V V V V V C q y @ @ $ f Q.(.~.(.(.(.(.(.(.(.(.(.(.(.(.(.(.(.(.(.(.(.(.",
"/./././././././.(.(.(.~.Q.!.~.^.Q.Q.W b t $ $ $ w v.M.m.M.M.M.M.M.M.N.B y $ $ $ h l !.!.~.~.!.Q.!.~.(.(.(.(.(.(.(.(.(.(.(.(.(.(.",
"/./././././././.(.(.~.E g l Q.^.L.k j b w w w w Z N.Z.Z.C.C.C.Z.C.C.B.N.K.W N B q b k c !.!.c k l !.(.(.(.(.(.(.(.(.(.(.(.(.(.(.",
"/./././././././.(.(.L.b + s c ~.l a $ q V b.m.b.M.Z.S.S.S.S.S.S.S.S.S.H.H.C.N.b.w y + k !.Q.f + s E (.(.(.(.(.(.(.(.(.(.(.(.(.(.",
"/././././././.^.!.v E H Y H E c h @ # w v.m.M.M.C.S.S.S.S.S.S.Z.Z.Z.Z.C.Z.C.M.m.N t + s k E H Y H E Q.L.~.(.(.(.(.(.(.(.(.(.(.(.",
"/././././././.~.c f G =.j.h.H s #   # w v.m.C.Z.S.G.G.S.G.D.C.M.B.M.M.M.M.M.m.b.w t   # a G h.j.h.H s l !.(.(.(.(.(.(.(.(.(.(.(.",
"/././././././.~.z e 5 g.1Xj.Y   . . # q b.M.D.S.S.S.S.S.S.Z.M.b.b.b.b.b.m.m.m.m.C t       F g.1Xj.U + f Q.(.(.(.(.(.(.(.(.(.(.(.",
"/././././././.~.k e 5 g.1Xj.Y . . . # w b.M.C.S.S.Z.C.C.C.N.V w w q B V b.b.b.m.v.w 0 t o F g.1Xj.H   f Q.(.(.(.(.(.(.(.(.(.(.(.",
"/././././././.!.k @ A g.1Xj.Y . . . # q v.M.Z.S.Z.A.M.m.N.v.q $ $ # t B v.m.m.m.b.b.w 0 @ F g.1Xj.U # u Q.(.(.(.(.(.(.(.(.(.(.(.",
"/././././././.~.k e 5 h.2Xj.U X % 1 > B C n.A.D.M.n.V v.m.V 0 $ $ $ t w v.m.v.V v.V.! ! $ D g.2Xg.U   f Q.(.(.(.(.(.(.(.(.(.(.(.",
"/././././././.~.k @ 2 r.f.y.K O > m 7.M n B n.A.n.B w N v.v.C w w w B C b.V N 0 ! s.&XM 1 1 y.f.y.S + f Q.(.(.(.(.(.(.(.(.(.(.(.",
"/././././././.~.k e 1 L p.w.3 X m d.d.5.& t N m.N t $ q v.m.b.b.b.b.b.m.m.V 0   M 9.d.6.1 > m i.0.3 + f Q.(.(.(.(.(.(.(.(.(.(.(.",
"/././././././.~.k @ 1 L u.e.L S m 8.8.7.m n n B B 0 u C M.M.A.M.M.M.A.J.[.`.W y M 6.8.m & 1 L 9.w.3   f Q.(.(.(.(.(.(.(.(.(.(.(.",
"/././././././.~.k e 1 L u.u.6.w.I m m 6.8.6.M t 0 w V n.C.Z.Z.Z.Z.Z.H.5XlX5X`.C n M , 4 X 2 I p.w.4 . f Q.(.(.(.(.(.(.(.(.(.(.(.",
"/./././././.^.~.k e & L u.i.i.p.I 1 1 6.d.d.m O n C m.M.S.S.S.S.G.G.%XlXxXxX;Xm.w t . X o 2 5.p.w.4 + f Q.(.(.(.(.(.(.(.(.(.(.(.",
"/./././././.^.~.k @ 1 L u.i.i.p.5.1 % , 6.6.7.m M B N v.B.C.C.C.Z.H.%X3XlX5X*Xm.w 0   1 S L e.p.0.4   f Q.(.^.^.(.(.(.(.(.(.(.(.",
"/./././././.~.~.k e & L u.i.i.p.L 2 X % 1 m 8.d.6.S y N n.M.m.M.C.D.G.G.3X=XC.m.w t % 4 w.u.u.p.w.4 + f Q.(.(.^.(.(.(.(.(.(.(.(.",
"/././././././.~.c r y L e.e.e.e.r.6 5 * X > 6.d.7.4   0 C v.b.b.A.Z.S.G.%XZ.M.m.w 0   K t.a.u.t.r.+.O.O.%.!.~.^.(.(.(.(.(.(.(.(.",
"/././././././.~.Q.c G J K K K K @.k.k./ O 1 , 5., %   $ 0 w V m.M.D.S.G.S.D.A.m.w 0 % @.x.x.c.K >.<XhXXX*.#.%.^.(.(.(.(.(.(.(.(.",
"/./././././././.(.(.E f o O O % _ yXuX:.* X X O o . . . . t N m.A.D.G.G.S.D.B.n.N t * :.pXyX_ 5 ,.jXxXkXO.d &.^.(.(.(.(.(.(.(.(.",
"/./././././././.(.(.~.c s e + : _ pXaXz._ ) ) / 5 X . . . t w m.M.C.D.S.H.Z.N.C R F _ k.tXl.l.,.hXjXjXl.O.[ #.~.(.(.(.(.(.(.(.(.",
"/./././././././././.~.Q.E z e X _ pXsXpXiXiXiXiX` ( . . . $ B m.m.M.M.Z.S.A.Z y +.k.tXk.:.>.hXjXhXhX,.O.X.d $.~.(.(.(.(.(.(.(.(.",
"/./././././././././././.(.Q.h X _ yXsXsXfXfXsXsXz./ : X . t B m.m.m.m.C.S.B.R . ) tXpXk.5 O.jXxXjX,.X.~ ; d E ~.(.(.(.(.(.(.(.(.",
"/./././././././././././.(.} s . ( ` z.pXsXfXdXsXuXz._ ( o t N b.m.m.m.C.S.F.R . ( :.k.) * X.,.hXhXeX-.o.X.d } !.(.(.(.(.(.(.(.(.",
"/./././././././././././.(.E s . * 6 ) l.aXdXdXfXaXpXiX_ * t B m.b.b.m.C.S.F.R . * * ( * . : ; X.9XwXrX9Xo.d $.~.(.(.(.(.(.(.(.(.",
"/./././././././././.^.!.Q.l G & O % 6 k.yXpXpXpXaXaXaXl./ 5 R C v.b.m.A.S.F.R . . . . X % % % % ;.qXwX9X[ [ } ~.(.(.(.(.(.(.(.(.",
"/./././././././././.!.c b G J S K 3 3 @.:.:.:.:.tXpXaXuXl.k.H 0 N v.m.C.S.F.R . . . . 1 3 S S S +.;.9Xo.( d &.^.(.(.(.(.(.(.(.(.",
"/././././././././.~.!.f @ 2 S P 0.0.T 3 % * * : ` pXsXsXsXiX@.  0 C M.A.D.F.R . . . X 3 L 0.0.0.K 5 * : ; d $.^.(.(.(.(.(.(.(.(.",
"/./././././././.!.%.E G 2 D L q.I L K J i i f ] O.l.iXtXtXk./ . t q N Z K.Z E i = - o 3 P 0.q.q.K 1 . X : J } ^.(.(.(.(.(.(.(.(.",
"(.(.(.(.(.(.(.^.c f d J K L P q.K D ; h { L.L.L.*.O.) ) ) / *   # t y y u G k  .' =   4 I q.q.q.K 2 . + ; [ } ~.(.(.(.(.(.(.(.(.",
"(.(.(.(.x x (.!.k $ % D P 0.q.q.K & = { P.R.oX+XL.f + + + - - + + + + + + i  .U. .p O D L q.0.0.K 5 : ; ; O.&.~.(.(.(.(.(.(.(.(.",
"(.(.(.(.(.x x ~.k + o 2 D K P q.S & = ] P.U.R.W.R.L.} } } } } } } } } } } | L.I. .p   4 L P K K +.;.-.o.[ $.E zX(.(.(.(.(.(.(.(.",
"(.x x x (.x x ~.k @   X % 3 K P K % = ] P.U.Y.Y.R.R.E.E.E.E.E.W.E.E.E.E.E.R.R.U. .p O D P P S & / 0XrX9Xo.X.XXzX(.(.(.(.(.(.(.(.",
"(.(.x x x (.x ~.c e @   . & S L D ; i  .P.U.U.U.R.oX+X+X@X@X@X@X@X@X+X+XOXW.R.U. .' = J K T ( ^ 9XqXrXeXo.X.gXj (.(.(.(.(.(.(.(.",
"(.(.(.x x (.(.^.Q.l f #   O 1 3 J ]  ...P.U.U.U.E.oX@X+X@X@X@X@X@X+X+XoXW.R.Y.U.P. .] X.A +.;.qX0X0X-.eXXXkXj j (.(.(.(.(.(.(.(.",
"(.(.(.(.(.(.(.(.~.~.} f + . X + '  .P.I.U.U.U.U.R.OX@X@X@X@X@X@X@X@XOXW.R.U.U.U.U.U.P.{ @ ( 0XrXwX-.~ d i j ~.(.(.(.(.(.(.(.(.(.",
"(.(.(.(.(.(.(.(.(.^.!.c h e + + G _.'.|.T.U.U.U.R.E.oXoXW.oX#X#X@X@XOXW.Y.U.U.U.|._._.$.= ~ -.wX0X .] s j j (.(.(.(.(.(.(.(.(.(.",
"(.(.(.(.(.(.(.(.(.(.^.Q.v k e X Q :X>X].{.U.U.U.Y.R.R.R.R.W.$X#X@X@X+XW.Y.U.U.U.'.;X,XQ d : ( -.;.*.%.!.~.(.(.(.(.(.(.(.(.(.(.(.",
"(.(.(.(.(.(.(.(.(.(.(.(.^.c h X r.&X7X=X|.{.{.{. XT.I.U.U.Y.W.$X+X+X#XW.{.{.{.{.].4X7X&XA X = d G %.^.(.x x (.(.(.(.x x (.(.(.(.",
"(.(.(.(.(.(.(.(.(.(.(.(.(.v s + W <X:X;X=X=X=X*X'.{.U.U.U.Y.R.W.W.W..X'.-X=X=X=X;X;X:XQ & = d k %.!.(.(.(.x x (.(.x x (.(.(.(.(.",
"(.(.(.(.(.(.(.(.(.(.(.(.(.c s   $.).'.;X6X6X6X6X;X}.U.U.U.U.Y.Y.R.R..X[.4X6X6X6X>X].|.] = @ f Q.!.x x x (.x x (.(.x x (.x x x (.",
"(.(.(.(.(.(.(.(.(.(.(.(.^.%.s . i  .).:X4X6X6X6X>X].}.}.}.}.}.}.}.}.].;X4X6X6X6X:X_...' + = k ^.^./.x x x (.x (.(.x (.x x x (.(.",
"(.(.(.(.(.(.(.(.(.(.(.(.^.} s . = i ] ).[.*X*X*X;X;X>X>X>X>X;X;X>X>X;X;X=X=X*X*X_.$.' p   e k ^.^.^./.x x (.(.(.(.(.(.x x (.(.(.",
"(.(.(.(.(.(.(.(.(.(.(.(.^.E s . .   p {  X{.{.{.-X4X8X8X8X8X8X8X8X8X6X;X}.{.T.{. .i X . . = k ^././././.(.(.(.(.(.(.(.(.(.(.(.(.",
"(.(.(.(.(.(.(.(.(.(.(.(.(.%.s . O < 6 J  . . . ._.:X4X4X4X4X4X4X4X4X,X`.*... ...' = + @ a g v (././././.(.(.(.(.(.(.(.(.(.(.(.(.",
"(.(.(.(.(.(.(.(.(.(.(.(.(.v r X < 9 4.6 ; i p i $._.].].XX'.].].].'._.*.' p p = = +   s l W !.~././././././././././././././././.",
"(.(.(.(.(.(.(.(.(.(.(.(.(.c h X 7 <.2.9 1 O X X [ ..P.P.P.P.P.P.P.P.P.] - . . . . . + f L.~.~.~././././././././././././././././.",
"(.(.(.(.(.(.(.(.(.(.(.(.(.} r X 7 <.3.1.9 7 7 7 3 ] ] { { { { ' { { ] p . . . . . .   a u c L.!././././././././././././././././.",
"(.(.(.(.(.(.(.(.(.(.(.(.(.E s X 7 2.3.3.2.2.2.2.8 * = = = = = . = = - - . . . . . . . + @ r c ^././././././././././././././././.",
"(.(.(.(.(.(.(.(.(.(.(.(.(.E f X < 1.2.2.2.2.2.2.8 6 . . . . . . . . . . . . . . . . . . . e k ^././././././././././././././././.",
"(.(.(.(.(.(.(.(.(.(.(.(.(.Q.s . < < 7 7 7 7 7 7 < O . . . . . . . . . . . . . . . . . . . e k ^././././././././././././././././.",
"(.(.(.(.(.(.(.(.(.(.(.(.(.E s   X X X X X O X X X . . . . . . . . . . . . . . . . . . .   e k ~././././././././././././././././.",
"(.(.(.(.(.(.(.(.(.(.(.(.(.Q.k r @ . X . . . . . . . . . . . . . . . . . . . . . . . . + e f v ~././././././././././././././././.",
"(.(.(.(.(.(.(.(.(.(.(.(.(.~.L.l f @ . . . . . . . . . . . . . . . . . . . . . . . .   s k %.!.^././././././././././././././././.",
"(.(.(.(.x x (.(.(.(.x x (.(.(.~.l e       . . . . . . . . . . . . . . . . . . .     @ g !./.(.(././././.x x /./././.x x /./././.",
"(.(.(.(.(.x x (.(.x x (.(.(.(.~.v l f u f r $ . . . . . . . . . . . . . . + - j h f k } !.(.(.(./././././.x x /./.x x /././././.",
"(.x x x (.x x (.(.x x (.x x x (.~.Q.Q.Q.L.b a . . . . . . . . . . . . . . e b } Q.Q.Q.!.^.(.(.(./.x x x /.x x /./.x x /.x x x /.",
"(.(.x x x (.x (.(.x (.x x x (.(.(.(.(.(.~.L.f @ . + @ @ $ @ @ @ @ @ @ @ @ j } ^././././././././././.x x x /.x /./.x /.x x x /./.",
"(.(.(.x x (.(.(.(.(.(.x x (.(.(.(.(.(.(.~.!.v k z k k k k k k k k k k k k c Q.^./././././././././././.x x /./././././.x x /././.",
"(.(.(.(.(.(.(.(.(.(.(.(.(.(.(.(.(.(.(.(.(.(.~.~.~.~.~.!.~.~.~.~.~.~.~.~.~.~.^.^././././././././././././././././././././././././.",
"(.(.(.(.(.(.(.(.(.(.(.(.(.(.(.(.(.(.(.(.(.(.(.(.~.(.(.(.(.^.^.^.^.^.(.(.^.(.(.^././././././././././././././././././././././././."
};
