/* XPM */
static char *_26da67e3d194639997f6383d8a9070cv9vJyuVNYaaJXc2a[] = {
/* columns rows colors chars-per-pixel */
"64 64 230 2 ",
"   c #292928",
".  c #2C2A27",
"X  c #342D27",
"o  c #312C29",
"O  c #392927",
"+  c #2A312B",
"@  c #2E3B2E",
"#  c #2E3825",
"$  c #3A3529",
"%  c #392D33",
"&  c #2B3A33",
"*  c #3A3F39",
"=  c #343635",
"-  c #2D2F32",
";  c #7F1F23",
":  c #472626",
">  c #582325",
",  c #463728",
"<  c #533B25",
"1  c #553C27",
"2  c #483835",
"3  c #52353B",
"4  c #6A2D29",
"5  c #5D3C1E",
"6  c #3A571E",
"7  c #374F1F",
"8  c #3E631C",
"9  c #2F412F",
"0  c #2C4E2C",
"q  c #354724",
"w  c #3A5627",
"e  c #2D473A",
"r  c #304530",
"t  c #324B32",
"y  c #32493B",
"u  c #2E5139",
"i  c #355435",
"p  c #365B36",
"a  c #395E39",
"s  c #395938",
"d  c #295729",
"f  c #396539",
"g  c #3C6C3B",
"h  c #3A6734",
"j  c #307030",
"k  c #3D733D",
"l  c #3F793F",
"z  c #2F652F",
"x  c #6E431B",
"c  c #794C17",
"v  c #446B1A",
"b  c #487917",
"n  c #47452C",
"m  c #594128",
"M  c #435926",
"N  c #474834",
"B  c #554234",
"V  c #5C4739",
"C  c #525632",
"Z  c #684626",
"A  c #764B25",
"S  c #7D5328",
"D  c #674C38",
"F  c #755332",
"G  c #456737",
"H  c #496F2B",
"J  c #726835",
"K  c #736D13",
"L  c #3A3A50",
"P  c #4D3443",
"I  c #59364A",
"U  c #663A54",
"Y  c #6C3C57",
"T  c #723E5C",
"R  c #683E42",
"E  c #2E5241",
"W  c #325945",
"Q  c #2E4F40",
"!  c #31654D",
"~  c #3E6245",
"^  c #347255",
"/  c #357C5C",
"(  c #336B51",
")  c #454645",
"_  c #464A57",
"`  c #575657",
"'  c #51554F",
"]  c #754758",
"[  c #6E474A",
"{  c #416640",
"}  c #44694B",
"|  c #417B41",
" . c #4E7148",
".. c #507450",
"X. c #7B6554",
"o. c #535378",
"O. c #485265",
"+. c #7C4465",
"@. c #737377",
"#. c #4D6267",
"$. c #861E23",
"%. c #931D22",
"&. c #8A2224",
"*. c #A0291E",
"=. c #C21B1F",
"-. c #CD3018",
";. c #8F4E15",
":. c #A35713",
">. c #B2580F",
",. c #8D5522",
"<. c #895829",
"1. c #845226",
"2. c #8E5531",
"3. c #95643F",
"4. c #AA6323",
"5. c #B96A23",
"6. c #AC6D39",
"7. c #A3710D",
"8. c #D34811",
"9. c #C8660A",
"0. c #C97706",
"q. c #D97604",
"w. c #E87503",
"e. c #F57700",
"r. c #EF6905",
"t. c #C77937",
"y. c #E0550C",
"u. c #8C5056",
"i. c #996A46",
"p. c #8C6750",
"a. c #AB7348",
"s. c #A87552",
"d. c #B77E56",
"f. c #B07648",
"g. c #89446C",
"h. c #824668",
"j. c #9A4A78",
"k. c #904A6D",
"l. c #A24D7D",
"z. c #CD7F40",
"x. c #4F8D10",
"c. c #4C8413",
"v. c #558919",
"b. c #539311",
"n. c #5B9916",
"m. c #6B8C0D",
"M. c #729213",
"N. c #61A117",
"B. c #65A518",
"V. c #6CAB1B",
"C. c #73B31E",
"Z. c #70A719",
"A. c #5C8823",
"S. c #649322",
"D. c #728536",
"F. c #78B820",
"G. c #77B720",
"H. c #71AB21",
"J. c #379357",
"K. c #378B65",
"L. c #3A9668",
"P. c #3CB66C",
"I. c #3AA46A",
"U. c #428442",
"Y. c #458B45",
"T. c #479447",
"R. c #489748",
"E. c #489848",
"W. c #528A57",
"Q. c #779F54",
"!. c #6CA55A",
"~. c #5B9E60",
"^. c #469865",
"/. c #6B9A6F",
"(. c #3FCF6F",
"). c #40D470",
"_. c #7CD45F",
"`. c #93870B",
"'. c #B08207",
"]. c #998C36",
"[. c #C6932B",
"{. c #E5CE3F",
"}. c #BB835A",
"|. c #8FAF53",
" X c #A6BB50",
".X c #AFB94A",
"XX c #938F5E",
"oX c #D28953",
"OX c #E09051",
"+X c #E5965B",
"@X c #CD9162",
"#X c #EA9C65",
"$X c #BFD44D",
"%X c #CECB47",
"&X c #EDD641",
"*X c #55568A",
"=X c #5B6190",
"-X c #6C6CB0",
";X c #666A9F",
":X c #6E6EC1",
">X c #7373CC",
",X c #7F7FED",
"<X c #A84D83",
"1X c #B6528D",
"2X c #BE5492",
"3X c #AD5287",
"4X c #907987",
"5X c #C85799",
"6X c #D0599F",
"7X c #D85BA5",
"8X c #E45FAD",
"9X c #E760AF",
"0X c #E860B0",
"qX c #789487",
"wX c #979595",
"eX c #ABABAB",
"rX c #A5A4A7",
"tX c #B6B6B6",
"yX c #9B9B99",
"uX c #A3D5AA",
"iX c #B0E8B8",
"pX c #ABABC9",
"aX c #8D8DF0",
"sX c #B2B2F1",
"dX c #8F8FC4",
"fX c #CACACC",
"gX c #CECEF4",
"hX c #EBEBEB",
"jX c #F5F5F8",
"kX c #E0CBB8",
/* pixels */
"E.E.E.E.E.E.E.E.E.E.E.E.E.E.E.E.E.E.E.E.E.E.T.T.T.T.E.E.E.E.E.E.E.E.E.E.E.E.E.E.E.E.E.E.E.E.E.E.E.E.E.E.E.E.E.E.E.E.E.E.E.E.E.E.",
"E.E.E.E.E.E.E.E.E.E.E.E.E.E.E.E.E.E.E.E.E.E.T.J.T.Y.Y.Y.Y.Y.Y.Y.Y.T.E.E.E.E.E.E.E.E.E.E.E.E.E.E.E.E.E.E.E.E.E.E.E.E.E.E.E.E.E.E.",
"E.E.E.E.E.E.E.E.E.E.E.E.E.E.E.E.E.E.E.E.E.E.E.A.k p f p f p f p p g Y.E.E.E.E.E.E.E.E.E.E.E.E.E.E.E.E.E.E.E.E.E.E.E.E.E.E.E.E.E.",
"E.E.E.E.E.E.E.E.E.E.E.E.E.E.E.E.E.E.E.E.E.E.E.J.s + + + + + .   + i ~ E.E.E.E.E.E.E.E.E.E.E.E.E.E.E.E.E.E.E.E.E.E.E.E.E.E.E.E.E.",
"E.E.E.E.E.E.E.E.E.E.E.E.E.E.E.E.E.E.E.E.E.Y.^ h w q q M M M M w q w h l T.E.E.E.E.E.E.Y.l l Y.E.E.E.E.E.E.E.E.E.E.E.E.E.E.E.E.E.",
"E.E.E.E.E.E.E.E.E.E.E.R.E.E.E.E.E.E.E.E.E.l w w 8 b v.S.S.S.A.v.b 8 w i k T.E.E.E.E.E.k p f ~ E.E.E.E.E.E.E.E.E.E.E.E.E.E.E.E.E.",
"E.E.E.E.E.E.E.E.E.E.E.T.Y.Y.T.R.E.E.R.T.A.! q q b n.B.C.C.F.G.B.b.b 7 # p J.A.J.Y.Y.Y.G N y { Y.Y.E.E.E.E.E.E.E.E.E.E.E.E.E.E.E.",
"E.E.E.E.E.E.E.E.E.E.E.U.g f | R.E.E.Y.k p d 6 b v.B.V.F.G.F.C.B.b.c.b 6 w p p p s s s ` h.h.' p k Y.E.E.E.E.E.E.E.E.E.E.E.E.E.E.",
"E.E.E.E.E.E.E.E.E.E.E.k t r g E.E.E.U.i + w b n.V.C.F.F.C.C.C.N.b.x.x.b 6 . . . . . . ] 1X1XT - p U.E.E.E.E.E.E.E.E.E.E.E.E.E.E.",
"E.E.E.E.E.E.E.E.R.U.k h M M h k k G f r   6 v.B.C.F.F.F.C.Z.Z.N.b.m.m.`.K c < $ - P T j.6X2XT   p Y.E.E.E.E.E.E.E.E.E.E.E.E.E.E.",
"E.E.E.E.E.E.E.E.Y.g t M A.A.H 9 t r # +   v S.C.C.F.C.F.C.V.n.n.b.`.7.'.9.9.;.< % +.1X6X8X2X]   p J.E.E.E.E.E.E.E.E.E.E.E.E.E.E.",
"E.E.E.E.E.E.E.E.Y.p + M S.Z.H q # # # #   M S.C.C.C.C.C.Z.M.m.m.m.`.w.e.r.q.:.4 U <X0X0X0X2XT   u A.E.E.E.E.E.E.E.E.E.E.E.E.E.E.",
"E.E.E.E.E.E.E.E.Y.p . M S.H.S.H H v 6 # . 8 x.N.N.N.N.N.M.`.'.0.'.'.w.w.>.;.2.g.<X5X8X0X0X2XT   u Y.E.E.E.E.E.E.E.E.E.E.E.E.E.E.",
"E.E.E.E.E.E.E.E.Y.p + M S.F.F.|.B.n.b 6 . 6 b x.b.b.b.b.`.'.[.e.e.e.e.q.;.X Y 1X0X0X0X0X0X2XT   p U.E.E.E.E.E.E.E.E.E.E.E.E.E.E.",
"E.E.E.E.E.E.E.E.Y.h . 6 b.B.C.F.V.B.m.b 7 v x.c.b v K m.'.q.e.9.>.:.:.:.2.T l.5X0X0X0X0X0X2XT   u A.E.E.E.E.E.E.E.E.E.E.E.E.E.E.",
"E.E.E.E.E.E.E.E.Y.p # 7 c.N.Z.F.G.C.B.b.b b x.b 6 $ K 0.q.e.r.:.x < 5 1 g.1X6X8X0X0X0X0X0X2XT   u J.E.E.E.E.E.E.E.E.E.E.E.E.E.E.",
"E.E.E.E.E.E.E.E.Y.g 9 w 8 c.N.Z.C.C.V.N.x.x.b v M m ,.9.9.9.9.,.I P P U <X7X0X0X7X7X2X5X5Xl.U + p U.E.E.E.E.E.E.E.E.E.E.E.E.E.E.",
"E.E.E.E.E.E.E.E.J.A.g h w 6 b n.N.n.n.b.x.b 8 M X.i.2.1.c c x u.k.j.<X<X5X8X0X0X7X<XT T ] U P = ~ Y.E.E.E.E.E.E.E.E.E.E.E.E.E.E.",
"E.E.E.E.E.E.E.E.E.E.T.h t # v x.b.x.x.x.x.8 # V s.#Xi., .   % g.7X8X0X0X0X8X8X8X5XT .       = 2 ~ Y.E.E.E.E.E.E.E.E.E.E.E.E.E.E.",
"E.E.E.E.E.E.E.E.E.E.E.J.g p w 8 8 8 8 v v 7 X B s.#X}.p.D 2 % g.7X0X0X7X2Xj.k.j.k.[ Z , . = _ *X#.} | Y.E.E.E.E.E.E.E.E.E.E.E.E.",
"E.E.E.E.E.E.E.E.E.E.E.T.A.k p @ # # # # # .   B s.#X+X@Xi.B % g.7X0X0X7Xk.P P P 3 A 4.Z $ L *X>X=X_ a | E.E.E.E.E.E.E.E.E.E.E.E.",
"E.E.E.E.E.E.E.E.E.E.E.E.J.J.h 9 @ .           B 6.OX#X#Xd.[ % g.7X7X5X3Xk.` _ @ , 2.t.2., _ -XaX-Xo.#.} U.Y.E.E.E.E.E.E.E.E.E.E.",
"E.E.E.E.E.E.E.E.E.E.E.E.E.T.A.( i @           < 2.oXOX#Xd.[ % g.7X5Xg.+.4XeX4X) , 3.oX3.2 _ wXgXpX-X;X#.{ | Y.E.E.E.E.E.E.E.E.E.",
"E.E.E.E.E.E.E.E.E.E.E.E.E.E.T.T.{ r o - o .   , 1.5.t.+X}.D 2 g.7X3XI ) yXhXeX` 2 s.#Xi.N ` rXhXgXaX:Xo.* { Y.E.E.E.E.E.E.E.E.E.",
"E.E.E.E.E.E.E.E.E.E.E.E.R.T.l f ' ] +.+.+.I % , 1.5.4.i.p.u.g.1X7X<XI ) yXhXtX` n i.#X@Xi.p.s.dXpXsXdX@.* { T.E.E.E.E.E.E.E.E.E.",
"E.E.E.E.E.E.E.E.E.E.E.E.R.Y.f @ ] <X6X6X6Xg.P , 1.4.1.1 Y l.7X7X8X3XI ) yXhXtX` B i.#X#X@Xd.p.' wXfXpX@.* } Y.E.E.E.E.E.E.E.E.E.",
"E.E.E.E.E.E.E.E.E.E.E.E.R.Y.g t [ j.1X1X1Xg.T R 1.,.A 1 R k.1X1X1Xj.[ [ XXkXyXp.[ f.OXoX@Xs.p.#.rXhXfX@.* { Y.E.E.E.E.E.E.E.E.E.",
"E.E.E.E.E.E.E.E.E.E.E.E.R.T.U.k ' ' U U U g.j.k.Y 1 Z 1.1.[ U U U ] s.d.@X@X@X}.d.f.t.6.[ X.wXtXfXhXfX@.* { Y.E.E.E.E.E.E.E.E.E.",
"E.E.E.E.E.E.E.E.E.E.E.E.E.E.E.E.k r + + + +.2X3XY X Z ,.,.5 o o $ F d.+Xz.5.t.oXoXt.4.A , ` eXjXjXjXfX@.* { Y.E.E.E.E.E.E.E.E.E.",
"E.E.E.E.E.E.E.E.E.E.E.E.E.E.E.E.J.g p f p ' +.T 3 . , Z A A A Z A 2.6.z.t.5.6.i.p.1.A 1 o ` eXjXjXjXfXXX* { Y.E.E.E.E.E.E.E.E.E.",
"E.E.E.E.E.E.E.E.E.E.E.E.E.E.E.E.A.Y.Y.Y.Y.G * %     o O 1 1.4.:.4.4.5.5.5.5.,.1 $ $ X .   ` eXjXjXjXfX@.* G Y.E.E.E.E.E.E.E.E.E.",
"E.E.E.E.E.E.E.E.E.E.E.E.E.E.E.E.J.E.E.E.R.g @ . & e e e N F ,.,.,.,.,.,.,.,.Z , . , < , . ` eXjXhXgXpX@.* } Y.E.E.E.E.E.E.E.E.E.",
"E.E.E.E.E.E.E.E.E.E.E.E.E.E.E.E.E.E.E.E.R.g @ @ E ^ ^ ^ ~ N 1 1 1 1 1 1 1 1 $ . X Z ,.5 , ` eXjXgXsXdX*XL G Y.R.R.R.E.E.E.E.E.E.",
"E.E.E.E.j j E.E.E.E.j j E.E.E.E.E.E.E.E.T.f @ e ^ L.L.L.^ e   . X o     + + - . $ A 4.A , ' rXhXsXaX:Xo.P /.Y.T.R.R.E.E.E.E.E.E.",
"E.E.E.E.E.j j E.E.j j E.E.E.E.E.E.E.E.E.R.f @ e J.I.I.L./ e . , 1 , $   e E e & X 1 Z m % _ dXsXsXaX:Xo.N /.T.iXE.E.E.E.E.E.E.E.",
"E.j j j E.j j E.E.j j E.j j j E.E.E.E.E.E.g @ u J.(.P.L.^ e . 1 A Z , - W K.! e   o X $ = _ ;XaX,X,X:Xo.y W uXiXE.E.E.E.E.E.E.E.",
"E.E.j j j E.j E.E.j E.j j j U.k k k k k k u + u J.).P.I.^ Q o m S F 1 N E ( { V D Z D 3 L L -X,X>X:X;X#._ #.uXd E.E.E.E.E.E.E.E.",
"E.E.E.j j E.E.E.E.E.E.j j Y.g r 9 t 0 9 r @ . u J.).P.L.^ e o 1 S 1.A Z N y C i.a.a.a.F 2 L ;X,X-X*X_ qXuXuXd d E.E.E.E.E.E.E.E.",
"E.E.E.E.E.E.E.E.E.E.E.E.Y.| M , O . . $ $ $ + u J.).P.I.^ u X m 1.<.<.A 1 . D f.OXOXOX3.2 L *X>X*X_ W 0 d d Y.T.E.E.E.E.E.E.E.E.",
"E.E.E.E.E.E.E.E.E.E.E.U.g M S ;.x $ $ J ].J q u J.).P.L.^ e o m S <.<.S 1 . F d.OXOXOXi.2 - _ *XO.} | 0 d d T.T.E.E.E.E.E.E.E.E.",
"E.E.E.E.E.E.E.E.R.R.R.k r , ;.w.:.< n ].&X].N u J.).P.L./ e X m S <.<.S m   D f.OXOXOX3.2 . - - s U.E.R.E.E.E.E.E.E.E.E.E.E.E.E.",
"E.E.E.E.E.E.E.E.A.J.( H Z ;.>.y.;.< N D..X].J D.!._.!.P.K.! y N m Z Z m , . B F a.i.i.2.4 : O . s U.E.E.j j E.E.E.E.j j E.E.E.E.",
"E.E.E.E.E.E.E.E.Y.g 0 Z :.9.8.-.%.: $  .!.|..X%X$X$X|.^.K./ ( W , $ $ $ .   $ 2 2 1 B 4 &.$.>   p U.E.E.E.j j E.E.j j E.E.E.E.E.",
"E.E.E.E.E.E.E.E.Y.f + x 9.w.-.=.$.: @ W / Q..X%X%X%X X~.~.~.W. .N n r @ & & -   X O : 4 %.&.>   p z j j E.j j E.E.j j E.j j j E.",
"E.E.E.E.E.E.E.E.Y.f . x 9.r.8.=.$.:   e u ..Q.|.|.|.|. X X X.X|.].Q. .! ! ! E & O > $.; > > :   p H j j j E.j E.E.j E.j j j E.E.",
"E.E.E.E.E.E.E.E.Y.p + x 9.r.8.=.$.:       E / L.K.^.|.%X{.&X&X&X&X.X!.K.K.K.( & : ; =.$.:       p J.E.j j E.E.E.E.E.E.j j E.E.E.",
"E.E.E.E.E.E.E.E.R.k z Z ;.:.*.; 4 N r @   e W ^ / L.!.|. X X X X.X|...! ( ! E & O > $.> :   r s k T.E.E.E.E.E.E.E.E.E.E.E.E.E.E.",
"E.E.E.E.E.E.E.E.T.Y.U.G n , , : n k k t   - & E ^ ^.^.~.~.~.~.^.~...s & & e &     O : O   o a | Y.E.E.E.E.E.E.E.E.E.E.E.E.E.E.E.",
"E.E.E.E.E.E.E.E.E.E.E.~ h @ 9 9 h A.J.i       & W / / / ^ / / / / W +                 + 9 u ^ E.E.E.E.E.E.E.E.E.E.E.E.E.E.E.E.E.",
"E.E.E.E.E.E.E.E.E.E.E.U.l k g g ^ Y.^ w       + e Q Q Q Q & E E E e                   9 z ^ A.E.E.E.E.E.E.E.E.E.E.E.E.E.E.E.E.E.",
"E.E.E.E.E.E.E.E.E.E.E.E.E.E.E.E.J.T.J.u                                               i ^ A.A.E.E.E.E.E.E.E.E.E.E.E.E.E.E.E.E.E.",
"E.E.E.E.E.E.E.E.E.E.E.E.E.E.E.E.A.g w r                                               t z ^ J.E.E.E.E.E.E.E.E.E.E.E.E.E.E.E.E.E.",
"E.E.E.E.E.E.E.E.E.E.E.E.E.E.E.E.k 0 @                                                   @ t l E.E.E.E.E.E.E.E.E.E.E.E.E.E.E.E.E.",
"E.E.E.E.E.E.E.E.E.E.E.E.E.E.E.E.g 9                                                       9 g E.E.E.E.E.E.E.E.E.E.E.E.E.E.E.E.E.",
"E.E.E.E.E.E.E.E.E.E.E.E.E.E.E.E.g 9                                                       9 k E.E.E.E.E.E.E.E.E.E.E.E.E.E.E.E.E.",
"E.E.E.E.E.E.E.E.E.E.E.E.E.E.E.E.g 9                                                     . 9 g E.E.E.E.E.E.E.E.E.E.E.E.E.E.E.E.E.",
"E.E.E.E.E.E.E.E.E.E.E.E.E.E.E.E.A.! u @                                               @ t g l E.E.E.E.E.E.E.E.E.E.E.E.E.E.E.E.E.",
"E.E.E.E.j j E.E.E.E.j j E.E.E.E.T.Y.k t                                               t k Y.T.E.E.E.E.E.j j E.E.E.E.j j E.E.E.E.",
"E.E.E.E.E.j j E.E.j j E.E.E.E.E.E.E.U.p 9 r r @                               + 9 r q s Y.R.R.E.E.E.E.E.E.j j E.E.j j E.E.E.E.E.",
"E.j j j E.j j E.E.j j E.j j j E.E.T.T.J.k k k f @                           e d k k k J.T.R.E.E.E.j j j E.j j E.E.j j E.j j j E.",
"E.E.j j j E.j E.E.j E.j j j E.E.E.E.E.E.E.E.J.A.u + + + + + +   + + + +   + u J.E.E.E.E.E.E.E.E.E.E.j j j E.j E.E.j E.j j j E.E.",
"E.E.E.j j E.E.E.E.E.E.j j E.E.E.E.E.E.E.E.R.R.Y.k z f p f p p f p f p f z p ( A.E.E.E.E.E.E.E.E.E.E.E.j j E.E.E.E.E.E.j j E.E.E.",
"E.E.E.E.E.E.E.E.E.E.E.E.E.E.E.E.E.E.E.E.E.E.E.R.Y.Y.Y.Y.Y.Y.Y.Y.Y.Y.Y.Y.Y.T.J.A.E.E.E.E.E.E.E.E.E.E.E.E.E.E.E.E.E.E.E.E.E.E.E.E.",
"E.E.E.E.E.E.E.E.E.E.E.E.E.E.E.E.E.E.E.E.E.E.E.E.E.R.R.R.E.E.R.E.E.E.E.E.E.E.E.J.E.E.E.E.E.E.E.E.E.E.E.E.E.E.E.E.E.E.E.E.E.E.E.E."
};
