/* XPM */
static char *a6403d998fc14dd8efdb452f43b2d23fo9tg8PO35ygIHwRe[] = {
/* columns rows colors chars-per-pixel */
"70 35 71 1 ",
"  c #634B2A",
". c #755D36",
"X c #786038",
"o c #604828",
"O c #725A34",
"+ c #664E2C",
"@ c #5A4428",
"# c #4E3C28",
"$ c #574228",
"% c #483828",
"& c #443628",
"* c #322D28",
"= c #383028",
"- c #362F28",
"; c #302C28",
": c #342E28",
"> c #503E28",
", c #3A4A5A",
"< c #303B4D",
"1 c #393432",
"2 c #493A28",
"3 c #453728",
"4 c #313B4A",
"5 c #483928",
"6 c #41659C",
"7 c #4F7DBC",
"8 c #4A74AD",
"9 c #416394",
"0 c #3B4E64",
"q c #3C526E",
"w c #4268A2",
"e c #304878",
"r c #3B5E99",
"t c #507CB4",
"y c #3A5B93",
"u c #33518A",
"i c #355796",
"p c #385489",
"a c #365287",
"s c #314A7B",
"d c #355693",
"f c #3C60A1",
"g c #3A5E9F",
"h c #335087",
"j c #3860A8",
"k c #375C9F",
"l c #345490",
"z c #324E84",
"x c #4068AE",
"c c #4B76BA",
"v c #5488CC",
"b c #5182C6",
"n c #4870B4",
"m c #314B7E",
"M c #4D7096",
"N c #5385C6",
"B c #4972AB",
"V c #4E74A0",
"C c #4A75B1",
"Z c #282828",
"A c #292C32",
"S c #2F3A4A",
"D c #4A3928",
"F c #3E3428",
"G c #3C3228",
"H c #2A2928",
"J c #2C2A28",
"K c #604C30",
"L c #4C3C28",
"P c #5D492E",
"I c #373028",
/* pixels */
" .X. ooO. +.X.+o O.+ .X. ooO. +.X. o O.++.X.+o O.+ .X. ooO. +.X. o O.+",
"@@######$@@$######@@@$######@@@@######$@@$######@@@$######@@@@######$@",
"%%&*==*&%%%%&-==-&%%%%&*==*&%%%%&-==-&%%%%&-==-&%%%%&*==*&%%%%&-==-&%%",
"==;$oo$;:==:;>oo>;===:;$oo$;====;>oo>;:==:;>oo>;===:;$oo$;====;>oo>;:=",
",<1232214,,4152251<,,4123321<,,<1532514,,4152251<,,4123321<,,<1532514,",
"67890q9876w789qq987w6789009876w7890q987ww789qq987w6789009876w7890q987w",
"eeerttreeeeeeyttyeeeeeerttreeeeeeyttyeeeeeeyttyeeeeeerttreeeeeeyttyeee",
"eeeeeeeeeeeeeeeeeeeeeeeeeeeeeeeeeeeeeeeeeeeeeeeeeeeeeeeeeeeeeeeeeeeeee",
"eeuipaiuseesudaadueeesuippiueeeeudpaduseesudaadueeesuippiueeeeudpaduse",
"eeeufgueeeeeehggheeeeeeuffueeeeeehfgheeeeeehggheeeeeeuffueeeeeehfgheee",
"eeeeeeeeeeeeeeeeeeeeeeeeeeeeeeeeeeeeeeeeeeeeeeeeeeeeeeeeeeeeeeeeeeeeee",
"jklzzzzlkjjklzzzzlkjjklzzzzlkjjklzzzzlkjjklzzzzlkjjklzzzzlkjjklzzzzlkj",
"jjjjjjjjjjjjjjjjjjjjjjjjjjjjjjjjjjjjjjjjjjjjjjjjjjjjjjjjjjjjjjjjjjjjjj",
"jjjjjjjjjjjjjjjjjjjjjjjjjjjjjjjjjjjjjjjjjjjjjjjjjjjjjjjjjjjjjjjjjjjjjj",
"jjjjjjjjjjjjjjjjjjjjjjjjjjjjjjjjjjjjjjjjjjjjjjjjjjjjjjjjjjjjjjjjjjjjjj",
"jjjjjjjjjjjjjjjjjjjjjjjjjjjjjjjjjjjjjjjjjjjjjjjjjjjjjjjjjjjjjjjjjjjjjj",
"jjjjjjjjjjjjjjjjjjjjjjjjjjjjjjjjjjjjjjjjjjjjjjjjjjjjjjjjjjjjjjjjjjjjjj",
"jjjjjjjjjjjjjjjjjjjjjjjjjjjjjjjjjjjjjjjjjjjjjjjjjjjjjjjjjjjjjjjjjjjjjj",
"jjjjjjjjjjxcvbnjjjjjjjjjjjjjjjjjjjjjjjjjjjjjjjjjjjjjjjjjjjjjjjjjjjjjjj",
"jjjjjjjjjjjjjjjjjjjjjjjjjjjjjjjjjjjjjjjjjjjjjjjjjjjjjjjjjjjjjjjjjjjjjj",
"jjjjjjjjjjjjjjjjjjjjjjjjjjjjjjjjjjjjjjjjjjjjjjjjjjjjjjjjjjjjjjjjjjjjjj",
"jjjjjjjjjjjjjjjjjjjjjjjjjjjjjjjjjjjjjjjjjjjjjjjjjjjjjjjjjjjjjjjjjjjjjj",
"zzlkjjklzzzzlkjjklzzzzlkjjklzzzzlkjjklzzzzlkjjklzzzzlkjjklzzzzlkjjklzz",
"eeeszzseeeeeeszzseeeeeeszzseeeeeeszzseeeeeeszzseeeeeeszzseeeeeeszzseee",
"lmeeeeeemllmeeeeeemllmeeeeeemllmeeeeeemllmeeeeeemllmeeeeeemllmeeeeeeml",
"piueeeeudpaduseesuiapdueeeeuipaiuseesudaaduseesuiapdueeeeuipaiuseesuda",
"eemeeeemeeeemseesmeeeemeeeemeeeemseesmeeeemseesmeeeemeeeemeeeemseesmee",
"treeeeeeyttyeeeeeerttyeeeeeerttreeeeeeyttyeeeeeerttyeeeeeerttreeeeeeyt",
"MNvBmzBvNMVNvCzzCvNVMNvBmmBvNMVNvCmzCvNVVNvCzzCvNVMNvBmmBvNMVNvCmzCvNV",
"ZZA<,,<AZZZZAS,,SAZZZZA<,,<AZZZZAS,,SAZZZZAS,,SAZZZZA<,,<AZZZZAS,,SAZZ",
"ZZZZZZZZZZZZZZZZZZZZZZZZZZZZZZZZZZZZZZZZZZZZZZZZZZZZZZZZZZZZZZZZZZZZZZ",
"ZZZZZZZZZZZZZZZZZZZZZZZZZZZZZZZZZZZZZZZZZZZZZZZZZZZZZZZZZZZZZZZZZZZZZZ",
"#D:ZZZZ:%##%:ZZZZ:D##%:ZZZZ:D##D:ZZZZ:%##%:ZZZZ:D##%:ZZZZ:D##D:ZZZZ:%#",
"F:G-HJ-G=FF=G-JJ-G:FF=G-HH-G:FF:G-HJ-G=FF=G-JJ-G:FF=G-HH-G:FF:G-HJ-G=F",
"KKL::;:LPKKPLI;;ILKKKPL::::LKKKKLI:;ILPKKPLI;;ILKKKPL::::LKKKKLI:;ILPK"
};
