/* XPM */
static char *b3be0c46b4f84fccb27453ade6f7cce9wOW2yEVeATPbARfb[] = {
/* columns rows colors chars-per-pixel */
"64 64 88 1 ",
"  c #489848",
". c #3D733D",
"X c #282828",
"o c #282D29",
"O c #28382B",
"+ c #365A36",
"@ c #28432C",
"# c #285830",
"$ c #285C34",
"% c #285D35",
"& c #3A663A",
"* c #28482D",
"= c #28633B",
"- c #28663E",
"; c #286840",
": c #334D33",
"> c #2C342C",
", c #28643C",
"< c #28332A",
"1 c #284D2E",
"2 c #285A32",
"3 c #286139",
"4 c #458A45",
"5 c #285F37",
"6 c #458C45",
"7 c #283D2C",
"8 c #28532F",
"9 c #2F412F",
"0 c #307030",
"q c #B0E8B8",
"w c #72AD75",
"e c #285828",
"r c #2F683C",
"t c #285839",
"y c #3D432F",
"u c #3D382D",
"i c #615439",
"p c #967E4E",
"a c #4F4737",
"s c #3C4A31",
"d c #8F7747",
"f c #484030",
"g c #4D432D",
"h c #887040",
"j c #336336",
"k c #343C2C",
"l c #6D5B35",
"z c #3F392C",
"x c #3D8340",
"c c #28362D",
"v c #3B352B",
"b c #34312A",
"n c #605030",
"m c #645432",
"M c #615234",
"N c #2E2C29",
"B c #766239",
"V c #7F693C",
"C c #473E2C",
"Z c #54472E",
"A c #413A2C",
"S c #7B653B",
"D c #725E37",
"F c #6E5C39",
"G c #5A4C2F",
"H c #2F6F3E",
"J c #695734",
"K c #2F6837",
"L c #816C44",
"P c #937B4B",
"I c #7A653C",
"U c #5D5138",
"Y c #A89060",
"T c #7D6D4D",
"R c #A18959",
"E c #8C7444",
"W c #6F5F3F",
"Q c #335C38",
"! c #282F2B",
"~ c #439146",
"^ c #335834",
"/ c #3A8343",
"( c #337843",
") c #2F7342",
"_ c #285A3B",
"` c #283D30",
"' c #2F643C",
"] c #285338",
/* pixels */
"                       ..XoOOOOOOOOOoX..                        ",
"                     .+XXO@#$%%%%%$#@OXX+.                      ",
"                    &X***#$=-;;;;;-=$#***X&                     ",
"                &:::>*###=,;;;;;;;;;,=###*>:::&                 ",
"              +X<OOO1#23;;-=$#####$=-;;32#1OOO<X+               ",
"             4Xo1####%3;;;5#########5;;;3%####1oX6              ",
"            &><1##$==;;;;%###########%;;;;==$##1<>&             ",
"            :X1##=,;;;;,%####=====####%,;;;;,=##1X:             ",
"           +X<#2,;;;,=####23;;;;;;;32####=,;;;,2#<X+            ",
"          +XX*#%;;;-$#####3;;;===;;;3#####$-;;;%#*XX+           ",
"         &XX78$,;;;=#####=;;;%###%;;;=#####=;;;,$87XX&          ",
"        &><*8#,;;;,$###$=;;,%#####%,;;=$###$,;;;,#8*<>&         ",
"        9X###=;;;=####3;;;5##%;;;%##5;;;3####=;;;=###X9         ",
"       .X<##$,;;;#####;;;;##$;;;;;$##;;;;#####;;;,$##<X.        ",
"      4978##=;;;3#####;;;;##=;;;;;=##;;;;#####3;;;=##8796       ",
"      .X*##$-;;;%#####;;;;##=;;;;;=##;;;;#####%;;;-$##*X.       ",
"      XO##23;;;=######;;;;###=;;;=###;;;;######=;;;32##OX       ",
"      XO##%;;;;=######,;;;$###===###$;;;,######=;;;;%##OX       ",
"      XO##%;;;;=######23;;=#########=;;32######=;;;;%##OX       ",
"      XO##%;;;,$#######2,;-5#######5-;,2#######$,;;;%##OX       ",
"      XO##%;;;=#########5;;;3%###%3;;;5#########=;;;%##OX       ",
"      XO##%;;;=##########;;;;;%%%;;;;;##########=;;;%##OX       ",
"      XO##%;;;=##########%;;;;;;;;;;;%##########=;;;%##OX       ",
"      XO##%;;;=###########3;;;;;;;;;3###########=;;;%##OX       ",
"      XO##$,;;;=###########$=;;;;;=$###########=;;;,$##OX       ",
"      XO###%;;;,2############=====############2,;;;%###OX       ",
"      XO###2,;;;,#############################,;;;,2###OX       ",
"      XO####$,;;;=5#########################5=;;;,$####OX       ",
"      9X*#####,;;;;;3%###################%3;;;;;,#####*X9       ",
"      .X*#####$,;;;;;;$#################$;;;;;;,$#####*X.       ",
"      .X<1#####%;;;;;;-5###############5-;;;;;;%#####1<X.       ",
"       +X*#####2,;;;;;;-=#############=-;;;;;;,2#####*X+        ",
"       .X7######5;;;;;;;;%###########%;;;;;;;;5######7X.        ",
"    00 4>X#######=;;;;;;;;%$#######$%;;;;;;;;=#######X>4        ",
"     00 :X@#######3;;;;;;;;-=======-;;;;;;;;3#######@X:q        ",
" 000 00 49o@######23;;;;;;;;;;;;;;;;;;;;;;;32######@o9wq        ",
"  000 0  &XX78########===;;;;;;;;;;;;;===########87XX&qe        ",
"   00     9XX7###########=,;;;;;;;;;,=###########7XX9qee        ",
"          r7XX@###########23;;;;;;;32###########@XX7re          ",
"          tyuXO############2%;;;;;%2############OXuyte          ",
"         4ipaX<1###############################1<Xapi4          ",
"        4sdpfXX<8#############################8<XXfpds4   00    ",
"        :ghhfXXX<O###########################O<XXXfhhg:  00     ",
"        jkllzXXXXXOOOOOOO#############OOOOOOOXXXXXzllkj  00 000 ",
"         xcXXXXXXvvbbvvbXX<*********<XXbvvbbvvXXXXXXcx0  0 000  ",
"          tOOOXXXgnggnmMzXNvNXXXXXNvNXzMmnggngXXXOOOt      00   ",
"          =###7XXXvbbnmBVgNCZgggggZCNgVBmnbbvXXX7###=           ",
"          =###*XAgggbnnmVSAvDnnnnnDvASVmnnbgggAX*###=           ",
"           =##*vDShVmvZnnSFAGhnnnhGAFSnnZvmVhSDv*##=            ",
"           H2#*bgnVhBnAZnnSggSnnnSggSnnZAnBhVngb*#2H            ",
"            %#*bgvmBhngvnnJgbvvvvvbgJnnvgnhBmvgb*#%             ",
"            K#kZngCmVngvnnZbAgggggAbZnnvgnVmCgnZk#K             ",
"            jkLPIngvnngXAgNCnlllllnCNgAXgnnvgnIPLkj             ",
"            :UYYPngbGnAXXXvnJhhhhhJnvXXXAnGbgnPYYU:             ",
"            :TRPEngXbv<**XvnJlllllJnvX**<vbXgnEPRT:             ",
"            :WdhBnbXX*1##XvnnvvvvvnnvX##1*XXbnBhdW:             ",
"            Q!gggXo@######<bAnlllnAb<######@oXggg!Q             ",
"    00    00~Q::::^K%#####*XgnEPEngX*#####%K^::::Q~ 00    00    ",
"     00  00          ==5##87gSPYPSg78##5==           00  00     ",
" 000 00  00 000        /=#5*ghEPEhg*5#=/         000 00  00 000 ",
"  000 0  0 000           ()_!nVhVn!_)(            000 0  0 000  ",
"   00      00              )`gJSJg`)               00      00   ",
"                            'XvvvX'                             ",
"                             ]XXX]                              "
};
